<!-- Generated by IcoMoon.io -->
<svg version="1.1" xmlns="http://www.w3.org/2000/svg" width="33" height="32" viewBox="0 0 33 32">
<path d="M23.155 0.403c-0.482 0.226-14.818 14.588-14.999 15.025-0.076 0.168-0.121 0.365-0.121 0.572 0 0.234 0.057 0.454 0.157 0.648l-0.004-0.008c0.11 0.232 2.451 2.624 7.477 7.638 5.949 5.933 7.381 7.32 7.648 7.406 0.134 0.042 0.287 0.066 0.446 0.066 0.599 0 1.118-0.343 1.372-0.843l0.004-0.009c0.108-0.192 0.172-0.421 0.172-0.665 0-0.206-0.046-0.401-0.127-0.576l0.004 0.008c-0.092-0.22-2.128-2.313-6.8-6.989l-6.669-6.674 6.706-6.716c5.437-5.445 6.724-6.779 6.81-7.044 0.042-0.134 0.067-0.288 0.067-0.448 0-0.599-0.343-1.119-0.843-1.372l-0.009-0.004c-0.191-0.106-0.419-0.169-0.661-0.169-0.23 0-0.447 0.056-0.638 0.156l0.008-0.004z"></path>
</svg>
