<!-- Generated by IcoMoon.io -->
<svg version="1.1" xmlns="http://www.w3.org/2000/svg" width="33" height="32" viewBox="0 0 33 32">
<path d="M14.554 0.317c-0.975 0.102-2.244 0.389-3.318 0.75-7.797 2.618-12.263 10.808-10.251 18.795 1.757 6.971 8.074 11.888 15.275 11.888 6.705 0 12.691-4.261 14.884-10.595 0.592-1.707 0.854-3.292 0.854-5.161s-0.262-3.454-0.854-5.161c-2-5.774-7.228-9.911-13.303-10.523-0.823-0.083-2.458-0.080-3.287 0.007zM17.705 1.542c2.804 0.287 5.587 1.437 7.732 3.196 0.605 0.497 1.697 1.599 2.179 2.199 1.594 1.989 2.673 4.518 3.028 7.095 0.139 1.006 0.139 2.919 0 3.925-0.355 2.577-1.434 5.105-3.028 7.095-0.481 0.599-1.574 1.702-2.179 2.199-2.146 1.759-4.928 2.909-7.732 3.196-3.765 0.386-7.697-0.798-10.624-3.196-0.605-0.497-1.697-1.599-2.179-2.199-1.204-1.503-2.155-3.395-2.687-5.35-0.599-2.2-0.599-5.214 0-7.414 0.532-1.953 1.48-3.841 2.687-5.35 0.48-0.6 1.575-1.705 2.179-2.2 2.112-1.728 4.937-2.909 7.64-3.193 0.803-0.085 2.175-0.086 2.983-0.003zM15.844 8.641l-0.2 0.2v11.145l0.163 0.19c0.131 0.152 0.221 0.191 0.452 0.191s0.321-0.038 0.452-0.191l0.163-0.19v-11.145l-0.2-0.2c-0.136-0.136-0.268-0.199-0.415-0.199s-0.279 0.063-0.415 0.199zM15.786 22.254c-0.291 0.291-0.295 0.673-0.011 0.957 0.44 0.44 1.167 0.139 1.167-0.484 0-0.628-0.71-0.919-1.157-0.473z"></path>
</svg>
