<!-- Generated by IcoMoon.io -->
<svg version="1.1" xmlns="http://www.w3.org/2000/svg" width="32" height="32" viewBox="0 0 32 32">
<path d="M15.316 0.016c-0.907 0.127-1.234 0.194-1.763 0.362-1.567 0.498-3.067 1.57-3.99 2.854-0.929 1.29-1.418 2.625-1.557 4.253l-0.042 0.487-1.548 0.038c-0.851 0.022-1.793 0.082-2.093 0.133-1.634 0.276-2.311 0.957-2.618 2.636-0.093 0.511-0.106 1.304-0.106 6.954 0 7.294 0.037 8.081 0.453 9.76 0.192 0.776 0.409 1.298 0.771 1.857 0.397 0.615 0.742 0.966 1.335 1.359 1.069 0.708 2.126 0.997 4.395 1.202 1.34 0.12 13.464 0.119 14.87-0.002 2.216-0.191 3.333-0.495 4.395-1.2 1.202-0.796 1.878-1.94 2.23-3.778 0.306-1.596 0.377-3.727 0.341-10.322-0.024-4.637-0.042-5.453-0.131-5.906-0.325-1.63-0.993-2.287-2.605-2.559-0.3-0.051-1.242-0.111-2.093-0.133l-1.548-0.038-0.042-0.487c-0.050-0.694-0.18-1.34-0.382-1.953l0.016 0.057c-0.846-2.764-3.248-4.908-6.103-5.451-0.521-0.098-1.831-0.171-2.187-0.122zM17.367 3.376c1.87 0.588 3.232 2.243 3.403 4.131l0.043 0.484h-9.651l0.040-0.468c0.175-2.061 1.785-3.83 3.894-4.273 0.493-0.104 1.764-0.034 2.271 0.127zM11.984 14.621c0.34 0.199 0.644 0.588 0.74 0.945 0.043 0.157 0.061 0.973 0.048 2.192l-0.019 1.939-0.194 0.316c-0.284 0.473-0.794 0.785-1.376 0.785s-1.093-0.312-1.372-0.778l-0.004-0.007-0.194-0.316v-4.176l0.178-0.303c0.264-0.482 0.767-0.803 1.345-0.803 0.055 0 0.109 0.003 0.163 0.009l-0.007-0.001c0.256 0.007 0.494 0.079 0.699 0.201l-0.007-0.004zM21.598 14.621c0.34 0.199 0.644 0.588 0.74 0.945 0.043 0.157 0.061 0.973 0.048 2.192l-0.019 1.939-0.194 0.316c-0.284 0.473-0.794 0.785-1.376 0.785s-1.093-0.312-1.372-0.778l-0.004-0.007-0.194-0.316v-4.176l0.178-0.303c0.264-0.482 0.767-0.803 1.345-0.803 0.055 0 0.109 0.003 0.163 0.009l-0.007-0.001c0.256 0.007 0.494 0.079 0.699 0.201l-0.007-0.004z"></path>
</svg>
