<!-- Generated by IcoMoon.io -->
<svg version="1.1" xmlns="http://www.w3.org/2000/svg" width="32" height="32" viewBox="0 0 32 32">
<path d="M14.849 0.28c-2.3 0.238-3.937 0.684-5.742 1.565-4.761 2.354-8.117 6.916-8.748 12.31l-0.007 0.074c-0.55 4.709 1.131 9.507 4.52 12.896 2.512 2.507 5.863 4.175 9.595 4.548l0.066 0.005c0.555 0.056 2.654 0.072 6.757 0.052 6.453-0.030 6.304-0.021 7.296-0.424 1.159-0.471 2.26-1.572 2.731-2.731 0.403-0.993 0.394-0.844 0.424-7.296 0.019-4.103 0.003-6.202-0.052-6.757-0.546-5.586-3.938-10.27-8.689-12.628l-0.092-0.041c-1.332-0.682-2.879-1.186-4.511-1.429l-0.083-0.010c-0.716-0.109-2.902-0.193-3.466-0.135zM21.851 12.608c0.646 0.221 1.155 0.942 1.155 1.635 0 0.424-0.208 0.912-0.523 1.227-0.544 0.546-0.275 0.523-6.479 0.523s-5.934 0.023-6.479-0.523c-0.317-0.313-0.514-0.747-0.514-1.227s0.197-0.916 0.515-1.229l0-0c0.534-0.534 0.24-0.509 6.447-0.516 4.979-0.005 5.57 0.007 5.877 0.11zM21.851 19.61c0.646 0.221 1.155 0.942 1.155 1.635 0 0.424-0.208 0.912-0.523 1.227-0.515 0.515-0.578 0.523-3.853 0.523s-3.338-0.009-3.853-0.523c-0.317-0.313-0.514-0.747-0.514-1.227s0.197-0.916 0.515-1.229l0-0c0.506-0.506 0.536-0.509 3.822-0.516 2.535-0.005 2.955 0.011 3.251 0.11z"></path>
</svg>
