<!-- Generated by IcoMoon.io -->
<svg version="1.1" xmlns="http://www.w3.org/2000/svg" width="32" height="32" viewBox="0 0 32 32">
<path d="M15.176 0.773c-0.746 0.11-1.421 0.328-3.182 1.025-1.101 0.435-2.024 0.81-2.050 0.835-0.028 0.023 3.261 1.366 7.308 2.985l7.355 2.943 2.93-1.168c1.611-0.641 2.953-1.189 2.984-1.217 0.031-0.026-0.072-0.123-0.23-0.215-0.476-0.276-12.102-4.895-12.676-5.036-0.522-0.128-1.983-0.22-2.438-0.153zM4.416 4.824c-2.559 1.035-3.048 1.26-2.939 1.355-1.999-0.629 0.406 0.361 2.818 1.338l4.468 1.598 7.234 2.89 2.961-1.184c1.842-0.736 2.925-1.202 2.869-1.234-0.269-0.151-14.576-5.835-14.671-5.831-0.064 0.003-1.296 0.484-2.739 1.068zM0.282 8.098c-0.021 0.118-0.030 3.786-0.020 8.152l0.020 7.939 0.153 0.377c0.225 0.554 0.53 0.963 0.974 1.302 0.344 0.262 1.168 0.61 6.332 2.675 5.574 2.228 6.41 2.544 7.026 2.659l0.246 0.046v-17.512l-7.316-2.926c7.394 2.57 4.969 1.583 2.541 0.602l-9.886-3.528c-0.016 0-0.048 0.097-0.069 0.213zM24.28 10.815l-7.299 2.923v8.753c0 4.814 0.023 8.753 0.049 8.753 0.028 0 0.29-0.059 0.584-0.13 0.633-0.151 12.229-4.77 12.742-5.075 0.61-0.361 1.048-0.958 1.283-1.745 0.093-0.32 0.105-1.179 0.103-8.234 0-4.334-0.018-7.944-0.039-8.026s-0.059-0.146-0.082-0.144c-0.023 0.002-3.327 1.319-7.34 2.926z"></path>
</svg>
