<!-- Generated by IcoMoon.io -->
<svg version="1.1" xmlns="http://www.w3.org/2000/svg" width="32" height="32" viewBox="0 0 32 32">
<path d="M0.706 1.927c-0.256 0.137-0.428 0.402-0.428 0.708 0 0.124 0.028 0.241 0.078 0.345l-0.002-0.005c0.15 0.291 0.418 0.427 0.842 0.427 0.878 0.002 1.511 0.228 1.995 0.713 0.565 0.566 0.484 0.202 1.779 7.983 0.644 3.867 1.213 7.179 1.266 7.36 0.171 0.601 0.499 1.137 1.010 1.651 0.553 0.556 1.081 0.861 1.805 1.047 0.451 0.115 0.702 0.118 9.738 0.118h9.275l0.211-0.184c0.433-0.38 0.377-0.99-0.117-1.275-0.088-0.051-2.531-0.076-9.406-0.099l-9.287-0.030-0.345-0.139c-0.254-0.117-0.473-0.262-0.666-0.434l0.003 0.002c-0.457-0.416-0.668-0.849-0.816-1.675-0.037-0.175-0.080-0.434-0.116-0.695l-0.007-0.066c0-0.064 1.829-0.081 10.23-0.094 9.651-0.013 10.241-0.021 10.424-0.121 0.117-0.069 0.212-0.162 0.281-0.274l0.002-0.003c0.115-0.223 3.268-11.256 3.268-11.438 0-0.175-0.13-0.428-0.3-0.581-0.132-0.118-0.243-0.12-13.079-0.15l-12.946-0.030-0.099-0.333c-0.37-1.248-1.408-2.272-2.695-2.662-0.464-0.139-1.648-0.183-1.898-0.069zM29.865 6.622c0 0.025-0.599 2.142-1.33 4.703l-1.332 4.66h-9.992c-5.497 0-9.994-0.013-9.994-0.031 0-0.046-1.493-9.017-1.534-9.21l-0.033-0.165h12.107c6.659 0 12.107 0.019 12.107 0.043zM8.841 23.988c-0.496 0.133-0.897 0.376-1.332 0.804-0.582 0.563-0.944 1.352-0.944 2.225 0 0.806 0.308 1.54 0.813 2.090l-0.002-0.002c0.614 0.683 1.396 1.029 2.328 1.029s1.714-0.346 2.328-1.029c0.503-0.548 0.811-1.282 0.811-2.088 0-0.873-0.362-1.661-0.943-2.224l-0.001-0.001c-0.445-0.439-0.837-0.671-1.357-0.807-0.437-0.114-1.27-0.112-1.7 0.003zM23.034 23.979c-0.768 0.214-1.573 0.845-1.934 1.514-0.201 0.374-0.403 1.132-0.403 1.516 0 0.377 0.201 1.141 0.394 1.495 0.538 0.969 1.549 1.618 2.713 1.634l0.002 0c0.93 0.008 1.679-0.309 2.305-0.974 0.599-0.634 0.875-1.315 0.875-2.155 0-0.878-0.286-1.558-0.923-2.188-0.469-0.464-0.854-0.697-1.384-0.836-0.419-0.108-1.266-0.111-1.646-0.006zM10.363 25.592c0.334 0.156 0.638 0.467 0.788 0.804 0.127 0.292 0.127 0.933 0 1.225-0.553 1.255-2.341 1.255-2.894 0-0.126-0.286-0.13-0.935-0.009-1.216 0.254-0.566 0.812-0.953 1.461-0.953 0.237 0 0.462 0.052 0.664 0.144l-0.010-0.004zM24.472 25.575c0.331 0.15 0.628 0.427 0.798 0.744 0.097 0.184 0.127 0.345 0.127 0.689s-0.030 0.505-0.127 0.689c-0.611 1.141-2.2 1.162-2.788 0.037-0.431-0.827-0.030-1.89 0.828-2.196 0.343-0.123 0.845-0.106 1.161 0.036z"></path>
</svg>
