<!-- Generated by IcoMoon.io -->
<svg version="1.1" xmlns="http://www.w3.org/2000/svg" width="32" height="32" viewBox="0 0 32 32">
<path d="M1.058 2.026c-0.167 0.072-0.31 0.171-0.43 0.292l-0 0c-0.533 0.533-0.442 1.366 0.196 1.788l0.243 0.16 4.078 0.060 1.682 9.526c1.024 5.796 1.722 9.599 1.784 9.713 0.153 0.267 0.398 0.467 0.691 0.558l0.009 0.002c0.156 0.043 3.326 0.058 9.807 0.046l9.577-0.015 0.229-0.142c0.8-0.497 0.74-1.667-0.106-2.052-0.232-0.105-0.64-0.109-9.231-0.111l-8.988-0.002-0.195-1.123c-0.032-0.13-0.1-0.526-0.162-0.925l-0.031-0.242c0.002-0.025 4.065-0.052 9.033-0.060l9.031-0.016 0.273-0.126c0.377-0.168 0.676-0.455 0.855-0.812l0.005-0.010c0.111-0.231 0.427-1.7 1.231-5.735 0.595-2.984 1.081-5.506 1.081-5.606 0-0.605-0.4-1.231-0.966-1.514l-0.371-0.186h-11.309c-6.22 0-11.325-0.022-11.341-0.051-0.077-0.306-0.171-0.772-0.251-1.244l-0.019-0.135c-0.145-0.815-0.28-1.402-0.349-1.52-0.101-0.146-0.224-0.27-0.364-0.37l-0.005-0.003-0.258-0.181-2.615-0.010c-1.547-0.006-2.697 0.012-2.814 0.046zM10.152 25.437c-0.652 0.227-1.173 0.688-1.473 1.281l-0.007 0.015c-0.148 0.319-0.168 0.428-0.168 0.959 0 0.533 0.020 0.64 0.172 0.971 0.204 0.443 0.735 0.981 1.14 1.153 1.442 0.619 2.992-0.207 3.276-1.743 0.183-0.99-0.355-2.020-1.291-2.479-0.307-0.151-0.436-0.177-0.929-0.19-0.313-0.008-0.638 0.008-0.72 0.034zM26.464 25.469c-0.845 0.276-1.438 0.969-1.591 1.859-0.019 0.112-0.030 0.241-0.030 0.372 0 0.905 0.521 1.688 1.279 2.066l0.013 0.006c0.374 0.184 0.437 0.196 1.030 0.196s0.656-0.012 1.030-0.196c0.681-0.335 1.131-0.948 1.263-1.716 0.019-0.111 0.030-0.24 0.030-0.371 0-0.903-0.519-1.685-1.275-2.064l-0.013-0.006c-0.343-0.169-0.464-0.196-0.939-0.211-0.344-0.011-0.638 0.013-0.798 0.066z"></path>
</svg>
