<!-- Generated by IcoMoon.io -->
<svg version="1.1" xmlns="http://www.w3.org/2000/svg" width="33" height="32" viewBox="0 0 33 32">
<path d="M1.837 0.355c-0.543 0.228-0.917 0.755-0.917 1.37 0 0.095 0.009 0.189 0.026 0.279l-0.001-0.009c0.063 0.336 0.917 1.231 6.876 7.2l6.806 6.816-6.806 6.816c-5.959 5.969-6.814 6.864-6.876 7.2-0.018 0.085-0.028 0.184-0.028 0.284 0 0.795 0.644 1.439 1.439 1.439 0.092 0 0.181-0.009 0.268-0.025l-0.009 0.001c0.391-0.063 0.928-0.572 7.24-6.871l6.814-6.804 6.816 6.804c6.31 6.3 6.846 6.809 7.237 6.871 0.752 0.12 1.429-0.296 1.617-0.993 0.233-0.87 0.499-0.564-6.829-7.907l-6.801-6.816 6.804-6.816c7.338-7.353 7.072-7.047 6.826-7.904-0.178-0.6-0.725-1.031-1.372-1.031-0.1 0-0.197 0.010-0.291 0.030l0.009-0.002c-0.336 0.063-1.231 0.915-7.2 6.876l-6.816 6.806-6.764-6.756c-3.745-3.743-6.894-6.806-7.057-6.866-0.147-0.062-0.317-0.098-0.496-0.098-0.186 0-0.363 0.039-0.523 0.109l0.008-0.003z"></path>
</svg>
