<!-- Generated by IcoMoon.io -->
<svg version="1.1" xmlns="http://www.w3.org/2000/svg" width="32" height="32" viewBox="0 0 32 32">
<path d="M12.587 0.322c-1.343 0.159-2.368 0.838-2.982 1.976-0.338 0.626-0.437 1.088-0.464 2.155-0.013 0.499-0.030 1.045-0.039 1.214l-0.015 0.306h2.006l0.001-0.573c0.003-1.532 0.137-2.125 0.586-2.573 0.364-0.364 0.692-0.483 1.482-0.537 0.913-0.062 10.741-0.060 11.599 0.003 0.793 0.058 1.030 0.142 1.413 0.5 0.314 0.294 0.483 0.619 0.551 1.060 0.082 0.532 0.038 18.47-0.045 18.706-0.107 0.3-0.422 0.717-0.685 0.906-0.403 0.289-0.626 0.333-1.822 0.362l-1.080 0.025v2.032l1.027-0.035c1.509-0.051 2.087-0.17 2.76-0.568 0.952-0.565 1.546-1.408 1.804-2.559 0.082-0.368 0.089-1.177 0.089-9.655 0-8.746-0.005-9.278-0.097-9.704-0.234-1.085-0.759-1.854-1.682-2.463-0.462-0.304-1.013-0.492-1.687-0.574-0.555-0.068-12.151-0.072-12.72-0.004zM7.333 6.185c-0.504 0.024-1.006 0.079-1.226 0.134-1.316 0.332-2.384 1.379-2.719 2.668-0.184 0.705-0.193 1.248-0.175 10.32 0.017 8.437 0.024 9.011 0.114 9.386 0.194 0.808 0.509 1.375 1.065 1.919 0.547 0.534 1.020 0.792 1.845 1.005 0.319 0.082 0.919 0.090 6.803 0.090 7.258 0 6.856 0.021 7.695-0.403 0.736-0.359 1.321-0.933 1.683-1.64l0.010-0.021c0.35-0.665 0.401-0.988 0.46-2.896 0.075-2.406 0.025-16.667-0.060-17.198-0.157-0.984-0.542-1.734-1.198-2.333-0.602-0.55-1.227-0.847-2.057-0.979-0.467-0.074-10.829-0.118-12.24-0.052zM19.19 8.214c0.485 0.063 0.788 0.194 1.089 0.472 0.385 0.355 0.519 0.686 0.576 1.427 0.063 0.818 0.064 16.81 0.001 17.625-0.066 0.853-0.252 1.258-0.744 1.618-0.54 0.395-0.155 0.372-6.672 0.392-6.063 0.019-6.674 0.002-7.125-0.198-0.307-0.136-0.718-0.527-0.866-0.824-0.074-0.159-0.133-0.343-0.169-0.536l-0.002-0.014c-0.072-0.442-0.068-18.016 0.005-18.469 0.075-0.471 0.315-0.862 0.705-1.151 0.292-0.217 0.544-0.306 1.025-0.362 0.391-0.045 11.821-0.026 12.177 0.020z"></path>
</svg>
