<!-- Generated by IcoMoon.io -->
<svg version="1.1" xmlns="http://www.w3.org/2000/svg" width="32" height="32" viewBox="0 0 32 32">
<path d="M0.914 3.839c-0.233 0.142-0.493 0.451-0.55 0.654-0.025 0.088-0.045 4.543-0.045 9.901v9.741l0.179 0.29c0.312 0.502 0.433 0.535 2.007 0.556l1.351 0.018 0.073 0.251c0.211 0.711 0.853 1.608 1.504 2.101 0.747 0.575 1.697 0.922 2.727 0.922 0.905 0 1.748-0.268 2.453-0.728l-0.017 0.011c0.753-0.476 1.547-1.499 1.816-2.339l0.072-0.224h7.031l0.072 0.224c0.269 0.839 1.063 1.862 1.816 2.339 0.687 0.45 1.529 0.718 2.433 0.718 0.702 0 1.366-0.161 1.957-0.449l-0.027 0.012c1.059-0.502 1.998-1.558 2.303-2.587l0.073-0.251 1.352-0.018c1.574-0.021 1.695-0.054 2.007-0.556l0.179-0.29v-8.372l-1.753-4.077c-0.965-2.243-1.808-4.146-1.873-4.228-0.098-0.108-0.214-0.198-0.343-0.266l-0.007-0.003c-0.215-0.111-0.358-0.118-2.055-0.118h-1.825v-1.256c0-1.369-0.027-1.513-0.336-1.801-0.097-0.090-0.209-0.166-0.333-0.221l-0.008-0.003c-0.116-0.045-3.523-0.064-11.111-0.064-10.552 0-10.948 0.004-11.124 0.112zM21.615 12.971v7.034l-0.281 0.178c-0.671 0.423-1.338 1.269-1.664 2.107l-0.169 0.433h-7.017l-0.072-0.224c-0.311-0.971-1.216-2.041-2.118-2.506-0.802-0.412-1.254-0.524-2.121-0.523-0.875 0.002-1.29 0.094-2.006 0.448-1.048 0.517-1.931 1.523-2.239 2.551l-0.076 0.254h-1.295v-16.786h19.056v7.034zM27.653 12.088c0.654 1.528 1.19 2.785 1.19 2.793 0 0.009-1.129 0.016-2.509 0.016h-2.509v-5.618l2.637 0.033 1.19 2.776zM29.44 19.945v2.778h-1.292l-0.106-0.352c-0.166-0.559-0.499-1.068-1.081-1.655-0.458-0.464-0.621-0.585-1.105-0.821-0.615-0.3-1.062-0.435-1.653-0.494l-0.378-0.039v-2.194h5.615v2.778zM9.175 21.882c0.453 0.243 0.808 0.615 1.021 1.069 0.136 0.293 0.158 0.417 0.158 0.907s-0.022 0.614-0.158 0.907c-0.355 0.787-1.133 1.325-2.037 1.325-0.354 0-0.688-0.082-0.985-0.229l0.013 0.006c-1.486-0.681-1.683-2.842-0.345-3.802 0.472-0.339 0.753-0.42 1.392-0.4 0.512 0.016 0.605 0.037 0.941 0.218zM24.808 21.852c1.659 0.814 1.661 3.256 0.003 4.014-1.141 0.523-2.421 0.073-2.97-1.041-0.179-0.364-0.196-0.445-0.196-0.966 0-0.49 0.022-0.615 0.157-0.905 0.27-0.573 0.739-0.998 1.357-1.226 0.137-0.051 0.415-0.075 0.756-0.066 0.454 0.012 0.593 0.042 0.893 0.19z"></path>
</svg>
