<!-- Generated by IcoMoon.io -->
<svg version="1.1" xmlns="http://www.w3.org/2000/svg" width="32" height="32" viewBox="0 0 32 32">
<path d="M3.646 12.787c-0.579 0.126-1.037 0.39-1.543 0.89-0.493 0.464-0.83 1.088-0.931 1.788l-0.002 0.016c-0.165 1.080 0.155 2.057 0.933 2.833 0.589 0.606 1.411 0.982 2.322 0.982s1.732-0.376 2.319-0.98l0.001-0.001c0.602-0.596 0.975-1.423 0.975-2.337 0-0.524-0.123-1.019-0.341-1.459l0.009 0.019c-0.25-0.514-0.918-1.206-1.425-1.475-0.65-0.347-1.516-0.45-2.317-0.276zM15.222 12.787c-0.579 0.126-1.037 0.39-1.543 0.89-0.493 0.464-0.83 1.088-0.931 1.788l-0.002 0.016c-0.165 1.080 0.155 2.057 0.933 2.833 0.589 0.606 1.411 0.982 2.322 0.982s1.732-0.376 2.319-0.98l0.001-0.001c0.602-0.596 0.975-1.423 0.975-2.337 0-0.524-0.123-1.019-0.341-1.459l0.009 0.019c-0.25-0.514-0.918-1.206-1.425-1.475-0.65-0.347-1.516-0.45-2.317-0.276zM26.798 12.787c-0.579 0.126-1.037 0.39-1.543 0.89-0.493 0.464-0.83 1.088-0.931 1.788l-0.002 0.016c-0.165 1.080 0.155 2.057 0.933 2.833 0.589 0.606 1.411 0.982 2.322 0.982s1.732-0.376 2.319-0.98l0.001-0.001c0.602-0.596 0.975-1.423 0.975-2.337 0-0.524-0.123-1.019-0.341-1.459l0.009 0.019c-0.25-0.514-0.918-1.206-1.425-1.475-0.65-0.347-1.516-0.45-2.317-0.276z"></path>
</svg>
