<!-- Generated by IcoMoon.io -->
<svg version="1.1" xmlns="http://www.w3.org/2000/svg" width="32" height="32" viewBox="0 0 32 32">
<path d="M22.56 6.935c-0.314 0.056-0.596 0.239-0.993 0.648-0.21 0.215-3.268 3.51-6.797 7.324-3.529 3.813-6.442 6.938-6.473 6.943s-1.065-1.082-2.297-2.419c-3.766-4.084-3.66-3.985-4.262-3.983-0.379 0.001-0.625 0.109-1.006 0.445-0.622 0.549-0.758 1.21-0.369 1.798 0.158 0.239 5.623 6.159 6.101 6.61 0.499 0.47 1.12 0.712 1.829 0.712 0.724 0 1.336-0.243 1.857-0.739 0.173-0.165 3.367-3.594 7.096-7.618 5.093-5.496 6.82-7.393 6.939-7.62s0.157-0.37 0.154-0.576c-0.012-0.804-1.011-1.661-1.779-1.525zM30.036 6.942c-0.315 0.055-0.502 0.183-0.976 0.669-0.381 0.39-12.836 13.839-13.401 14.47-0.674 0.752-0.667 1.376 0.021 2.064 0.685 0.685 1.357 0.716 2.023 0.094 0.146-0.137 3.321-3.546 7.055-7.576 4.978-5.372 6.83-7.404 6.943-7.62 0.346-0.657 0.103-1.328-0.674-1.862-0.317-0.218-0.652-0.299-0.991-0.239z"></path>
</svg>
