<!-- Generated by IcoMoon.io -->
<svg version="1.1" xmlns="http://www.w3.org/2000/svg" width="32" height="32" viewBox="0 0 32 32">
<path d="M22.812 0.401c-0.723 0.258-1.397 0.707-2.338 1.561-1.469 1.33-17.474 17.422-17.773 17.87-0.397 0.592-0.524 1.004-1.502 4.91-0.967 3.858-1.059 4.46-0.812 5.251 0.227 0.734 0.943 1.445 1.657 1.653 0.788 0.229 1.413 0.133 5.061-0.779 4.248-1.061 4.572-1.166 5.283-1.707 0.882-0.668 18.068-17.933 18.509-18.592 0.725-1.085 0.834-1.417 0.834-2.548 0-0.904-0.024-1.052-0.231-1.5-0.439-0.934-0.982-1.602-2.688-3.31-1.712-1.709-2.384-2.255-3.31-2.683-0.664-0.308-2.004-0.369-2.69-0.124zM22.932 9.088l3.253 3.253-7.619 7.611c-4.192 4.185-7.702 7.652-7.803 7.702-0.303 0.153-7.517 1.934-7.831 1.934-0.367 0-0.5-0.133-0.5-0.5 0-0.371 1.795-7.552 1.978-7.916 0.122-0.242 15.106-15.337 15.224-15.337 0.026 0 1.511 1.465 3.299 3.253z"></path>
</svg>
