<!-- Generated by IcoMoon.io -->
<svg version="1.1" xmlns="http://www.w3.org/2000/svg" width="32" height="32" viewBox="0 0 32 32">
<path d="M14.211 0.292c-4.095 0.498-7.708 2.457-10.344 5.604-1.84 2.195-3.084 5.071-3.49 8.064-0.069 0.605-0.109 1.306-0.109 2.016s0.039 1.411 0.116 2.101l-0.008-0.085c0.378 2.781 1.424 5.352 3.084 7.557 0.583 0.778 1.865 2.095 2.655 2.731 2.105 1.702 4.696 2.886 7.534 3.318l0.088 0.011c1.159 0.176 3.109 0.189 4.221 0.032 2.602-0.351 4.934-1.287 6.932-2.671l-0.052 0.034c3.433-2.407 5.861-6.047 6.647-10.264l0.015-0.1c0.147-0.861 0.232-1.854 0.232-2.866 0-0.673-0.037-1.337-0.11-1.99l0.007 0.080c-0.52-4.13-2.598-7.696-5.616-10.148l-0.029-0.022c-2.107-1.701-4.479-2.769-7.301-3.282-0.586-0.107-1.039-0.139-2.362-0.154-0.188-0.005-0.41-0.008-0.632-0.008-0.52 0-1.037 0.015-1.549 0.046l0.071-0.003zM18.274 11.566l2.205-2.205 2.205 2.205-4.41 4.41 4.41 4.41-2.205 2.205-4.41-4.41-4.41 4.41-2.205-2.205 4.41-4.41-4.41-4.41 2.205-2.205 4.41 4.41 2.205-2.205z"></path>
</svg>
