<!-- Generated by IcoMoon.io -->
<svg version="1.1" xmlns="http://www.w3.org/2000/svg" width="33" height="32" viewBox="0 0 33 32">
<path d="M2.91 0.309c-0.907 0.216-1.746 0.986-2.011 1.846-0.141 0.454-0.16 0.725-0.16 2.405 0 2.863-0.552 2.011 4.778 7.36 2.445 2.452 4.482 4.559 4.527 4.679 0.056 0.15 0.083 2.383 0.083 6.947 0 7.328-0.021 6.954 0.443 7.565 0.27 0.353 0.894 0.64 1.397 0.64 0.302 0.002 1.511-0.372 5.311-1.639 2.779-0.926 5.051-1.727 5.218-1.836 0.163-0.109 0.394-0.364 0.516-0.571l0.22-0.372 0.041-5.398c0.009-2.019 0.031-3.925 0.064-5.827l-0.005 0.394c0.009-0.021 2.018-2.045 4.463-4.499 3.87-3.883 4.472-4.519 4.636-4.893 0.184-0.421 0.19-0.481 0.19-2.582v-2.152l-0.222-0.479c-0.305-0.622-0.797-1.113-1.403-1.408l-0.018-0.008-0.469-0.218-13.651-0.013c-7.773-0.006-13.779 0.019-13.946 0.058zM30.485 2.397l0.257 0.255v3.749l-4.35 4.363c-2.392 2.399-4.425 4.476-4.521 4.613-0.122 0.199-0.232 0.429-0.317 0.671l-0.008 0.026c-0.146 0.426-0.154 0.685-0.154 5.578v5.131l-4.636 1.545c-2.55 0.849-4.66 1.545-4.692 1.545-0.030 0-0.066-3.055-0.077-6.787l-0.021-6.785-0.19-0.432c-0.163-0.374-0.768-1.012-4.628-4.889-3.772-3.787-4.45-4.5-4.491-4.733-0.028-0.15-0.039-1.018-0.026-1.93 0.024-1.643 0.026-1.658 0.22-1.866 0.1-0.108 0.217-0.2 0.346-0.271l0.007-0.004c0.086-0.036 6.201-0.060 13.591-0.051l13.434 0.015 0.255 0.255z"></path>
</svg>
