<!-- Generated by IcoMoon.io -->
<svg version="1.1" xmlns="http://www.w3.org/2000/svg" width="32" height="32" viewBox="0 0 32 32">
<path d="M5.304 0.61c-0.389 0.123-0.721 0.333-0.985 0.609l-0.001 0.001c-0.317 0.311-0.543 0.714-0.635 1.165l-0.002 0.015c-0.036 0.196-0.050 4.946-0.040 14.188l0.014 13.892 0.112 0.24c0.254 0.548 0.724 0.782 1.484 0.734 0.822-0.052 1.192-0.39 1.308-1.198 0.032-0.222 0.054-3.058 0.054-7.336l0.002-6.974h0.572c1.372 0.032 2.658 0.365 3.807 0.934l-0.053-0.024c0.972 0.484 1.55 0.896 2.474 1.76 0.322 0.302 0.766 0.694 0.986 0.87 1.738 1.381 3.892 2.313 6.246 2.587l0.058 0.005c0.29 0.030 1.646 0.056 3.076 0.056 2.36 0 2.582-0.008 2.882-0.102 0.838-0.26 1.49-0.988 1.656-1.848 0.044-0.23 0.056-1.912 0.044-6.078l-0.016-5.76-0.124-0.308c-0.214-0.452-0.55-0.817-0.967-1.060l-0.011-0.006c-0.382-0.192-0.842-0.25-2.018-0.252-0.626 0-1.17-0.030-1.492-0.082-1.969-0.293-3.693-1.179-5.024-2.468l0.002 0.002c-0.567-0.551-1.18-1.061-1.832-1.52l-0.048-0.032c-1.36-0.925-2.968-1.601-4.701-1.92l-0.077-0.012c-0.636-0.116-0.804-0.122-3.6-0.134-2.31-0.012-2.98 0.002-3.15 0.056zM11.44 3.59c0.966 0.16 1.858 0.444 2.64 0.836 0.952 0.48 1.572 0.926 2.586 1.868 0.74 0.686 1.4 1.198 2.080 1.612 1.68 1.045 3.703 1.698 5.871 1.783l0.023 0.001 0.746 0.034v9.488l-2.2-0.028c-2.284-0.028-2.582-0.054-3.532-0.298-1.602-0.41-2.824-1.118-4.294-2.486-0.35-0.327-0.725-0.649-1.112-0.957l-0.038-0.029c-1.889-1.436-4.255-2.336-6.827-2.435l-0.023-0.001-0.746-0.034v-9.49l2.172 0.028c1.574 0.020 2.306 0.050 2.654 0.108z"></path>
</svg>
