<!-- Generated by IcoMoon.io -->
<svg version="1.1" xmlns="http://www.w3.org/2000/svg" width="32" height="32" viewBox="0 0 32 32">
<path d="M15.464 0.309c-0.069 0.016-0.26 0.134-0.422 0.263-0.217 0.172-11.463 12.618-14.273 15.796-0.331 0.373-0.518 0.796-0.518 1.166 0 0.373 0.189 0.81 0.477 1.098 0.443 0.443 0.63 0.477 2.59 0.477h1.659v5.597c0 6.339-0.022 6.027 0.477 6.528 0.468 0.468 0.537 0.477 3.461 0.477s2.993-0.009 3.461-0.477c0.48-0.48 0.477-0.46 0.477-4.165v-3.234h6.301v3.234c0 3.705-0.003 3.684 0.477 4.165 0.468 0.468 0.537 0.477 3.461 0.477s2.993-0.009 3.461-0.477c0.499-0.501 0.477-0.189 0.477-6.528v-5.597h1.659c1.947 0 2.164-0.039 2.59-0.465 0.633-0.633 0.628-1.511-0.013-2.245-1.92-2.202-14.141-15.713-14.358-15.874-0.269-0.202-0.328-0.219-0.802-0.232-0.066-0.003-0.143-0.005-0.22-0.005-0.148 0-0.295 0.007-0.439 0.021l0.018-0.001zM22.677 9.785l6.605 7.339-4.206 0.033v12.6h-3.97v-7.876h-10.207v7.876h-3.97v-12.6l-4.206-0.033 6.621-7.358c3.642-4.045 6.646-7.348 6.674-7.339s3.024 3.321 6.658 7.358z"></path>
</svg>
