<!-- Generated by IcoMoon.io -->
<svg version="1.1" xmlns="http://www.w3.org/2000/svg" width="32" height="32" viewBox="0 0 32 32">
<path d="M15.789 0.261c-0.604 0.061-0.333-0.221-8.026 8.335-3.98 4.425-7.29 8.154-7.356 8.289-0.097 0.197-0.153 0.429-0.153 0.674 0 0.431 0.175 0.821 0.457 1.103v0c0.44 0.44 0.62 0.473 2.569 0.473h1.692v5.634c0 6.342-0.024 6.014 0.471 6.509 0.464 0.464 0.52 0.471 3.471 0.471s3.007-0.008 3.471-0.471c0.475-0.475 0.471-0.445 0.471-4.144v-3.269h6.307v3.269c0 3.699-0.003 3.669 0.471 4.144 0.464 0.464 0.52 0.471 3.471 0.471s3.007-0.008 3.471-0.471c0.495-0.495 0.471-0.167 0.471-6.509v-5.634h1.695c1.831 0 2.023-0.027 2.446-0.35 0.15-0.13 0.277-0.28 0.378-0.447l0.005-0.008c0.147-0.249 0.175-0.371 0.175-0.74 0-0.243-0.041-0.538-0.090-0.654-0.049-0.118-3.349-3.836-7.332-8.263-5.677-6.309-7.307-8.086-7.542-8.215-0.231-0.131-0.508-0.208-0.803-0.208-0.067 0-0.133 0.004-0.198 0.012l0.008-0.001z"></path>
</svg>
