<!-- Generated by IcoMoon.io -->
<svg version="1.1" xmlns="http://www.w3.org/2000/svg" width="34" height="32" viewBox="0 0 34 32">
<path fill="#143810" d="M21.533 14.25h5.967v-3.5h-2.94c0.735-1.155 1.19-2.31 1.19-3.5 0-4.603-4.375-7-8.75-7-4.113 0-7.822 3.605-8.242 4.008l2.485 2.485c0.84-0.84 3.5-2.993 5.757-2.993 1.82 0 5.25 0.735 5.25 3.5 0 0.875-0.875 2.17-2.17 3.5h-13.58v3.5h9.852c-0.735 0.63-3.29 2.923-3.885 3.5h-5.968v3.5h2.94c-0.735 1.155-1.19 2.31-1.19 3.5 0 4.603 4.375 7 8.75 7 4.113 0 7.822-3.605 8.242-4.008l-2.485-2.485c-0.823 0.84-3.5 2.992-5.758 2.992-1.82 0-5.25-0.735-5.25-3.5 0-0.875 0.875-2.17 2.17-3.5h13.58v-3.5h-9.835l3.868-3.5z"></path>
</svg>
