<!-- Generated by IcoMoon.io -->
<svg version="1.1" xmlns="http://www.w3.org/2000/svg" width="32" height="32" viewBox="0 0 32 32">
<path d="M14.848 0.28c-2.3 0.238-3.936 0.684-5.741 1.565-4.76 2.354-8.116 6.914-8.746 12.307l-0.007 0.074c-0.688 5.881 2.065 11.686 7.107 14.996 1.416 0.928 3.511 1.801 5.202 2.165 0.996 0.224 2.14 0.352 3.315 0.352 6.192 0 11.55-3.569 14.13-8.761l0.041-0.092c1.009-2.012 1.6-4.385 1.6-6.896s-0.591-4.883-1.641-6.986l0.041 0.091c-1.562-3.173-4.070-5.68-7.153-7.2l-0.091-0.041c-1.332-0.682-2.878-1.186-4.51-1.429l-0.083-0.010c-0.716-0.108-2.902-0.193-3.465-0.135zM16.598 7.354c0.646 0.221 1.155 0.942 1.155 1.635 0 0.922-0.828 1.75-1.75 1.75-0.424 0-0.912-0.208-1.227-0.523-0.317-0.313-0.514-0.747-0.514-1.227s0.197-0.916 0.515-1.228l0-0c0.311-0.317 0.743-0.514 1.222-0.514 0.215 0 0.42 0.040 0.61 0.112l-0.012-0.004zM17.753 19.49v5.251h-3.5v-10.501h3.5v5.251z"></path>
</svg>
