<!-- Generated by IcoMoon.io -->
<svg version="1.1" xmlns="http://www.w3.org/2000/svg" width="32" height="32" viewBox="0 0 32 32">
<path d="M8.027 2.284c-2.107 0.234-3.934 1.278-5.188 2.808l-0.011 0.014c-1.398 1.701-2.078 3.053-2.423 4.83-0.156 0.806-0.159 2.449-0.005 3.285 0.309 1.674 1.142 3.37 2.238 4.556 0.885 0.959 12.359 11.679 12.66 11.83 0.213 0.106 0.408 0.146 0.711 0.146 0.457 0 0.758-0.124 1.164-0.475 0.69-0.599 11.76-11.040 12.157-11.466 1.12-1.201 1.959-2.898 2.27-4.592 0.151-0.819 0.153-2.41 0.003-3.23-0.338-1.858-1.030-3.212-2.597-5.079-1.253-1.492-3.116-2.438-5.188-2.631-0.221-0.022-0.477-0.035-0.736-0.035-2.868 0-5.371 1.561-6.705 3.88l-0.020 0.038c-0.169 0.301-0.329 0.548-0.356 0.548s-0.189-0.249-0.361-0.555c-0.98-1.698-2.539-2.969-4.401-3.555l-0.055-0.015c-0.714-0.214-1.534-0.338-2.384-0.338-0.272 0-0.541 0.013-0.807 0.037l0.034-0.003zM10.533 4.059c1.743 0.503 2.975 1.522 3.922 3.238 0.395 0.718 0.835 1.002 1.546 1.002 0.709 0 1.151-0.285 1.548-1.002 0.583-1.053 1.050-1.611 1.857-2.22 0.606-0.453 1.315-0.81 2.082-1.032l0.047-0.011c0.483-0.135 0.688-0.155 1.627-0.151 1.203 0.002 1.505 0.060 2.465 0.475 1.082 0.467 1.88 1.152 2.854 2.452 1.146 1.528 1.66 3.022 1.657 4.815-0.003 2.011-0.744 3.816-2.171 5.29-0.955 0.988-11.865 11.178-11.965 11.178-0.102 0-10.999-10.182-12.001-11.214-1.321-1.346-2.137-3.192-2.137-5.229 0-0.009 0-0.018 0-0.027v0.001c-0.001-0.053-0.002-0.116-0.002-0.178 0-0.73 0.114-1.433 0.325-2.093l-0.013 0.049c0.469-1.626 1.969-3.696 3.318-4.576 0.53-0.347 1.438-0.732 1.984-0.841l0.488-0.101c0.072-0.016 0.555-0.020 1.074-0.008 0.763 0.018 1.050 0.052 1.497 0.182z"></path>
</svg>
