<!-- Generated by IcoMoon.io -->
<svg version="1.1" xmlns="http://www.w3.org/2000/svg" width="32" height="32" viewBox="0 0 32 32">
<path d="M7.787 2.255c-1.733 0.292-3.513 1.287-4.662 2.606-0.505 0.585-0.99 1.229-1.431 1.904l-0.042 0.069c-1.664 2.733-1.82 6.26-0.403 9.164 0.34 0.695 0.989 1.659 1.475 2.191 0.592 0.647 11.692 11.057 12.024 11.278 0.353 0.234 0.786 0.373 1.252 0.373s0.899-0.139 1.261-0.379l-0.009 0.005c0.332-0.219 11.431-10.629 12.025-11.279 0.487-0.53 1.136-1.494 1.475-2.189 0.609-1.229 0.965-2.676 0.965-4.206 0-1.518-0.35-2.953-0.975-4.231l0.025 0.057c-0.575-1.199-1.801-2.802-2.748-3.595-1.065-0.884-2.374-1.51-3.812-1.765l-0.050-0.007c-0.417-0.058-0.898-0.092-1.387-0.092-0.493 0-0.978 0.034-1.453 0.1l0.055-0.006c-1.914 0.321-3.766 1.39-4.917 2.838-0.229 0.289-0.434 0.525-0.454 0.525s-0.226-0.236-0.454-0.525c-1.151-1.448-3.003-2.517-4.917-2.838-0.717-0.12-2.118-0.119-2.841 0.002z"></path>
</svg>
