<!-- Generated by IcoMoon.io -->
<svg version="1.1" xmlns="http://www.w3.org/2000/svg" width="32" height="32" viewBox="0 0 32 32">
<path d="M2.141 2.215c-0.661 0.21-1.339 0.816-1.676 1.496l-0.182 0.372v7.134l0.217 0.429c0.258 0.507 0.827 1.068 1.343 1.321l0.372 0.182h27.569l0.429-0.217c0.507-0.258 1.068-0.827 1.321-1.343l0.182-0.372v-7.134l-0.182-0.372c-0.308-0.569-0.758-1.027-1.304-1.335l-0.017-0.009-0.429-0.217-13.673-0.015c-10.84-0.011-13.734 0.006-13.97 0.080zM29.471 4.065c0.474 0.308 0.463 0.227 0.463 3.584s0.011 3.275-0.463 3.584c-0.189 0.124-0.918 0.132-13.471 0.132s-13.281-0.007-13.471-0.132c-0.466-0.305-0.461-0.262-0.485-3.32-0.013-1.535-0.004-2.932 0.022-3.106 0.056-0.381 0.336-0.736 0.656-0.829 0.141-0.041 5.538-0.065 13.393-0.058 12.432 0.013 13.166 0.020 13.355 0.145zM2.141 18.935c-0.661 0.21-1.339 0.816-1.676 1.495l-0.182 0.372v7.134l0.217 0.429c0.258 0.507 0.827 1.068 1.343 1.321l0.372 0.182h27.569l0.429-0.217c0.507-0.258 1.068-0.827 1.321-1.343l0.182-0.372v-7.134l-0.182-0.372c-0.308-0.569-0.758-1.027-1.304-1.335l-0.017-0.009-0.429-0.217-13.673-0.015c-10.84-0.011-13.734 0.006-13.97 0.080zM29.471 20.785c0.474 0.308 0.463 0.227 0.463 3.584s0.011 3.275-0.463 3.584c-0.189 0.124-0.918 0.132-13.471 0.132s-13.281-0.007-13.471-0.132c-0.466-0.305-0.461-0.262-0.485-3.32-0.013-1.535-0.004-2.932 0.022-3.106 0.056-0.381 0.336-0.736 0.656-0.829 0.141-0.041 5.538-0.065 13.393-0.058 12.432 0.013 13.166 0.020 13.355 0.145z"></path>
</svg>
