<!-- Generated by IcoMoon.io -->
<svg version="1.1" xmlns="http://www.w3.org/2000/svg" width="32" height="32" viewBox="0 0 32 32">
<path d="M14.688 0.068c-2.691 0.312-5.081 1.412-6.983 3.059l0.016-0.014c-4.95 4.329-5.751 11.767-1.827 16.972 0.373 0.495 9.446 11.265 10.034 11.912 0.061 0.066 1.152-1.182 4.996-5.717 2.706-3.19 5.112-6.072 5.349-6.403 1.14-1.585 1.932-3.495 2.223-5.565l0.008-0.067c0.159-1.128 0.098-2.983-0.135-4.089-0.505-2.408-1.611-4.533-3.236-6.227-1.006-1.067-2.197-1.948-3.522-2.595l-0.072-0.032c-1.617-0.822-3.527-1.303-5.549-1.303-0.459 0-0.911 0.025-1.357 0.073l0.055-0.005zM17.004 8.131c0.255 0.054 0.723 0.223 1.040 0.377 0.757 0.367 1.62 1.201 1.996 1.934 1.49 2.883-0.348 6.354-3.547 6.702-1.417 0.154-2.667-0.299-3.714-1.346-0.471-0.473-0.637-0.696-0.863-1.162-0.303-0.595-0.48-1.298-0.48-2.042 0-1.586 0.806-2.983 2.031-3.805l0.017-0.010c0.975-0.654 2.321-0.902 3.52-0.647z"></path>
</svg>
