<!-- Generated by IcoMoon.io -->
<svg version="1.1" xmlns="http://www.w3.org/2000/svg" width="32" height="32" viewBox="0 0 32 32">
<path d="M20.311 0.075c-1.125 0.127-2.082 0.269-6.872 1.021-4.644 0.729-5.408 0.863-6.047 1.060-1.233 0.381-1.816 0.999-2.105 2.234-0.097 0.413-0.105 1.327-0.105 11.618 0 10.326 0.008 11.203 0.107 11.622 0.294 1.261 0.903 1.88 2.232 2.265 0.704 0.203 1.468 0.336 6.448 1.115 6.228 0.976 6.319 0.987 7.92 0.99 1.242 0.003 1.405-0.009 1.856-0.139 1.552-0.447 2.402-1.485 2.781-3.385 0.207-1.046 0.232-1.654 0.263-6.265l0.029-4.656h-9.17l2.074 2.591c1.14 1.425 2.073 2.605 2.073 2.624 0 0.042-2.323 1.901-2.375 1.901-0.020 0-1.598-1.949-3.504-4.331l-3.467-4.331 3.467-4.332c1.906-2.382 3.484-4.332 3.504-4.332 0.051 0 2.375 1.859 2.375 1.901 0 0.019-0.933 1.199-2.073 2.624l-2.074 2.591h9.159v-3.963c0-4.151-0.054-5.637-0.249-6.779-0.339-1.992-1.247-3.139-2.819-3.56-0.639-0.17-2.302-0.212-3.43-0.084z"></path>
</svg>
