<!-- Generated by IcoMoon.io -->
<svg version="1.1" xmlns="http://www.w3.org/2000/svg" width="32" height="32" viewBox="0 0 32 32">
<path d="M4.385 3.308c-1.585 0.268-3.075 1.457-3.689 2.946-0.237 0.577-0.373 1.204-0.286 1.333 0.111 0.168 15.41 9.14 15.585 9.14s15.473-8.972 15.585-9.14c0.085-0.126-0.049-0.76-0.279-1.325-0.518-1.274-1.626-2.289-3.036-2.781l-0.603-0.211-11.47-0.010c-6.309-0.005-11.621 0.016-11.805 0.047zM0.308 17.089c0 6.167 0.015 7.268 0.098 7.678 0.396 1.951 1.906 3.463 3.824 3.857l0.032 0.005c0.701 0.147 22.746 0.147 23.462-0.002 0.991-0.197 1.847-0.675 2.507-1.347l0.001-0.001c0.709-0.711 1.144-1.518 1.348-2.508 0.144-0.699 0.152-14.902 0.008-14.846-0.051 0.020-3.5 2.044-7.663 4.498-7.55 4.451-7.573 4.464-7.931 4.464s-0.387-0.016-7.93-4.464c3.437 1.802 0.934 0.312-1.574-1.17l-6.089-3.328c-0.080-0.029-0.093 0.989-0.093 7.163z"></path>
</svg>
