<!-- Generated by IcoMoon.io -->
<svg version="1.1" xmlns="http://www.w3.org/2000/svg" width="33" height="32" viewBox="0 0 33 32">
<path d="M16.253 0.098c-0.148 0.069-1.229 1.103-3.267 3.124-2.789 2.768-3.044 3.036-3.041 3.2 0.003 0.14 0.031 0.185 0.128 0.208 0.068 0.016 0.804 0.035 1.635 0.043 1.427 0.013 1.519 0.021 1.663 0.129 0.085 0.063 0.205 0.183 0.268 0.268 0.111 0.148 0.116 0.237 0.143 2.648l0.028 2.495 0.181 0.181 0.181 0.183 2.499 0.015c2.765 0.017 2.727 0.021 2.947-0.337 0.103-0.169 0.108-0.295 0.108-2.536 0-3.259-0.164-3.017 2.077-3.059 1.628-0.031 1.649-0.035 1.571-0.348-0.049-0.196-6.022-6.091-6.302-6.22-0.118-0.058-0.256-0.091-0.403-0.091-0.152 0-0.295 0.036-0.422 0.1l0.005-0.002zM4.792 11.317c-3.567 3.496-4.275 4.23-4.32 4.468-0.008 0.040-0.012 0.086-0.012 0.133 0 0.082 0.014 0.162 0.039 0.236l-0.002-0.005c0.079 0.191 6.211 6.32 6.37 6.367 0.017 0.004 0.037 0.006 0.057 0.006 0.061 0 0.118-0.019 0.165-0.052l-0.001 0.001c0.107-0.077 0.109-0.209 0.123-6.459 0.011-5.062-0.001-6.408-0.057-6.519-0.163-0.321-0.2-0.292-2.361 1.824zM26.392 9.492c-0.073 0.047-0.083 0.821-0.083 6.42 0 6.179 0.003 6.371 0.105 6.446 0.067 0.049 0.136 0.059 0.193 0.028 0.049-0.027 1.475-1.42 3.165-3.096 3.053-3.023 3.076-3.048 3.101-3.296 0.006-0.030 0.009-0.066 0.009-0.101 0-0.129-0.042-0.249-0.114-0.345l0.001 0.002c-0.071-0.107-1.065-1.105-2.212-2.219-1.204-1.169-2.191-2.133-3.176-3.1l0.145 0.142c-0.521-0.515-0.972-0.933-1-0.933-0.051 0.008-0.097 0.027-0.137 0.054l0.001-0.001zM14.188 19.185c-0.385 0.168-0.376 0.097-0.407 3-0.031 2.9-0.025 2.856-0.405 3.088-0.164 0.1-0.288 0.108-1.624 0.109-1.219 0-1.465 0.013-1.569 0.087-0.068 0.047-0.124 0.116-0.124 0.153 0 0.036 1.407 1.471 3.125 3.187 3.384 3.38 3.269 3.283 3.719 3.135 0.263-0.087 6.41-6.235 6.36-6.363-0.064-0.168-0.319-0.199-1.627-0.199-1.421 0-1.519-0.019-1.721-0.317-0.099-0.145-0.107-0.32-0.133-2.767-0.032-2.957-0.021-2.885-0.463-3.087-0.216-0.099-0.391-0.105-2.593-0.104-1.884 0-2.396 0.016-2.537 0.077z"></path>
</svg>
