<!-- Generated by IcoMoon.io -->
<svg version="1.1" xmlns="http://www.w3.org/2000/svg" width="32" height="32" viewBox="0 0 32 32">
<path d="M7.019 0.321c-1.021 0.078-1.681 0.234-2.225 0.523-0.75 0.399-1.256 1.089-1.503 2.039-0.256 0.989-0.275 2.028-0.249 13.76 0.026 11.441 0.026 11.548 0.182 12.226 0.375 1.631 1.19 2.407 2.88 2.747 0.622 0.124 1.301 0.134 9.91 0.134s9.288-0.009 9.91-0.134c1.748-0.351 2.578-1.184 2.906-2.923 0.13-0.692 0.137-1.349 0.137-12.68s-0.007-11.988-0.137-12.68c-0.304-1.613-1.097-2.503-2.518-2.832-0.41-0.080-0.912-0.146-1.422-0.183l-0.044-0.003c-1.19-0.091-16.639-0.085-17.826 0.006zM22.212 7.785c0.685 0.234 1.225 0.998 1.225 1.733 0 0.449-0.221 0.967-0.555 1.301-0.577 0.579-0.291 0.555-6.868 0.555s-6.291 0.024-6.868-0.555c-0.336-0.331-0.545-0.792-0.545-1.301s0.209-0.971 0.546-1.302l0-0c0.566-0.566 0.254-0.54 6.835-0.547 5.278-0.006 5.905 0.007 6.23 0.117zM22.212 15.208c0.685 0.234 1.225 0.998 1.225 1.733 0 0.449-0.221 0.967-0.555 1.301-0.577 0.579-0.291 0.555-6.868 0.555s-6.291 0.024-6.868-0.555c-0.336-0.331-0.545-0.792-0.545-1.301s0.209-0.971 0.546-1.302l0-0c0.566-0.566 0.254-0.54 6.835-0.547 5.278-0.006 5.905 0.007 6.23 0.117zM18.5 22.631c0.685 0.234 1.225 0.998 1.225 1.733 0 0.449-0.221 0.967-0.555 1.301-0.56 0.56-0.509 0.555-5.012 0.555s-4.452 0.006-5.012-0.555c-0.336-0.331-0.545-0.792-0.545-1.301s0.209-0.971 0.546-1.302l0-0c0.549-0.549 0.464-0.54 4.979-0.547 3.552-0.006 4.055 0.009 4.374 0.117z"></path>
</svg>
