<!-- Generated by IcoMoon.io -->
<svg version="1.1" xmlns="http://www.w3.org/2000/svg" width="32" height="32" viewBox="0 0 32 32">
<path d="M14.14 0.14c-4.489 0.798-7.98 4.279-8.785 8.697l-0.010 0.066c-0.059 0.333-0.219 1.616-0.358 2.85-0.34 3.028-0.401 3.372-0.832 4.703-0.333 1.024-0.787 1.933-1.912 3.812-1.263 2.113-1.589 2.744-1.708 3.305-0.255 1.204 0.428 2.442 1.584 2.868 0.436 0.16 0.513 0.164 4.144 0.201l3.698 0.039 0.135 0.499c0.274 0.999 0.971 2.223 1.721 3.016 0.376 0.397 1.224 1.001 1.773 1.261 0.704 0.342 1.532 0.541 2.407 0.541s1.702-0.2 2.44-0.556l-0.034 0.015c0.549-0.26 1.397-0.864 1.773-1.261 0.75-0.793 1.447-2.017 1.721-3.016l0.135-0.499 3.698-0.039c3.631-0.037 3.707-0.041 4.144-0.201 1.149-0.422 1.856-1.701 1.587-2.868-0.125-0.545-0.542-1.349-1.712-3.305-1.981-3.315-2.243-4.11-2.71-8.23-0.451-3.987-0.6-4.623-1.47-6.271-1.558-2.951-4.372-5.060-7.711-5.624l-0.063-0.009c-0.544-0.086-1.171-0.135-1.81-0.135-0.651 0-1.291 0.051-1.915 0.149l0.069-0.009zM16.689 1.777c0.44 0.039 1.069 0.134 1.398 0.212 3.059 0.713 5.644 3.132 6.561 6.141 0.255 0.834 0.287 1.047 0.613 3.944 0.371 3.294 0.611 4.397 1.331 6.091 0.376 0.882 0.451 1.019 1.755 3.208 1.227 2.059 1.434 2.483 1.379 2.827-0.053 0.33-0.216 0.502-0.575 0.611-0.426 0.13-25.883 0.13-26.309 0-0.36-0.109-0.522-0.281-0.575-0.611-0.055-0.344 0.15-0.766 1.377-2.827 1.281-2.152 1.304-2.191 1.662-2.993 0.766-1.707 1.051-2.97 1.425-6.306 0.326-2.9 0.372-3.198 0.615-3.962 1.113-3.451 4.137-5.97 7.794-6.327l0.037-0.003c0.353-0.030 0.657-0.061 0.677-0.066s0.396 0.023 0.836 0.061zM20.163 26.807c-0.085 0.301-0.526 1.192-0.741 1.505-0.399 0.533-0.873 0.985-1.41 1.348l-0.020 0.013c-0.537 0.348-1.193 0.555-1.898 0.555-0.034 0-0.068-0-0.102-0.001l0.005 0c-0.777 0-1.343-0.159-2.002-0.558-0.836-0.506-1.676-1.552-2.049-2.546-0.045-0.108-0.097-0.256-0.143-0.407l-0.010-0.038c0-0.018 1.894-0.032 4.21-0.032h4.208l-0.046 0.16z"></path>
</svg>
