<!-- Generated by IcoMoon.io -->
<svg version="1.1" xmlns="http://www.w3.org/2000/svg" width="32" height="32" viewBox="0 0 32 32">
<path d="M14.716 0.047c-4.067 0.508-7.422 3.123-8.972 6.701l-0.028 0.073c-0.517 1.235-0.696 2.125-1.024 5.052-0.537 4.793-0.764 5.5-2.913 9.101-1.239 2.074-1.488 2.54-1.656 3.106-0.070 0.209-0.111 0.451-0.111 0.701 0 0.273 0.048 0.534 0.136 0.776l-0.005-0.016c0.266 0.85 0.834 1.422 1.708 1.717 0.447 0.152 0.603 0.158 4.573 0.181l4.11 0.026 0.278 0.621c0.492 1.089 1.215 1.997 2.113 2.691l0.016 0.012c1.096 0.825 2.232 1.211 3.555 1.211 2.422 0 4.595-1.497 5.686-3.917l0.282-0.627h3.239c3.5 0 4.139-0.046 4.813-0.346 0.953-0.425 1.631-1.673 1.442-2.659-0.143-0.753-0.284-1.039-1.611-3.261-0.201-0.3-0.634-1.030-1.056-1.767l-0.248-0.469c-0.696-1.277-1.233-2.998-1.455-4.661l-0.123-0.922-0.191 0.042c-0.936 0.214-1.173 0.258-1.38 0.262-0.132 0-0.238 0.033-0.238 0.073 0 0.038 0.051 0.442 0.115 0.896 0.222 1.589 0.828 3.562 1.515 4.931 0.121 0.24 0.733 1.295 1.358 2.345 1.261 2.111 1.48 2.536 1.48 2.86 0.002 0.357-0.242 0.68-0.563 0.748-0.154 0.033-1.862 0.053-3.796 0.046l-3.939-0.015-15.19 0.015c-3.104 0.009-4.154-0.009-4.306-0.077-0.224-0.101-0.495-0.491-0.495-0.716 0-0.251 0.376-0.956 1.578-2.968 1.237-2.065 1.706-3.020 2.162-4.388 0.414-1.242 0.614-2.365 0.947-5.323 0.319-2.844 0.445-3.507 0.852-4.491 1.301-3.113 4.152-5.343 7.562-5.736l0.043-0.004c1.153-0.134 2.824 0.020 3.729 0.344l0.313 0.112 0.22-0.279c0.121-0.152 0.412-0.482 0.647-0.729 0.255-0.273 0.394-0.473 0.346-0.502-0.216-0.134-1.438-0.495-2.125-0.628-0.887-0.174-2.527-0.242-3.395-0.141zM23.908 1.881c-0.883 0.158-2.074 0.836-2.604 1.484-0.399 0.483-0.72 1.047-0.934 1.662l-0.012 0.038c-0.242 0.771-0.224 1.999 0.038 2.736 0.264 0.742 0.599 1.283 1.121 1.805 0.522 0.52 1.061 0.857 1.805 1.121 0.465 0.167 0.654 0.192 1.416 0.192s0.951-0.026 1.416-0.192c0.744-0.264 1.283-0.601 1.805-1.121 0.522-0.524 0.859-1.065 1.119-1.805 0.163-0.46 0.191-0.661 0.192-1.416 0.002-0.766-0.022-0.949-0.191-1.416-0.661-1.856-2.215-3.040-4.102-3.126-0.093-0.005-0.202-0.008-0.312-0.008-0.268 0-0.532 0.017-0.791 0.049l0.031-0.003zM20.268 27.813c-0.366 0.672-1.079 1.413-1.757 1.827-0.575 0.35-1.271 0.558-2.015 0.558s-1.44-0.207-2.033-0.567l0.017 0.010c-0.728-0.464-1.32-1.079-1.744-1.804l-0.013-0.025-0.194-0.355h7.934l-0.194 0.357z"></path>
</svg>
