<!-- Generated by IcoMoon.io -->
<svg version="1.1" xmlns="http://www.w3.org/2000/svg" width="32" height="32" viewBox="0 0 32 32">
<path d="M14.149 0.617c-1.839 0.222-3.511 0.739-5.037 1.504l0.088-0.040c-2.258 1.124-4.138 2.696-5.589 4.612l-0.028 0.039c-1.923 2.553-3.081 5.778-3.081 9.273 0 2.567 0.624 4.989 1.729 7.121l-0.041-0.086c0.761 1.49 1.587 2.609 2.873 3.897 1.676 1.678 3.362 2.771 5.523 3.582 1.785 0.671 3.429 0.963 5.413 0.963s3.628-0.292 5.413-0.963c2.16-0.81 3.845-1.903 5.524-3.582s2.772-3.364 3.582-5.524c0.671-1.785 0.963-3.429 0.963-5.413s-0.292-3.628-0.963-5.413c-0.811-2.162-1.905-3.848-3.582-5.522-1.349-1.347-2.55-2.213-4.137-2.984-1.458-0.738-3.155-1.257-4.947-1.461l-0.069-0.006c-0.854-0.1-2.798-0.098-3.635 0.003zM18.053 3.673c2.624 0.452 4.903 1.63 6.774 3.5 1.877 1.878 3.043 4.138 3.506 6.8 0.098 0.567 0.116 0.871 0.116 2.027s-0.018 1.46-0.116 2.027c-0.704 4.045-3.207 7.416-6.813 9.176-1.2 0.585-2.232 0.918-3.573 1.154-0.764 0.134-3.13 0.134-3.894 0-1.338-0.224-2.539-0.626-3.645-1.187l0.072 0.033c-2.388-1.188-4.293-3.046-5.507-5.327l-0.033-0.067c-0.955-1.811-1.42-3.713-1.42-5.809 0-3.381 1.266-6.439 3.653-8.827 2.069-2.068 4.657-3.296 7.627-3.618 0.117-0.013 0.753-0.017 1.413-0.008 0.914 0.012 1.353 0.042 1.84 0.126zM11.554 9.495c-0.318 0.107-0.571 0.333-0.71 0.625l-0.003 0.007-0.148 0.3v11.146l0.117 0.253c0.123 0.266 0.322 0.483 0.556 0.604 0.377 0.195 1.265 0.194 1.644-0.002 0.242-0.125 0.476-0.406 0.575-0.69 0.089-0.253 0.095-0.638 0.095-5.738 0-5.113-0.006-5.484-0.095-5.74-0.122-0.341-0.383-0.607-0.712-0.734l-0.008-0.003c-0.265-0.090-1.048-0.107-1.311-0.028zM19.113 9.526c-0.299 0.106-0.583 0.405-0.698 0.734-0.089 0.256-0.095 0.627-0.095 5.74 0 5.1 0.006 5.485 0.095 5.738 0.099 0.284 0.333 0.565 0.575 0.69 0.379 0.196 1.266 0.197 1.643 0.002 0.235-0.121 0.434-0.338 0.557-0.604l0.117-0.253v-11.146l-0.148-0.3c-0.144-0.306-0.408-0.536-0.729-0.633l-0.008-0.002c-0.266-0.076-1.054-0.056-1.309 0.034z"></path>
</svg>
