<!-- Generated by IcoMoon.io -->
<svg version="1.1" xmlns="http://www.w3.org/2000/svg" width="32" height="32" viewBox="0 0 32 32">
<path d="M5.691 0.295c-0.539 0.1-0.787 0.28-1.792 1.303-1.249 1.275-1.826 2.049-2.431 3.267-0.541 1.084-0.791 1.797-1.039 2.946-0.24 1.118-0.238 3.231 0.004 4.357 0.308 1.428 0.861 2.804 1.576 3.922 0.346 0.541 2.796 3.786 3.468 4.592 1.696 2.018 3.492 3.829 5.425 5.483l0.063 0.053c0.796 0.658 1.773 1.428 2.766 2.18l0.237 0.172c2.594 1.949 3.72 2.524 5.85 2.984 1.126 0.242 3.239 0.244 4.352 0.004 1.017-0.212 1.915-0.521 2.758-0.926l-0.072 0.031c1.37-0.645 2.223-1.283 3.644-2.726 0.95-0.963 1.044-1.084 1.162-1.489 0.055-0.161 0.087-0.346 0.087-0.539 0-0.063-0.003-0.126-0.010-0.188l0.001 0.008c-0.131-0.711-0.274-0.884-2.976-3.585-2.88-2.88-2.972-2.952-3.799-2.952-0.787 0-0.963 0.129-3.095 2.24-1.065 1.056-2.057 1.981-2.202 2.055-0.443 0.227-1.080 0.189-1.689-0.098-1.349-0.636-3.296-1.979-4.704-3.243-1.775-1.597-3.617-4.005-4.63-6.056-0.337-0.679-0.371-1.319-0.097-1.856 0.104-0.204 0.904-1.075 2.117-2.297 1.873-1.892 1.954-1.985 2.077-2.409 0.142-0.492 0.113-0.795-0.123-1.338-0.217-0.496-5.254-5.53-5.742-5.739-0.244-0.119-0.531-0.19-0.834-0.19-0.125 0-0.247 0.012-0.365 0.034l0.012-0.002z"></path>
</svg>
