<!-- Generated by IcoMoon.io -->
<svg version="1.1" xmlns="http://www.w3.org/2000/svg" width="32" height="32" viewBox="0 0 32 32">
<path d="M1.053 0.381c-0.355 0.164-0.649 0.476-0.737 0.782-0.042 0.147-0.068 2.336-0.066 5.7 0.002 5.182 0.009 5.474 0.133 5.749 0.166 0.367 0.515 0.632 0.954 0.726 0.233 0.049 2.116 0.068 5.702 0.054 5.775-0.021 5.478 0 5.905-0.396 0.455-0.422 0.429-0.066 0.45-5.959 0.014-3.586-0.005-5.469-0.054-5.702-0.079-0.423-0.351-0.77-0.719-0.95l-0.008-0.003c-0.275-0.124-0.567-0.131-5.784-0.131-5.201 0-5.511 0.007-5.775 0.13zM19.386 0.383c-0.375 0.184-0.647 0.531-0.725 0.946l-0.001 0.008c-0.049 0.233-0.068 2.116-0.054 5.702 0.021 5.893-0.005 5.537 0.45 5.959 0.427 0.396 0.13 0.375 5.905 0.396 3.586 0.014 5.469-0.005 5.702-0.054 0.423-0.079 0.77-0.351 0.95-0.719l0.003-0.008c0.124-0.275 0.131-0.567 0.133-5.768 0.002-4.79-0.012-5.513-0.107-5.74-0.128-0.327-0.376-0.584-0.688-0.72l-0.008-0.003c-0.264-0.123-0.581-0.13-5.775-0.13-5.217 0-5.509 0.007-5.784 0.131zM0.983 18.776c-0.324 0.172-0.464 0.313-0.604 0.618-0.121 0.264-0.128 0.592-0.13 5.74-0.002 3.383 0.025 5.553 0.066 5.702 0.091 0.317 0.53 0.758 0.84 0.843 0.152 0.042 2.345 0.068 5.707 0.068 5.182-0.002 5.474-0.009 5.749-0.133 0.376-0.184 0.647-0.531 0.725-0.946l0.001-0.008c0.049-0.233 0.068-2.116 0.054-5.702-0.018-4.837-0.030-5.376-0.135-5.565-0.154-0.278-0.467-0.569-0.712-0.66-0.133-0.051-1.997-0.073-5.775-0.072-4.953 0.002-5.6 0.014-5.788 0.114zM19.429 18.738c-0.226 0.089-0.541 0.39-0.69 0.656-0.105 0.189-0.117 0.728-0.135 5.565-0.014 3.586 0.005 5.469 0.054 5.702 0.080 0.428 0.358 0.778 0.734 0.956l0.008 0.003c0.289 0.128 0.523 0.131 5.898 0.114l5.599-0.019 0.268-0.213c0.149-0.119 0.341-0.354 0.427-0.523l0.157-0.308v-5.483c0-4.776-0.014-5.516-0.108-5.74-0.104-0.295-0.322-0.529-0.598-0.652l-0.007-0.003c-0.249-0.128-0.499-0.133-5.845-0.128-3.526 0.002-5.651 0.030-5.761 0.073z"></path>
</svg>
