<!-- Generated by IcoMoon.io -->
<svg version="1.1" xmlns="http://www.w3.org/2000/svg" width="32" height="32" viewBox="0 0 32 32">
<path d="M1.024 0.406c-0.17 0.088-0.406 0.28-0.525 0.429l-0.214 0.268-0.021 5.542c-0.014 3.729 0.003 5.623 0.052 5.794 0.096 0.338 0.327 0.611 0.63 0.76l0.007 0.003c0.262 0.135 0.436 0.138 5.834 0.138 3.761 0 5.626-0.024 5.759-0.075 0.307-0.138 0.549-0.374 0.693-0.667l0.004-0.008c0.079-0.184 0.096-1.222 0.096-5.794 0-5.451-0.003-5.577-0.142-5.848-0.111-0.188-0.256-0.345-0.428-0.466l-0.005-0.003-0.29-0.192-11.14-0.037-0.312 0.158zM19.432 0.36c-0.287 0.11-0.514 0.325-0.636 0.597l-0.003 0.007c-0.128 0.249-0.133 0.502-0.133 5.831 0 4.573 0.017 5.61 0.096 5.794 0.147 0.301 0.39 0.537 0.688 0.672l0.009 0.004c0.133 0.051 1.998 0.075 5.759 0.075 5.444 0 5.57-0.003 5.841-0.142 0.188-0.111 0.345-0.256 0.466-0.428l0.003-0.005 0.192-0.29 0.021-5.5c0.014-3.789-0.002-5.581-0.054-5.759-0.121-0.372-0.385-0.669-0.725-0.831l-0.008-0.004c-0.268-0.121-0.595-0.128-5.778-0.128-4.737 0.002-5.528 0.016-5.738 0.107zM11.643 6.813l-0.018 4.812-9.625 0.037v-9.662h9.662l-0.019 4.812zM30 6.83v4.832l-9.625-0.037-0.017-4.812-0.019-4.812h9.662v4.83zM0.985 18.775c-0.292 0.136-0.517 0.377-0.627 0.674l-0.003 0.008c-0.096 0.252-0.107 0.954-0.089 5.852l0.019 5.565 0.163 0.227c0.089 0.126 0.275 0.315 0.415 0.42l0.252 0.192 5.535 0.021c3.726 0.014 5.617-0.003 5.789-0.052 0.338-0.096 0.611-0.327 0.76-0.63l0.003-0.007c0.135-0.262 0.138-0.436 0.138-5.841 0-4.573-0.018-5.61-0.096-5.794-0.147-0.301-0.39-0.537-0.688-0.672l-0.009-0.004c-0.133-0.051-1.997-0.073-5.775-0.072-4.947 0.002-5.602 0.014-5.787 0.112zM19.395 18.76c-0.293 0.151-0.522 0.391-0.656 0.684l-0.004 0.009c-0.051 0.133-0.075 1.998-0.075 5.759 0 5.322 0.005 5.575 0.133 5.824 0.126 0.284 0.359 0.501 0.647 0.603l0.008 0.002c0.226 0.095 0.962 0.108 5.738 0.107 5.164-0.002 5.495-0.009 5.763-0.129 0.348-0.166 0.612-0.463 0.73-0.825l0.003-0.010c0.051-0.178 0.068-1.981 0.054-5.759l-0.021-5.5-0.192-0.291c-0.124-0.176-0.281-0.321-0.462-0.428l-0.007-0.004c-0.271-0.138-0.395-0.142-5.862-0.138-4.511 0.002-5.626 0.019-5.796 0.096zM11.643 25.187l0.019 4.812h-9.662v-9.662l9.625 0.037 0.018 4.812zM30 25.17v4.83h-9.66v-4.783c0-2.632 0.021-4.806 0.047-4.83 0.024-0.026 2.198-0.047 4.83-0.047h4.783v4.83z"></path>
</svg>
