<!-- Generated by IcoMoon.io -->
<svg version="1.1" xmlns="http://www.w3.org/2000/svg" width="32" height="32" viewBox="0 0 32 32">
<path d="M16 25.844c2.611 0 5.114-1.037 6.961-2.883s2.883-4.35 2.883-6.961-1.037-5.115-2.883-6.961c-1.846-1.846-4.35-2.883-6.961-2.883s-5.115 1.037-6.961 2.883c-1.846 1.846-2.883 4.35-2.883 6.961s1.037 5.114 2.883 6.961c1.846 1.846 4.35 2.883 6.961 2.883zM16 0.25c-4.177 0-8.183 1.659-11.137 4.613s-4.613 6.96-4.613 11.137c0 4.177 1.659 8.183 4.613 11.137s6.96 4.613 11.137 4.613 8.183-1.659 11.137-4.613c2.954-2.954 4.613-6.96 4.613-11.137s-1.659-8.183-4.613-11.137c-2.954-2.954-6.96-4.613-11.137-4.613zM2.219 16c0-1.81 0.356-3.602 1.049-5.274s1.708-3.191 2.987-4.471c1.28-1.28 2.799-2.295 4.471-2.987s3.464-1.049 5.274-1.049c1.81 0 3.602 0.356 5.274 1.049s3.191 1.708 4.471 2.987 2.295 2.799 2.987 4.471c0.693 1.672 1.049 3.464 1.049 5.274 0 3.655-1.452 7.16-4.036 9.745s-6.090 4.036-9.745 4.036c-3.655 0-7.16-1.452-9.745-4.036s-4.036-6.090-4.036-9.745z"></path>
</svg>
