<!-- Generated by IcoMoon.io -->
<svg version="1.1" xmlns="http://www.w3.org/2000/svg" width="34" height="32" viewBox="0 0 34 32">
<path d="M26.14 32h-18.28c-0.385-0.009-0.764-0.094-1.116-0.25s-0.67-0.379-0.936-0.658-0.474-0.607-0.612-0.966c-0.139-0.359-0.205-0.742-0.196-1.127v-19.77h2v19.77c-0.010 0.122 0.005 0.245 0.043 0.362s0.099 0.224 0.179 0.317 0.177 0.169 0.287 0.224c0.109 0.055 0.229 0.088 0.351 0.097h18.28c0.122-0.009 0.242-0.042 0.351-0.097s0.207-0.131 0.287-0.224 0.141-0.201 0.179-0.317c0.038-0.117 0.053-0.239 0.043-0.362v-19.77h2v19.77c0.009 0.385-0.057 0.768-0.196 1.127s-0.347 0.687-0.612 0.966-0.583 0.502-0.935 0.658c-0.352 0.156-0.731 0.24-1.116 0.25z"></path>
<path d="M29.781 7h-25.78c-0.265 0-0.52-0.105-0.707-0.293s-0.293-0.442-0.293-0.707c0-0.265 0.105-0.52 0.293-0.707s0.442-0.293 0.707-0.293h25.78c0.265 0 0.52 0.105 0.707 0.293s0.293 0.442 0.293 0.707-0.105 0.52-0.293 0.707c-0.188 0.188-0.442 0.293-0.707 0.293z"></path>
<path d="M20.001 11h2v15h-2v-15z"></path>
<path d="M12.001 11h2v15h-2v-15z"></path>
<path d="M22.001 3.86h-1.9v-1.86h-6.2v1.86h-1.9v-1.86c-0.001-0.514 0.196-1.008 0.55-1.38s0.837-0.594 1.35-0.62h6.2c0.513 0.026 0.996 0.248 1.35 0.62s0.551 0.866 0.55 1.38v1.86z"></path>
</svg>
