<!-- Generated by IcoMoon.io -->
<svg version="1.1" xmlns="http://www.w3.org/2000/svg" width="32" height="32" viewBox="0 0 32 32">
<path d="M11.002 0.623c-2.282 0.422-3.862 1.114-5.637 2.465-2.391 1.821-4.010 4.417-4.679 7.496-0.154 0.708-0.177 1.040-0.177 2.488 0 1.884 0.107 2.582 0.634 4.121 1.292 3.669 4.13 6.507 7.711 7.772l0.088 0.027c1.54 0.527 2.237 0.634 4.121 0.634 1.448 0 1.781-0.023 2.488-0.177 2.537-0.55 4.623-1.68 6.417-3.472 1.792-1.794 2.922-3.88 3.472-6.417 0.154-0.708 0.177-1.040 0.177-2.488 0-1.884-0.107-2.582-0.634-4.121-1.293-3.668-4.13-6.506-7.711-7.772l-0.088-0.027c-1.417-0.484-2.183-0.61-3.888-0.643-1.234-0.023-1.66-0.002-2.294 0.115zM14.204 2.454c2.261 0.185 4.683 1.347 6.405 3.071 1.933 1.923 3.13 4.585 3.13 7.526 0 0.287-0.011 0.572-0.034 0.854l0.002-0.037c-0.403 5.269-4.579 9.445-9.812 9.846l-0.036 0.002c-5.892 0.432-11.012-3.975-11.442-9.848-0.43-5.863 3.952-10.985 9.789-11.446 0.717-0.056 0.995-0.051 1.996 0.031zM24.057 24.067c-0.235 0.235-0.264 0.311-0.264 0.678v0.416l6.339 6.339h0.416c0.367 0 0.443-0.029 0.678-0.264s0.264-0.311 0.264-0.678v-0.416l-6.339-6.339h-0.416c-0.367 0-0.443 0.029-0.678 0.264z"></path>
</svg>
