<!-- Generated by IcoMoon.io -->
<svg version="1.1" xmlns="http://www.w3.org/2000/svg" width="32" height="32" viewBox="0 0 32 32">
<path d="M13.886 0.281c-0.491 0.125-0.958 0.554-1.093 1.002-0.038 0.131-0.129 0.764-0.2 1.404-0.169 1.508-0.246 1.776-0.622 2.152-0.317 0.317-0.607 0.432-1.085 0.434-0.423 0-0.803-0.218-1.866-1.074-1.112-0.896-1.316-1.008-1.83-1.008-0.642 0-0.838 0.142-2.429 1.751-1.543 1.56-1.593 1.634-1.578 2.313 0.009 0.44 0.161 0.704 1.016 1.765 0.857 1.063 1.074 1.443 1.074 1.866-0.002 0.469-0.112 0.746-0.431 1.074-0.379 0.39-0.639 0.469-2.119 0.633-0.628 0.069-1.262 0.158-1.407 0.197-0.331 0.087-0.737 0.428-0.92 0.771-0.137 0.256-0.14 0.312-0.14 2.439s0.003 2.183 0.14 2.439c0.175 0.328 0.574 0.674 0.887 0.768 0.131 0.038 0.764 0.129 1.404 0.2 1.53 0.17 1.779 0.243 2.155 0.633 0.319 0.328 0.429 0.607 0.431 1.074 0 0.423-0.216 0.798-1.074 1.863-0.855 1.063-1.006 1.327-1.016 1.768-0.016 0.686 0.025 0.745 1.644 2.371 1.611 1.615 1.729 1.702 2.354 1.704 0.499 0.002 0.734-0.128 1.839-1.019 0.517-0.415 1.084-0.827 1.259-0.915 0.582-0.29 1.212-0.185 1.693 0.281 0.377 0.364 0.453 0.626 0.622 2.145 0.071 0.64 0.162 1.273 0.2 1.404 0.095 0.312 0.44 0.712 0.768 0.887 0.256 0.137 0.312 0.14 2.439 0.14s2.183-0.003 2.439-0.14c0.328-0.175 0.674-0.574 0.768-0.887 0.038-0.131 0.129-0.764 0.2-1.404 0.169-1.519 0.244-1.781 0.622-2.145 0.481-0.465 1.111-0.571 1.693-0.281 0.175 0.088 0.741 0.5 1.259 0.915 1.111 0.894 1.339 1.021 1.85 1.021 0.603 0 0.83-0.166 2.417-1.772 1.533-1.552 1.585-1.626 1.57-2.305-0.009-0.442-0.161-0.705-1.016-1.768-0.858-1.065-1.074-1.44-1.074-1.863 0.002-0.467 0.112-0.746 0.431-1.074 0.375-0.39 0.625-0.462 2.155-0.633 0.64-0.071 1.273-0.162 1.404-0.2 0.312-0.095 0.712-0.44 0.887-0.768 0.137-0.256 0.14-0.312 0.14-2.439s-0.003-2.183-0.14-2.439c-0.183-0.344-0.588-0.685-0.92-0.771-0.369-0.073-0.85-0.143-1.336-0.191l-0.071-0.006c-1.48-0.164-1.74-0.243-2.119-0.633-0.319-0.328-0.429-0.606-0.431-1.074 0-0.423 0.218-0.803 1.074-1.866 0.855-1.062 1.006-1.325 1.016-1.765 0.016-0.678-0.035-0.752-1.578-2.313-1.592-1.609-1.787-1.751-2.429-1.751-0.514 0-0.718 0.112-1.83 1.008-0.517 0.415-1.084 0.827-1.259 0.915-0.194 0.1-0.423 0.159-0.666 0.159-0.676 0-1.245-0.455-1.42-1.075l-0.003-0.010c-0.088-0.406-0.168-0.918-0.22-1.437l-0.005-0.063c-0.054-0.552-0.125-1.032-0.216-1.504l0.016 0.1c-0.095-0.312-0.44-0.712-0.768-0.887-0.254-0.136-0.327-0.14-2.313-0.151-1.128-0.006-2.136 0.009-2.24 0.036zM17.511 9.879c1.154 0.309 2.147 0.889 2.943 1.669l-0.001-0.001c0.785 0.803 1.369 1.807 1.668 2.927l0.011 0.046c0.199 0.803 0.199 2.156 0 2.959-0.574 2.261-2.3 4.014-4.502 4.616l-0.045 0.010c-0.53 0.144-0.73 0.164-1.585 0.164s-1.055-0.021-1.585-0.164c-1.5-0.404-2.747-1.303-3.588-2.507l-0.014-0.021c-0.396-0.604-0.719-1.301-0.932-2.046l-0.013-0.054c-0.199-0.803-0.199-2.156 0-2.959 0.161-0.644 0.563-1.537 0.961-2.125 0.918-1.36 2.548-2.366 4.277-2.642 0.552-0.088 1.797-0.022 2.406 0.126z"></path>
</svg>
