<!-- Generated by IcoMoon.io -->
<svg version="1.1" xmlns="http://www.w3.org/2000/svg" width="33" height="32" viewBox="0 0 33 32">
<path d="M11.041 5.586c-3.073 3.073-5.586 5.629-5.586 5.677s0.316 0.404 0.703 0.787l0.7 0.698 8.76-8.758 0.046 16.864 0.286 0.286c0.248 0.246 0.347 0.286 0.721 0.286s0.475-0.040 0.721-0.286l0.288-0.286 0.046-16.776 8.672 8.672 0.745-0.745 0.745-0.747-11.261-11.259-5.586 5.586zM0.897 25.867c0 1.594 0.109 2.221 0.547 3.14 0.713 1.434 2.016 2.484 3.582 2.841l0.036 0.007c0.917 0.193 22.306 0.193 23.223 0 2.010-0.467 3.564-2.020 4.025-3.994l0.007-0.036c0.078-0.376 0.128-1.113 0.13-1.906v-1.294h-2.103v1.249c0 0.686-0.042 1.405-0.090 1.599-0.304 1.083-1.114 1.928-2.151 2.277l-0.023 0.007c-0.61 0.185-22.205 0.185-22.815 0-1.015-0.339-1.799-1.124-2.13-2.116l-0.007-0.024c-0.082-0.271-0.124-0.841-0.124-1.7l-0.002-1.294h-2.103v1.241z"></path>
</svg>
