<!-- Generated by IcoMoon.io -->
<svg version="1.1" xmlns="http://www.w3.org/2000/svg" width="32" height="32" viewBox="0 0 32 32">
<path d="M8.379 3.955c-0.176 0.040-0.963 0.79-3.973 3.788-2.065 2.057-3.827 3.837-3.918 3.956-0.351 0.469-0.113 1.204 0.446 1.372 0.58 0.173 0.465 0.265 3.769-3.031l3.021-3.014v20.321l0.21 0.229c0.444 0.483 1.221 0.386 1.493-0.187 0.097-0.205 0.107-1.069 0.107-10.262v-10.039l2.924 2.916c1.609 1.604 3.018 2.964 3.131 3.021 0.38 0.189 0.712 0.126 1.069-0.207 0.2-0.187 0.276-0.485 0.213-0.837-0.040-0.213-0.496-0.695-3.837-4.044-2.086-2.090-3.864-3.838-3.953-3.884-0.138-0.079-0.303-0.126-0.48-0.126-0.079 0-0.156 0.009-0.23 0.027l0.007-0.001zM23.072 3.987c-0.052 0.022-0.141 0.053-0.232 0.083l-0.038 0.011c-0.006 0.002-0.079 0.097-0.162 0.212l-0.15 0.21-0.032 10.189-0.032 10.187-2.872-2.95c-1.578-1.624-2.974-3.016-3.102-3.097-0.386-0.244-0.813-0.17-1.16 0.202-0.208 0.223-0.254 0.704-0.090 0.989 0.183 0.323 7.583 7.89 7.804 7.982 0.26 0.108 0.641 0.092 0.835-0.034 0.086-0.058 1.859-1.85 3.94-3.984 3.014-3.090 3.798-3.929 3.856-4.124 0.024-0.078 0.038-0.168 0.038-0.26 0-0.438-0.31-0.803-0.722-0.889l-0.006-0.001c-0.515-0.095-0.509-0.1-3.675 3.15l-2.973 3.052-0.032-10.258-0.032-10.26-0.241-0.221c-0.134-0.121-0.299-0.221-0.367-0.221-0.075-0-0.148-0.011-0.217-0.030l0.006 0.001c-0.010-0-0.021-0.001-0.033-0.001-0.112 0-0.219 0.023-0.316 0.066l0.005-0.002z"></path>
</svg>
