<!-- Generated by IcoMoon.io -->
<svg version="1.1" xmlns="http://www.w3.org/2000/svg" width="32" height="32" viewBox="0 0 32 32">
<path d="M13.72 6.101c-1.235 2.919-2.277 5.308-2.316 5.308-0.222 0-11.382 0.967-11.404 0.989-0.014 0.012 1.93 1.715 4.316 3.78 2.388 2.065 4.345 3.795 4.345 3.843 0.002 0.048-0.577 2.577-1.286 5.621-0.149 0.374-0.584 2.247-0.995 4.129l-0.262 1.434c0.017 0.017 2.246-1.305 4.955-2.938 2.707-1.636 4.946-2.96 4.972-2.943l4.929 2.97c2.683 1.619 4.89 2.929 4.91 2.91 0.019-0.017-0.548-2.523-1.259-5.566 0.048 0.577-0.397-1.314-0.827-3.21l-0.459-2.408c0-0.048 1.957-1.776 4.345-3.841 2.388-2.063 4.331-3.766 4.316-3.78-0.022-0.022-11.165-0.989-11.404-0.989-0.036 0-1.078-2.388-2.316-5.308-1.235-2.919-2.263-5.308-2.28-5.308s-1.042 2.388-2.28 5.308z"></path>
</svg>
