<!-- Generated by IcoMoon.io -->
<svg version="1.1" xmlns="http://www.w3.org/2000/svg" width="32" height="32" viewBox="0 0 32 32">
<path d="M14.811 0.276c-5.71 0.525-10.507 3.788-12.958 8.816-4.545 9.331 1.001 20.394 11.207 22.365 0.886 0.178 1.905 0.279 2.948 0.279 4.346 0 8.279-1.765 11.122-4.617l0-0c2.853-2.847 4.618-6.784 4.618-11.132 0-3.744-1.308-7.183-3.493-9.883l0.023 0.030c-2.442-3.007-5.917-5.092-9.878-5.713l-0.090-0.012c-0.821-0.092-1.773-0.144-2.737-0.144-0.269 0-0.536 0.004-0.803 0.012l0.039-0.001zM23.039 10.761l1.285 1.068c0.014 0.014-2.22 2.717-4.968 6.015l-4.993 5.994-3.277-3.277c-1.108-1.087-2.177-2.177-3.223-3.289l-0.054-0.058c0-0.091 2.325-2.416 2.416-2.416 0.039 0 0.935 0.865 1.996 1.922l1.926 1.922 3.746-4.502c2.062-2.479 3.778-4.488 3.816-4.464 0.038 0.021 0.637 0.511 1.33 1.085z"></path>
</svg>
