<!-- Generated by IcoMoon.io -->
<svg version="1.1" xmlns="http://www.w3.org/2000/svg" width="32" height="32" viewBox="0 0 32 32">
<path d="M10.063 4.859c-1.467 0.14-2.186 0.248-3.119 0.466-3.51 0.819-5.97 2.553-6.485 4.569-0.098 0.385-0.104 0.698-0.107 6.178-0.003 6.331-0.012 6.134 0.324 6.813 0.313 0.631 0.736 1.148 1.318 1.612 1.791 1.43 4.497 2.329 7.824 2.601 0.43 0.034 4.177 0.055 10.095 0.055 10.269 0 9.995 0.007 10.623-0.31 0.563-0.285 0.898-0.786 1.033-1.537 0.109-0.612 0.11-7.564 0.002-8.174-0.164-0.922-0.567-1.41-1.427-1.725-0.257-0.095-0.604-0.103-5.717-0.128l-5.445-0.028 0.41-0.212c2.634-1.362 3.793-3.372 3.117-5.405-0.657-1.974-3.28-3.665-6.824-4.397-1.347-0.279-2.165-0.36-3.844-0.379-0.244-0.005-0.532-0.008-0.821-0.008-0.336 0-0.671 0.004-1.006 0.012l0.050-0.001zM13.947 6.438c2.337 0.33 4.104 0.912 5.509 1.817 0.582 0.376 1.295 1.109 1.518 1.559 0.452 0.921 0.264 1.791-0.576 2.671-1.401 1.467-4.262 2.498-7.524 2.713l-0.58 0.037-0.030-1.935c-0.031-2.019-0.060-2.302-0.291-2.826-0.157-0.355-0.615-0.821-0.98-0.995-0.436-0.207-1.092-0.216-1.888-0.027-1.298 0.309-2.226 0.707-3.017 1.294-0.45 0.319-0.808 0.74-1.044 1.23l-0.008 0.019c-0.224 0.476-0.266 1.218-0.096 1.722 0.060 0.179 0.104 0.331 0.098 0.337-0.027 0.025-1.098-0.543-1.458-0.773-0.621-0.397-1.25-1.059-1.51-1.585-0.203-0.41-0.215-0.464-0.215-0.934 0-0.464 0.013-0.525 0.201-0.904 0.554-1.116 1.964-2.082 4.023-2.758 1.182-0.386 2.322-0.603 4.036-0.764 0.537-0.051 3.26 0.021 3.83 0.101zM10.498 10.92c0.228 0.23 0.255 0.455 0.287 2.434l0.031 1.879-0.378-0.036c-1.468-0.142-2.908-0.661-3.611-1.304-0.7-0.639-0.691-1.203 0.031-1.856 0.516-0.466 1.28-0.804 2.683-1.185 0.106-0.028 0.334-0.054 0.509-0.057 0.264-0.003 0.339 0.016 0.448 0.125zM2.735 14.498c1.516 1.016 3.656 1.732 6.151 2.061 1.341 0.175 2.468 0.195 11.518 0.198 6.864 0.005 9.135 0.021 9.298 0.070 0.142 0.037 0.259 0.13 0.327 0.253l0.001 0.003c0.11 0.188 0.112 0.261 0.112 4.075 0 4.333 0.009 4.235-0.348 4.396-0.17 0.078-0.477 0.094-2.155 0.107l-1.956 0.018v-1.21c0-1.341-0.022-1.447-0.345-1.644-0.366-0.222-0.864-0.084-1.042 0.291-0.076 0.163-0.091 0.385-0.091 1.374v1.182h-4.487v-1.216c0-1.112-0.009-1.234-0.107-1.394-0.138-0.208-0.371-0.343-0.636-0.343-0.146 0-0.282 0.041-0.398 0.112l0.003-0.002c-0.306 0.186-0.339 0.345-0.339 1.665v1.177h-4.486v-1.177c0-1.321-0.033-1.479-0.339-1.665-0.113-0.069-0.249-0.11-0.395-0.11-0.265 0-0.498 0.135-0.634 0.34l-0.002 0.003c-0.098 0.16-0.107 0.282-0.107 1.394v1.216h-0.889c-1.177-0.002-2.802-0.146-3.474-0.31l-0.124-0.030v-1.403c0-1.303-0.007-1.415-0.109-1.582-0.133-0.218-0.412-0.395-0.621-0.395-0.264 0.013-0.494 0.149-0.635 0.351l-0.002 0.003c-0.103 0.166-0.11 0.272-0.11 1.422v1.241l-0.178-0.037c-0.297-0.064-1.298-0.452-1.786-0.694-1.282-0.633-2.161-1.447-2.432-2.255-0.081-0.242-0.091-0.688-0.091-4.23v-3.962l0.288 0.242c0.158 0.133 0.437 0.343 0.619 0.466z"></path>
</svg>
