<!-- Generated by IcoMoon.io -->
<svg version="1.1" xmlns="http://www.w3.org/2000/svg" width="33" height="32" viewBox="0 0 33 32">
<path d="M23.501 20.799c0.092-0.454 0.14-0.925 0.14-1.407 0-3.89-3.153-7.043-7.043-7.043-0.482 0-0.952 0.048-1.407 0.14l1.625 1.625c2.744 0.111 4.948 2.316 5.060 5.060l1.625 1.625zM12.008 16.777c-0.44 0.771-0.692 1.664-0.692 2.616 0 2.917 2.365 5.282 5.282 5.282 0.952 0 1.845-0.252 2.616-0.692l1.279 1.279c-1.115 0.742-2.455 1.174-3.895 1.174-3.89 0-7.043-3.153-7.043-7.043 0-1.44 0.432-2.779 1.174-3.895l1.279 1.279z"></path>
<path d="M23.913 28.681l-1.293-1.293c-1.873 1.020-3.91 1.689-6.021 1.689-2.944 0-5.744-1.303-8.158-3.040-2.407-1.732-4.356-3.842-5.58-5.328-0.747-0.907-0.824-1.064-0.824-1.317s0.077-0.41 0.824-1.317c1.178-1.431 3.029-3.44 5.314-5.133l-1.258-1.258c-2.344 1.775-4.222 3.822-5.415 5.271l-0.104 0.125c-0.582 0.703-1.123 1.356-1.123 2.311s0.54 1.608 1.123 2.311l0.104 0.125c1.277 1.55 3.335 3.784 5.911 5.638 2.569 1.848 5.728 3.371 9.186 3.371 2.659 0 5.141-0.9 7.314-2.157zM11.651 8.949c1.549-0.617 3.211-1.001 4.948-1.001 3.458 0 6.617 1.523 9.186 3.371 2.576 1.853 4.635 4.088 5.911 5.637l0.104 0.125c0.582 0.703 1.123 1.356 1.123 2.311s-0.541 1.608-1.123 2.311l-0.104 0.125c-0.846 1.027-2.036 2.355-3.492 3.673l-1.247-1.247c1.401-1.261 2.555-2.545 3.379-3.546 0.747-0.907 0.824-1.064 0.824-1.317s-0.077-0.41-0.824-1.317c-1.224-1.486-3.173-3.596-5.581-5.328-2.414-1.737-5.214-3.040-8.157-3.040-1.223 0-2.421 0.225-3.576 0.612l-1.372-1.372z"></path>
<path d="M31.823 30.58l-28.173-28.173 1.245-1.245 28.173 28.173-1.245 1.245z"></path>
</svg>
