<!-- Generated by IcoMoon.io -->
<svg version="1.1" xmlns="http://www.w3.org/2000/svg" width="32" height="32" viewBox="0 0 32 32">
<path d="M14.552 0.32c-1.97 0.354-3.605 1.199-4.969 2.572-1.2 1.221-2.063 2.776-2.437 4.513l-0.011 0.061c-0.168 0.79-0.168 2.764 0 3.554 0.386 1.813 1.263 3.38 2.485 4.604l-0-0c1.223 1.221 2.79 2.098 4.544 2.474l0.060 0.011c0.79 0.168 2.764 0.168 3.554 0 3.569-0.756 6.332-3.52 7.078-7.029l0.011-0.060c0.168-0.79 0.168-2.764 0-3.554-0.754-3.546-3.486-6.296-6.962-7.065l-0.061-0.011c-0.671-0.148-2.623-0.189-3.291-0.069zM16.625 1.875c1.655 0.156 3.004 0.727 4.219 1.785 1.411 1.211 2.349 2.94 2.516 4.889l0.002 0.027c0.347 4.1-2.642 7.685-6.695 8.028-2.067 0.174-3.977-0.443-5.51-1.779-1.566-1.35-2.551-3.336-2.551-5.552 0-0.241 0.012-0.479 0.034-0.714l-0.002 0.030c0.129-1.622 0.782-3.070 1.787-4.198l-0.006 0.007c1.2-1.388 2.896-2.319 4.809-2.516l0.031-0.003c0.318-0.031 0.592-0.061 0.61-0.066s0.359 0.023 0.757 0.061zM14.355 20.010c-2.8 0.319-4.772 0.87-6.807 1.904-2.147 1.091-3.926 2.573-5.142 4.293-0.708 0.997-0.958 1.53-0.959 2.044-0.003 0.752 0.378 1.479 0.981 1.861 0.383 0.244 0.507 0.278 1.923 0.553 3.923 0.759 7.442 1.086 11.649 1.086s7.727-0.327 11.649-1.086c1.417-0.275 1.54-0.309 1.923-0.553 0.602-0.382 0.984-1.109 0.981-1.861-0.002-0.513-0.252-1.046-0.959-2.044-1.97-2.781-5.315-4.862-9.283-5.777-1.352-0.313-2.229-0.405-4.015-0.426-0.25-0.006-0.544-0.009-0.839-0.009-0.388 0-0.774 0.006-1.159 0.017l0.057-0.001zM16.943 21.616c2.489 0.145 4.51 0.66 6.593 1.682 1.963 0.963 3.483 2.174 4.577 3.649 0.709 0.954 0.867 1.295 0.745 1.609-0.069 0.183-0.359 0.283-1.41 0.487-6.047 1.18-12.595 1.413-18.655 0.663-2.264-0.28-5.092-0.775-5.435-0.953-0.457-0.235-0.339-0.638 0.528-1.807 1.094-1.476 2.614-2.687 4.577-3.649 1.877-0.942 4.073-1.548 6.397-1.676l0.043-0.002c0.476-0.026 0.88-0.053 0.898-0.058s0.531 0.020 1.14 0.054z"></path>
</svg>
