<!-- Generated by IcoMoon.io -->
<svg version="1.1" xmlns="http://www.w3.org/2000/svg" width="32" height="32" viewBox="0 0 32 32">
<path d="M15.122 0.020c-2.096 0.23-3.939 1.163-5.323 2.554l-0 0c-3.001 3.001-3.433 7.612-1.047 11.174 0.47 0.702 1.563 1.801 2.251 2.26 1.033 0.692 2.095 1.141 3.313 1.399 0.824 0.176 2.549 0.176 3.373 0 1.803-0.384 3.25-1.162 4.517-2.427 1.266-1.267 2.044-2.714 2.427-4.517 0.176-0.824 0.176-2.549 0-3.373-0.384-1.803-1.162-3.25-2.427-4.517-1.156-1.177-2.646-2.022-4.316-2.382l-0.057-0.010c-0.59-0.132-2.137-0.224-2.711-0.162zM14.347 21.177c-5.284 0.433-9.955 2.912-12.389 6.577-0.697 1.051-0.792 1.373-0.563 1.92 0.153 0.343 0.41 0.617 0.73 0.786l0.009 0.004c0.137 0.070 0.834 0.241 1.549 0.377 8.117 1.546 16.52 1.546 24.637 0 0.715-0.136 1.412-0.306 1.549-0.377 0.329-0.174 0.587-0.447 0.735-0.78l0.004-0.010c0.225-0.54 0.12-0.914-0.551-1.912-1.401-2.088-3.496-3.797-6.099-4.98-2.883-1.31-6.286-1.878-9.611-1.605z"></path>
</svg>
