<!-- Generated by IcoMoon.io -->
<svg version="1.1" xmlns="http://www.w3.org/2000/svg" width="34" height="32" viewBox="0 0 34 32">
<path d="M30.016 0.25h-26.25c-0.696 0-1.364 0.277-1.856 0.769s-0.769 1.16-0.769 1.856v26.25c0 0.696 0.277 1.364 0.769 1.856s1.16 0.769 1.856 0.769h26.25c0.696 0 1.364-0.276 1.856-0.769s0.769-1.16 0.769-1.856v-26.25c0-0.696-0.276-1.364-0.769-1.856s-1.16-0.769-1.856-0.769zM14.266 23.219l-6.563-6.506 2.087-2.025 4.476 4.392 9.724-9.642 2.088 2.070-11.812 11.711z"></path>
</svg>
