<!-- Generated by IcoMoon.io -->
<svg version="1.1" xmlns="http://www.w3.org/2000/svg" width="33" height="32" viewBox="0 0 33 32">
<path d="M16.67 21.28c-2.916 0-5.28-2.364-5.28-5.28s2.364-5.28 5.28-5.28c2.916 0 5.28 2.364 5.28 5.28s-2.364 5.28-5.28 5.28zM16.67 23.040c3.888 0 7.040-3.152 7.040-7.040s-3.152-7.040-7.040-7.040c-3.888 0-7.040 3.152-7.040 7.040s3.152 7.040 7.040 7.040z"></path>
<path d="M8.518 9.359c-2.406 1.731-4.354 3.84-5.578 5.325-0.747 0.907-0.824 1.064-0.824 1.316s0.077 0.409 0.824 1.316c1.223 1.485 3.172 3.594 5.578 5.325 2.413 1.736 5.211 3.039 8.154 3.039s5.741-1.303 8.154-3.039c2.406-1.731 4.354-3.84 5.578-5.325 0.747-0.907 0.824-1.064 0.824-1.316s-0.077-0.409-0.824-1.316c-1.224-1.485-3.172-3.594-5.578-5.325-2.413-1.736-5.211-3.038-8.154-3.038s-5.741 1.303-8.154 3.038zM7.49 7.93c2.568-1.847 5.725-3.37 9.182-3.37s6.614 1.522 9.182 3.37c2.575 1.852 4.632 4.086 5.908 5.635 0.035 0.042 0.069 0.084 0.104 0.125 0.582 0.703 1.122 1.356 1.122 2.31s-0.54 1.607-1.122 2.31c-0.035 0.042-0.069 0.083-0.104 0.125-1.276 1.549-3.334 3.782-5.908 5.635-2.568 1.847-5.725 3.37-9.182 3.37s-6.614-1.522-9.182-3.37c-2.575-1.853-4.632-4.086-5.908-5.635-0.035-0.042-0.069-0.084-0.103-0.125-0.582-0.703-1.122-1.356-1.122-2.31s0.54-1.607 1.122-2.31c0.034-0.042 0.069-0.083 0.103-0.125 1.276-1.549 3.334-3.782 5.908-5.635z"></path>
</svg>
