<!-- Generated by IcoMoon.io -->
<svg version="1.1" xmlns="http://www.w3.org/2000/svg" width="32" height="32" viewBox="0 0 32 32">
<path d="M13.797 27.343c-2.679 0-5.298-0.794-7.526-2.283s-3.964-3.604-4.989-6.080c-1.025-2.475-1.294-5.199-0.771-7.827s1.813-5.042 3.707-6.936c1.895-1.895 4.308-3.185 6.936-3.707s5.351-0.254 7.827 0.771c2.475 1.025 4.591 2.762 6.080 4.989s2.283 4.847 2.283 7.526c0 1.779-0.35 3.541-1.031 5.184s-1.678 3.137-2.936 4.395c-1.258 1.258-2.751 2.256-4.395 2.936s-3.405 1.031-5.184 1.031zM13.797 2.966c-2.135 0-4.222 0.633-5.997 1.819s-3.159 2.872-3.976 4.844c-0.817 1.972-1.031 4.143-0.614 6.236s1.444 4.017 2.954 5.527c1.51 1.51 3.433 2.537 5.527 2.954s4.264 0.203 6.236-0.614c1.972-0.817 3.658-2.2 4.844-3.975s1.819-3.862 1.819-5.997c0-2.863-1.137-5.608-3.161-7.632s-4.77-3.162-7.633-3.162z"></path>
<path d="M30.401 31.75c-0.177 0.001-0.353-0.034-0.517-0.102s-0.312-0.168-0.437-0.294l-7.43-7.43c-0.238-0.256-0.368-0.594-0.362-0.944s0.148-0.683 0.395-0.93 0.581-0.389 0.93-0.395c0.35-0.006 0.688 0.124 0.944 0.362l7.43 7.43c0.253 0.253 0.395 0.596 0.395 0.953s-0.142 0.701-0.395 0.953c-0.125 0.126-0.273 0.226-0.437 0.294s-0.339 0.103-0.517 0.102zM13.761 19.607c-0.356-0.005-0.697-0.148-0.949-0.4s-0.396-0.593-0.4-0.949v-8.995c0-0.358 0.142-0.701 0.395-0.954s0.596-0.395 0.954-0.395 0.701 0.142 0.954 0.395c0.253 0.253 0.395 0.596 0.395 0.954v8.995c-0.005 0.356-0.148 0.697-0.4 0.949s-0.593 0.396-0.949 0.4z"></path>
<path d="M18.258 15.109h-8.995c-0.358 0-0.701-0.142-0.954-0.395s-0.395-0.596-0.395-0.954 0.142-0.701 0.395-0.954c0.253-0.253 0.596-0.395 0.954-0.395h8.995c0.358 0 0.701 0.142 0.954 0.395s0.395 0.596 0.395 0.954-0.142 0.701-0.395 0.954c-0.253 0.253-0.596 0.395-0.954 0.395z"></path>
</svg>
