<svg aria-hidden="true" style="position: absolute; width: 0; height: 0; overflow: hidden;" version="1.1" xmlns="http://www.w3.org/2000/svg" xmlns:xlink="http://www.w3.org/1999/xlink">
<defs>
<symbol id="icon-list-catalog" viewBox="0 0 32 32">
<path d="M2.141 2.215c-0.661 0.21-1.339 0.816-1.676 1.496l-0.182 0.372v7.134l0.217 0.429c0.258 0.507 0.827 1.068 1.343 1.321l0.372 0.182h27.569l0.429-0.217c0.507-0.258 1.068-0.827 1.321-1.343l0.182-0.372v-7.134l-0.182-0.372c-0.308-0.569-0.758-1.027-1.304-1.335l-0.017-0.009-0.429-0.217-13.673-0.015c-10.84-0.011-13.734 0.006-13.97 0.080zM29.471 4.065c0.474 0.308 0.463 0.227 0.463 3.584s0.011 3.275-0.463 3.584c-0.189 0.124-0.918 0.132-13.471 0.132s-13.281-0.007-13.471-0.132c-0.466-0.305-0.461-0.262-0.485-3.32-0.013-1.535-0.004-2.932 0.022-3.106 0.056-0.381 0.336-0.736 0.656-0.829 0.141-0.041 5.538-0.065 13.393-0.058 12.432 0.013 13.166 0.020 13.355 0.145zM2.141 18.935c-0.661 0.21-1.339 0.816-1.676 1.495l-0.182 0.372v7.134l0.217 0.429c0.258 0.507 0.827 1.068 1.343 1.321l0.372 0.182h27.569l0.429-0.217c0.507-0.258 1.068-0.827 1.321-1.343l0.182-0.372v-7.134l-0.182-0.372c-0.308-0.569-0.758-1.027-1.304-1.335l-0.017-0.009-0.429-0.217-13.673-0.015c-10.84-0.011-13.734 0.006-13.97 0.080zM29.471 20.785c0.474 0.308 0.463 0.227 0.463 3.584s0.011 3.275-0.463 3.584c-0.189 0.124-0.918 0.132-13.471 0.132s-13.281-0.007-13.471-0.132c-0.466-0.305-0.461-0.262-0.485-3.32-0.013-1.535-0.004-2.932 0.022-3.106 0.056-0.381 0.336-0.736 0.656-0.829 0.141-0.041 5.538-0.065 13.393-0.058 12.432 0.013 13.166 0.020 13.355 0.145z"></path>
</symbol>
<symbol id="icon-dots" viewBox="0 0 32 32">
<path d="M3.646 12.787c-0.579 0.126-1.037 0.39-1.543 0.89-0.493 0.464-0.83 1.088-0.931 1.788l-0.002 0.016c-0.165 1.080 0.155 2.057 0.933 2.833 0.589 0.606 1.411 0.982 2.322 0.982s1.732-0.376 2.319-0.98l0.001-0.001c0.602-0.596 0.975-1.423 0.975-2.337 0-0.524-0.123-1.019-0.341-1.459l0.009 0.019c-0.25-0.514-0.918-1.206-1.425-1.475-0.65-0.347-1.516-0.45-2.317-0.276zM15.222 12.787c-0.579 0.126-1.037 0.39-1.543 0.89-0.493 0.464-0.83 1.088-0.931 1.788l-0.002 0.016c-0.165 1.080 0.155 2.057 0.933 2.833 0.589 0.606 1.411 0.982 2.322 0.982s1.732-0.376 2.319-0.98l0.001-0.001c0.602-0.596 0.975-1.423 0.975-2.337 0-0.524-0.123-1.019-0.341-1.459l0.009 0.019c-0.25-0.514-0.918-1.206-1.425-1.475-0.65-0.347-1.516-0.45-2.317-0.276zM26.798 12.787c-0.579 0.126-1.037 0.39-1.543 0.89-0.493 0.464-0.83 1.088-0.931 1.788l-0.002 0.016c-0.165 1.080 0.155 2.057 0.933 2.833 0.589 0.606 1.411 0.982 2.322 0.982s1.732-0.376 2.319-0.98l0.001-0.001c0.602-0.596 0.975-1.423 0.975-2.337 0-0.524-0.123-1.019-0.341-1.459l0.009 0.019c-0.25-0.514-0.918-1.206-1.425-1.475-0.65-0.347-1.516-0.45-2.317-0.276z"></path>
</symbol>
<symbol id="icon-zoom" viewBox="0 0 32 32">
<path d="M13.797 27.343c-2.679 0-5.298-0.794-7.526-2.283s-3.964-3.604-4.989-6.080c-1.025-2.475-1.294-5.199-0.771-7.827s1.813-5.042 3.707-6.936c1.895-1.895 4.308-3.185 6.936-3.707s5.351-0.254 7.827 0.771c2.475 1.025 4.591 2.762 6.080 4.989s2.283 4.847 2.283 7.526c0 1.779-0.35 3.541-1.031 5.184s-1.678 3.137-2.936 4.395c-1.258 1.258-2.751 2.256-4.395 2.936s-3.405 1.031-5.184 1.031zM13.797 2.966c-2.135 0-4.222 0.633-5.997 1.819s-3.159 2.872-3.976 4.844c-0.817 1.972-1.031 4.143-0.614 6.236s1.444 4.017 2.954 5.527c1.51 1.51 3.433 2.537 5.527 2.954s4.264 0.203 6.236-0.614c1.972-0.817 3.658-2.2 4.844-3.975s1.819-3.862 1.819-5.997c0-2.863-1.137-5.608-3.161-7.632s-4.77-3.162-7.633-3.162z"></path>
<path d="M30.401 31.75c-0.177 0.001-0.353-0.034-0.517-0.102s-0.312-0.168-0.437-0.294l-7.43-7.43c-0.238-0.256-0.368-0.594-0.362-0.944s0.148-0.683 0.395-0.93 0.581-0.389 0.93-0.395c0.35-0.006 0.688 0.124 0.944 0.362l7.43 7.43c0.253 0.253 0.395 0.596 0.395 0.953s-0.142 0.701-0.395 0.953c-0.125 0.126-0.273 0.226-0.437 0.294s-0.339 0.103-0.517 0.102zM13.761 19.607c-0.356-0.005-0.697-0.148-0.949-0.4s-0.396-0.593-0.4-0.949v-8.995c0-0.358 0.142-0.701 0.395-0.954s0.596-0.395 0.954-0.395 0.701 0.142 0.954 0.395c0.253 0.253 0.395 0.596 0.395 0.954v8.995c-0.005 0.356-0.148 0.697-0.4 0.949s-0.593 0.396-0.949 0.4z"></path>
<path d="M18.258 15.109h-8.995c-0.358 0-0.701-0.142-0.954-0.395s-0.395-0.596-0.395-0.954 0.142-0.701 0.395-0.954c0.253-0.253 0.596-0.395 0.954-0.395h8.995c0.358 0 0.701 0.142 0.954 0.395s0.395 0.596 0.395 0.954-0.142 0.701-0.395 0.954c-0.253 0.253-0.596 0.395-0.954 0.395z"></path>
</symbol>
<symbol id="icon-attention" viewBox="0 0 33 32">
<path d="M14.554 0.317c-0.975 0.102-2.244 0.389-3.318 0.75-7.797 2.618-12.263 10.808-10.251 18.795 1.757 6.971 8.074 11.888 15.275 11.888 6.705 0 12.691-4.261 14.884-10.595 0.592-1.707 0.854-3.292 0.854-5.161s-0.262-3.454-0.854-5.161c-2-5.774-7.228-9.911-13.303-10.523-0.823-0.083-2.458-0.080-3.287 0.007zM17.705 1.542c2.804 0.287 5.587 1.437 7.732 3.196 0.605 0.497 1.697 1.599 2.179 2.199 1.594 1.989 2.673 4.518 3.028 7.095 0.139 1.006 0.139 2.919 0 3.925-0.355 2.577-1.434 5.105-3.028 7.095-0.481 0.599-1.574 1.702-2.179 2.199-2.146 1.759-4.928 2.909-7.732 3.196-3.765 0.386-7.697-0.798-10.624-3.196-0.605-0.497-1.697-1.599-2.179-2.199-1.204-1.503-2.155-3.395-2.687-5.35-0.599-2.2-0.599-5.214 0-7.414 0.532-1.953 1.48-3.841 2.687-5.35 0.48-0.6 1.575-1.705 2.179-2.2 2.112-1.728 4.937-2.909 7.64-3.193 0.803-0.085 2.175-0.086 2.983-0.003zM15.844 8.641l-0.2 0.2v11.145l0.163 0.19c0.131 0.152 0.221 0.191 0.452 0.191s0.321-0.038 0.452-0.191l0.163-0.19v-11.145l-0.2-0.2c-0.136-0.136-0.268-0.199-0.415-0.199s-0.279 0.063-0.415 0.199zM15.786 22.254c-0.291 0.291-0.295 0.673-0.011 0.957 0.44 0.44 1.167 0.139 1.167-0.484 0-0.628-0.71-0.919-1.157-0.473z"></path>
</symbol>
<symbol id="icon-check-success" viewBox="0 0 33 32">
<path d="M14.376 0.316c-2.837 0.32-5.733 1.541-8.049 3.395-5.006 4.004-7.061 10.823-5.118 16.991 1.302 4.134 4.094 7.415 7.976 9.371 1.274 0.654 2.751 1.159 4.307 1.437l0.096 0.014c3.264 0.57 6.742 0.052 9.724-1.451 4.4-2.217 7.463-6.24 8.405-11.042 0.494-2.518 0.371-5.265-0.334-7.442l-0.186-0.576-1.986 1.901 0.118 0.578c0.517 2.519 0.236 5.251-0.79 7.682-2.458 5.82-8.616 9.101-14.834 7.904-5.251-1.010-9.4-5.081-10.49-10.289-1.376-6.574 2.177-13.040 8.435-15.35 2.367-0.873 5.341-1.029 7.819-0.408 2.144 0.537 4.204 1.651 5.701 3.081l0.28 0.268 1.715-1.705-0.481-0.448c-2.266-2.112-5.502-3.573-8.675-3.917-0.752-0.082-2.883-0.078-3.632 0.007zM23.065 12.247l-6.817 6.817-5.191-5.19-1.741 1.741 6.932 6.932 15.407-15.407-0.853-0.855c-0.469-0.47-0.868-0.855-0.887-0.855s-3.102 3.068-6.851 6.817z"></path>
</symbol>
<symbol id="icon-remove" viewBox="0 0 34 32">
<path d="M26.14 32h-18.28c-0.385-0.009-0.764-0.094-1.116-0.25s-0.67-0.379-0.936-0.658-0.474-0.607-0.612-0.966c-0.139-0.359-0.205-0.742-0.196-1.127v-19.77h2v19.77c-0.010 0.122 0.005 0.245 0.043 0.362s0.099 0.224 0.179 0.317 0.177 0.169 0.287 0.224c0.109 0.055 0.229 0.088 0.351 0.097h18.28c0.122-0.009 0.242-0.042 0.351-0.097s0.207-0.131 0.287-0.224 0.141-0.201 0.179-0.317c0.038-0.117 0.053-0.239 0.043-0.362v-19.77h2v19.77c0.009 0.385-0.057 0.768-0.196 1.127s-0.347 0.687-0.612 0.966-0.583 0.502-0.935 0.658c-0.352 0.156-0.731 0.24-1.116 0.25z"></path>
<path d="M29.781 7h-25.78c-0.265 0-0.52-0.105-0.707-0.293s-0.293-0.442-0.293-0.707c0-0.265 0.105-0.52 0.293-0.707s0.442-0.293 0.707-0.293h25.78c0.265 0 0.52 0.105 0.707 0.293s0.293 0.442 0.293 0.707-0.105 0.52-0.293 0.707c-0.188 0.188-0.442 0.293-0.707 0.293z"></path>
<path d="M20.001 11h2v15h-2v-15z"></path>
<path d="M12.001 11h2v15h-2v-15z"></path>
<path d="M22.001 3.86h-1.9v-1.86h-6.2v1.86h-1.9v-1.86c-0.001-0.514 0.196-1.008 0.55-1.38s0.837-0.594 1.35-0.62h6.2c0.513 0.026 0.996 0.248 1.35 0.62s0.551 0.866 0.55 1.38v1.86z"></path>
</symbol>
<symbol id="icon-arrow-down" viewBox="0 0 32 32">
<path d="M1.379 7.155c-0.519 0.317-1.134 1.062-1.28 1.55-0.292 0.977-0.455 0.783 7.446 8.693 3.953 3.953 7.36 7.294 7.573 7.421 0.255 0.142 0.559 0.226 0.883 0.226s0.628-0.084 0.892-0.231l-0.009 0.005c0.212-0.127 3.619-3.468 7.573-7.421 7.907-7.912 7.738-7.716 7.443-8.696-0.146-0.494-0.872-1.346-1.349-1.595-0.403-0.21-1.126-0.199-1.561 0.022-0.193 0.097-3.195 3.013-6.671 6.48l-6.318 6.301-6.318-6.301c-3.476-3.468-6.478-6.384-6.671-6.48-0.472-0.237-1.222-0.226-1.633 0.025z"></path>
</symbol>
<symbol id="icon-check-arrow" viewBox="0 0 32 32">
<path d="M29.676 4.866c-0.203 0.087-3.483 3.304-9.361 9.178l-9.046 9.044-4.359-4.348c-4.792-4.781-4.69-4.698-5.485-4.46-0.487 0.145-1.191 0.849-1.336 1.336-0.241 0.807-0.4 0.617 5.264 6.283 4.482 4.48 5.203 5.168 5.534 5.264 0.845 0.246 0.172 0.856 10.954-9.911 5.561-5.554 9.888-9.944 9.987-10.132 0.092-0.177 0.153-0.383 0.172-0.602l0-0.006c0-0.576-0.617-1.376-1.271-1.649-0.152-0.080-0.333-0.127-0.524-0.127-0.193 0-0.375 0.048-0.535 0.132l0.006-0.003z"></path>
</symbol>
<symbol id="icon-hryvnya" viewBox="0 0 34 32">
<path fill="#143810" style="fill: var(--color1, #143810)" d="M21.533 14.25h5.967v-3.5h-2.94c0.735-1.155 1.19-2.31 1.19-3.5 0-4.603-4.375-7-8.75-7-4.113 0-7.822 3.605-8.242 4.008l2.485 2.485c0.84-0.84 3.5-2.993 5.757-2.993 1.82 0 5.25 0.735 5.25 3.5 0 0.875-0.875 2.17-2.17 3.5h-13.58v3.5h9.852c-0.735 0.63-3.29 2.923-3.885 3.5h-5.968v3.5h2.94c-0.735 1.155-1.19 2.31-1.19 3.5 0 4.603 4.375 7 8.75 7 4.113 0 7.822-3.605 8.242-4.008l-2.485-2.485c-0.823 0.84-3.5 2.992-5.758 2.992-1.82 0-5.25-0.735-5.25-3.5 0-0.875 0.875-2.17 2.17-3.5h13.58v-3.5h-9.835l3.868-3.5z"></path>
</symbol>
<symbol id="icon-Property-1active" viewBox="0 0 32 32">
<path d="M16 25.844c2.611 0 5.114-1.037 6.961-2.883s2.883-4.35 2.883-6.961-1.037-5.115-2.883-6.961c-1.846-1.846-4.35-2.883-6.961-2.883s-5.115 1.037-6.961 2.883c-1.846 1.846-2.883 4.35-2.883 6.961s1.037 5.114 2.883 6.961c1.846 1.846 4.35 2.883 6.961 2.883zM16 0.25c-4.177 0-8.183 1.659-11.137 4.613s-4.613 6.96-4.613 11.137c0 4.177 1.659 8.183 4.613 11.137s6.96 4.613 11.137 4.613 8.183-1.659 11.137-4.613c2.954-2.954 4.613-6.96 4.613-11.137s-1.659-8.183-4.613-11.137c-2.954-2.954-6.96-4.613-11.137-4.613zM2.219 16c0-1.81 0.356-3.602 1.049-5.274s1.708-3.191 2.987-4.471c1.28-1.28 2.799-2.295 4.471-2.987s3.464-1.049 5.274-1.049c1.81 0 3.602 0.356 5.274 1.049s3.191 1.708 4.471 2.987 2.295 2.799 2.987 4.471c0.693 1.672 1.049 3.464 1.049 5.274 0 3.655-1.452 7.16-4.036 9.745s-6.090 4.036-9.745 4.036c-3.655 0-7.16-1.452-9.745-4.036s-4.036-6.090-4.036-9.745z"></path>
</symbol>
<symbol id="icon-Vector-21" viewBox="0 0 34 32">
<path d="M30.016 0.25h-26.25c-0.696 0-1.364 0.277-1.856 0.769s-0.769 1.16-0.769 1.856v26.25c0 0.696 0.277 1.364 0.769 1.856s1.16 0.769 1.856 0.769h26.25c0.696 0 1.364-0.276 1.856-0.769s0.769-1.16 0.769-1.856v-26.25c0-0.696-0.276-1.364-0.769-1.856s-1.16-0.769-1.856-0.769zM14.266 23.219l-6.563-6.506 2.087-2.025 4.476 4.392 9.724-9.642 2.088 2.070-11.812 11.711z"></path>
</symbol>
<symbol id="icon-unvisible" viewBox="0 0 33 32">
<path d="M23.501 20.799c0.092-0.454 0.14-0.925 0.14-1.407 0-3.89-3.153-7.043-7.043-7.043-0.482 0-0.952 0.048-1.407 0.14l1.625 1.625c2.744 0.111 4.948 2.316 5.060 5.060l1.625 1.625zM12.008 16.777c-0.44 0.771-0.692 1.664-0.692 2.616 0 2.917 2.365 5.282 5.282 5.282 0.952 0 1.845-0.252 2.616-0.692l1.279 1.279c-1.115 0.742-2.455 1.174-3.895 1.174-3.89 0-7.043-3.153-7.043-7.043 0-1.44 0.432-2.779 1.174-3.895l1.279 1.279z"></path>
<path d="M23.913 28.681l-1.293-1.293c-1.873 1.020-3.91 1.689-6.021 1.689-2.944 0-5.744-1.303-8.158-3.040-2.407-1.732-4.356-3.842-5.58-5.328-0.747-0.907-0.824-1.064-0.824-1.317s0.077-0.41 0.824-1.317c1.178-1.431 3.029-3.44 5.314-5.133l-1.258-1.258c-2.344 1.775-4.222 3.822-5.415 5.271l-0.104 0.125c-0.582 0.703-1.123 1.356-1.123 2.311s0.54 1.608 1.123 2.311l0.104 0.125c1.277 1.55 3.335 3.784 5.911 5.638 2.569 1.848 5.728 3.371 9.186 3.371 2.659 0 5.141-0.9 7.314-2.157zM11.651 8.949c1.549-0.617 3.211-1.001 4.948-1.001 3.458 0 6.617 1.523 9.186 3.371 2.576 1.853 4.635 4.088 5.911 5.637l0.104 0.125c0.582 0.703 1.123 1.356 1.123 2.311s-0.541 1.608-1.123 2.311l-0.104 0.125c-0.846 1.027-2.036 2.355-3.492 3.673l-1.247-1.247c1.401-1.261 2.555-2.545 3.379-3.546 0.747-0.907 0.824-1.064 0.824-1.317s-0.077-0.41-0.824-1.317c-1.224-1.486-3.173-3.596-5.581-5.328-2.414-1.737-5.214-3.040-8.157-3.040-1.223 0-2.421 0.225-3.576 0.612l-1.372-1.372z"></path>
<path d="M31.823 30.58l-28.173-28.173 1.245-1.245 28.173 28.173-1.245 1.245z"></path>
</symbol>
<symbol id="icon-visible" viewBox="0 0 33 32">
<path d="M16.67 21.28c-2.916 0-5.28-2.364-5.28-5.28s2.364-5.28 5.28-5.28c2.916 0 5.28 2.364 5.28 5.28s-2.364 5.28-5.28 5.28zM16.67 23.040c3.888 0 7.040-3.152 7.040-7.040s-3.152-7.040-7.040-7.040c-3.888 0-7.040 3.152-7.040 7.040s3.152 7.040 7.040 7.040z"></path>
<path d="M8.518 9.359c-2.406 1.731-4.354 3.84-5.578 5.325-0.747 0.907-0.824 1.064-0.824 1.316s0.077 0.409 0.824 1.316c1.223 1.485 3.172 3.594 5.578 5.325 2.413 1.736 5.211 3.039 8.154 3.039s5.741-1.303 8.154-3.039c2.406-1.731 4.354-3.84 5.578-5.325 0.747-0.907 0.824-1.064 0.824-1.316s-0.077-0.409-0.824-1.316c-1.224-1.485-3.172-3.594-5.578-5.325-2.413-1.736-5.211-3.038-8.154-3.038s-5.741 1.303-8.154 3.038zM7.49 7.93c2.568-1.847 5.725-3.37 9.182-3.37s6.614 1.522 9.182 3.37c2.575 1.852 4.632 4.086 5.908 5.635 0.035 0.042 0.069 0.084 0.104 0.125 0.582 0.703 1.122 1.356 1.122 2.31s-0.54 1.607-1.122 2.31c-0.035 0.042-0.069 0.083-0.104 0.125-1.276 1.549-3.334 3.782-5.908 5.635-2.568 1.847-5.725 3.37-9.182 3.37s-6.614-1.522-9.182-3.37c-2.575-1.853-4.632-4.086-5.908-5.635-0.035-0.042-0.069-0.084-0.103-0.125-0.582-0.703-1.122-1.356-1.122-2.31s0.54-1.607 1.122-2.31c0.034-0.042 0.069-0.083 0.103-0.125 1.276-1.549 3.334-3.782 5.908-5.635z"></path>
</symbol>
<symbol id="icon-tape" viewBox="0 0 32 32">
<path d="M10.063 4.859c-1.467 0.14-2.186 0.248-3.119 0.466-3.51 0.819-5.97 2.553-6.485 4.569-0.098 0.385-0.104 0.698-0.107 6.178-0.003 6.331-0.012 6.134 0.324 6.813 0.313 0.631 0.736 1.148 1.318 1.612 1.791 1.43 4.497 2.329 7.824 2.601 0.43 0.034 4.177 0.055 10.095 0.055 10.269 0 9.995 0.007 10.623-0.31 0.563-0.285 0.898-0.786 1.033-1.537 0.109-0.612 0.11-7.564 0.002-8.174-0.164-0.922-0.567-1.41-1.427-1.725-0.257-0.095-0.604-0.103-5.717-0.128l-5.445-0.028 0.41-0.212c2.634-1.362 3.793-3.372 3.117-5.405-0.657-1.974-3.28-3.665-6.824-4.397-1.347-0.279-2.165-0.36-3.844-0.379-0.244-0.005-0.532-0.008-0.821-0.008-0.336 0-0.671 0.004-1.006 0.012l0.050-0.001zM13.947 6.438c2.337 0.33 4.104 0.912 5.509 1.817 0.582 0.376 1.295 1.109 1.518 1.559 0.452 0.921 0.264 1.791-0.576 2.671-1.401 1.467-4.262 2.498-7.524 2.713l-0.58 0.037-0.030-1.935c-0.031-2.019-0.060-2.302-0.291-2.826-0.157-0.355-0.615-0.821-0.98-0.995-0.436-0.207-1.092-0.216-1.888-0.027-1.298 0.309-2.226 0.707-3.017 1.294-0.45 0.319-0.808 0.74-1.044 1.23l-0.008 0.019c-0.224 0.476-0.266 1.218-0.096 1.722 0.060 0.179 0.104 0.331 0.098 0.337-0.027 0.025-1.098-0.543-1.458-0.773-0.621-0.397-1.25-1.059-1.51-1.585-0.203-0.41-0.215-0.464-0.215-0.934 0-0.464 0.013-0.525 0.201-0.904 0.554-1.116 1.964-2.082 4.023-2.758 1.182-0.386 2.322-0.603 4.036-0.764 0.537-0.051 3.26 0.021 3.83 0.101zM10.498 10.92c0.228 0.23 0.255 0.455 0.287 2.434l0.031 1.879-0.378-0.036c-1.468-0.142-2.908-0.661-3.611-1.304-0.7-0.639-0.691-1.203 0.031-1.856 0.516-0.466 1.28-0.804 2.683-1.185 0.106-0.028 0.334-0.054 0.509-0.057 0.264-0.003 0.339 0.016 0.448 0.125zM2.735 14.498c1.516 1.016 3.656 1.732 6.151 2.061 1.341 0.175 2.468 0.195 11.518 0.198 6.864 0.005 9.135 0.021 9.298 0.070 0.142 0.037 0.259 0.13 0.327 0.253l0.001 0.003c0.11 0.188 0.112 0.261 0.112 4.075 0 4.333 0.009 4.235-0.348 4.396-0.17 0.078-0.477 0.094-2.155 0.107l-1.956 0.018v-1.21c0-1.341-0.022-1.447-0.345-1.644-0.366-0.222-0.864-0.084-1.042 0.291-0.076 0.163-0.091 0.385-0.091 1.374v1.182h-4.487v-1.216c0-1.112-0.009-1.234-0.107-1.394-0.138-0.208-0.371-0.343-0.636-0.343-0.146 0-0.282 0.041-0.398 0.112l0.003-0.002c-0.306 0.186-0.339 0.345-0.339 1.665v1.177h-4.486v-1.177c0-1.321-0.033-1.479-0.339-1.665-0.113-0.069-0.249-0.11-0.395-0.11-0.265 0-0.498 0.135-0.634 0.34l-0.002 0.003c-0.098 0.16-0.107 0.282-0.107 1.394v1.216h-0.889c-1.177-0.002-2.802-0.146-3.474-0.31l-0.124-0.030v-1.403c0-1.303-0.007-1.415-0.109-1.582-0.133-0.218-0.412-0.395-0.621-0.395-0.264 0.013-0.494 0.149-0.635 0.351l-0.002 0.003c-0.103 0.166-0.11 0.272-0.11 1.422v1.241l-0.178-0.037c-0.297-0.064-1.298-0.452-1.786-0.694-1.282-0.633-2.161-1.447-2.432-2.255-0.081-0.242-0.091-0.688-0.091-4.23v-3.962l0.288 0.242c0.158 0.133 0.437 0.343 0.619 0.466z"></path>
</symbol>
<symbol id="icon-delivery" viewBox="0 0 32 32">
<path d="M0.914 3.839c-0.233 0.142-0.493 0.451-0.55 0.654-0.025 0.088-0.045 4.543-0.045 9.901v9.741l0.179 0.29c0.312 0.502 0.433 0.535 2.007 0.556l1.351 0.018 0.073 0.251c0.211 0.711 0.853 1.608 1.504 2.101 0.747 0.575 1.697 0.922 2.727 0.922 0.905 0 1.748-0.268 2.453-0.728l-0.017 0.011c0.753-0.476 1.547-1.499 1.816-2.339l0.072-0.224h7.031l0.072 0.224c0.269 0.839 1.063 1.862 1.816 2.339 0.687 0.45 1.529 0.718 2.433 0.718 0.702 0 1.366-0.161 1.957-0.449l-0.027 0.012c1.059-0.502 1.998-1.558 2.303-2.587l0.073-0.251 1.352-0.018c1.574-0.021 1.695-0.054 2.007-0.556l0.179-0.29v-8.372l-1.753-4.077c-0.965-2.243-1.808-4.146-1.873-4.228-0.098-0.108-0.214-0.198-0.343-0.266l-0.007-0.003c-0.215-0.111-0.358-0.118-2.055-0.118h-1.825v-1.256c0-1.369-0.027-1.513-0.336-1.801-0.097-0.090-0.209-0.166-0.333-0.221l-0.008-0.003c-0.116-0.045-3.523-0.064-11.111-0.064-10.552 0-10.948 0.004-11.124 0.112zM21.615 12.971v7.034l-0.281 0.178c-0.671 0.423-1.338 1.269-1.664 2.107l-0.169 0.433h-7.017l-0.072-0.224c-0.311-0.971-1.216-2.041-2.118-2.506-0.802-0.412-1.254-0.524-2.121-0.523-0.875 0.002-1.29 0.094-2.006 0.448-1.048 0.517-1.931 1.523-2.239 2.551l-0.076 0.254h-1.295v-16.786h19.056v7.034zM27.653 12.088c0.654 1.528 1.19 2.785 1.19 2.793 0 0.009-1.129 0.016-2.509 0.016h-2.509v-5.618l2.637 0.033 1.19 2.776zM29.44 19.945v2.778h-1.292l-0.106-0.352c-0.166-0.559-0.499-1.068-1.081-1.655-0.458-0.464-0.621-0.585-1.105-0.821-0.615-0.3-1.062-0.435-1.653-0.494l-0.378-0.039v-2.194h5.615v2.778zM9.175 21.882c0.453 0.243 0.808 0.615 1.021 1.069 0.136 0.293 0.158 0.417 0.158 0.907s-0.022 0.614-0.158 0.907c-0.355 0.787-1.133 1.325-2.037 1.325-0.354 0-0.688-0.082-0.985-0.229l0.013 0.006c-1.486-0.681-1.683-2.842-0.345-3.802 0.472-0.339 0.753-0.42 1.392-0.4 0.512 0.016 0.605 0.037 0.941 0.218zM24.808 21.852c1.659 0.814 1.661 3.256 0.003 4.014-1.141 0.523-2.421 0.073-2.97-1.041-0.179-0.364-0.196-0.445-0.196-0.966 0-0.49 0.022-0.615 0.157-0.905 0.27-0.573 0.739-0.998 1.357-1.226 0.137-0.051 0.415-0.075 0.756-0.066 0.454 0.012 0.593 0.042 0.893 0.19z"></path>
</symbol>
<symbol id="icon-location" viewBox="0 0 32 32">
<path d="M14.688 0.068c-2.691 0.312-5.081 1.412-6.983 3.059l0.016-0.014c-4.95 4.329-5.751 11.767-1.827 16.972 0.373 0.495 9.446 11.265 10.034 11.912 0.061 0.066 1.152-1.182 4.996-5.717 2.706-3.19 5.112-6.072 5.349-6.403 1.14-1.585 1.932-3.495 2.223-5.565l0.008-0.067c0.159-1.128 0.098-2.983-0.135-4.089-0.505-2.408-1.611-4.533-3.236-6.227-1.006-1.067-2.197-1.948-3.522-2.595l-0.072-0.032c-1.617-0.822-3.527-1.303-5.549-1.303-0.459 0-0.911 0.025-1.357 0.073l0.055-0.005zM17.004 8.131c0.255 0.054 0.723 0.223 1.040 0.377 0.757 0.367 1.62 1.201 1.996 1.934 1.49 2.883-0.348 6.354-3.547 6.702-1.417 0.154-2.667-0.299-3.714-1.346-0.471-0.473-0.637-0.696-0.863-1.162-0.303-0.595-0.48-1.298-0.48-2.042 0-1.586 0.806-2.983 2.031-3.805l0.017-0.010c0.975-0.654 2.321-0.902 3.52-0.647z"></path>
</symbol>
<symbol id="icon-edit" viewBox="0 0 32 32">
<path d="M22.812 0.401c-0.723 0.258-1.397 0.707-2.338 1.561-1.469 1.33-17.474 17.422-17.773 17.87-0.397 0.592-0.524 1.004-1.502 4.91-0.967 3.858-1.059 4.46-0.812 5.251 0.227 0.734 0.943 1.445 1.657 1.653 0.788 0.229 1.413 0.133 5.061-0.779 4.248-1.061 4.572-1.166 5.283-1.707 0.882-0.668 18.068-17.933 18.509-18.592 0.725-1.085 0.834-1.417 0.834-2.548 0-0.904-0.024-1.052-0.231-1.5-0.439-0.934-0.982-1.602-2.688-3.31-1.712-1.709-2.384-2.255-3.31-2.683-0.664-0.308-2.004-0.369-2.69-0.124zM22.932 9.088l3.253 3.253-7.619 7.611c-4.192 4.185-7.702 7.652-7.803 7.702-0.303 0.153-7.517 1.934-7.831 1.934-0.367 0-0.5-0.133-0.5-0.5 0-0.371 1.795-7.552 1.978-7.916 0.122-0.242 15.106-15.337 15.224-15.337 0.026 0 1.511 1.465 3.299 3.253z"></path>
</symbol>
<symbol id="icon-box" viewBox="0 0 32 32">
<path d="M15.176 0.773c-0.746 0.11-1.421 0.328-3.182 1.025-1.101 0.435-2.024 0.81-2.050 0.835-0.028 0.023 3.261 1.366 7.308 2.985l7.355 2.943 2.93-1.168c1.611-0.641 2.953-1.189 2.984-1.217 0.031-0.026-0.072-0.123-0.23-0.215-0.476-0.276-12.102-4.895-12.676-5.036-0.522-0.128-1.983-0.22-2.438-0.153zM4.416 4.824c-2.559 1.035-3.048 1.26-2.939 1.355-1.999-0.629 0.406 0.361 2.818 1.338l4.468 1.598 7.234 2.89 2.961-1.184c1.842-0.736 2.925-1.202 2.869-1.234-0.269-0.151-14.576-5.835-14.671-5.831-0.064 0.003-1.296 0.484-2.739 1.068zM0.282 8.098c-0.021 0.118-0.030 3.786-0.020 8.152l0.020 7.939 0.153 0.377c0.225 0.554 0.53 0.963 0.974 1.302 0.344 0.262 1.168 0.61 6.332 2.675 5.574 2.228 6.41 2.544 7.026 2.659l0.246 0.046v-17.512l-7.316-2.926c7.394 2.57 4.969 1.583 2.541 0.602l-9.886-3.528c-0.016 0-0.048 0.097-0.069 0.213zM24.28 10.815l-7.299 2.923v8.753c0 4.814 0.023 8.753 0.049 8.753 0.028 0 0.29-0.059 0.584-0.13 0.633-0.151 12.229-4.77 12.742-5.075 0.61-0.361 1.048-0.958 1.283-1.745 0.093-0.32 0.105-1.179 0.103-8.234 0-4.334-0.018-7.944-0.039-8.026s-0.059-0.146-0.082-0.144c-0.023 0.002-3.327 1.319-7.34 2.926z"></path>
</symbol>
<symbol id="icon-mail" viewBox="0 0 32 32">
<path d="M4.385 3.308c-1.585 0.268-3.075 1.457-3.689 2.946-0.237 0.577-0.373 1.204-0.286 1.333 0.111 0.168 15.41 9.14 15.585 9.14s15.473-8.972 15.585-9.14c0.085-0.126-0.049-0.76-0.279-1.325-0.518-1.274-1.626-2.289-3.036-2.781l-0.603-0.211-11.47-0.010c-6.309-0.005-11.621 0.016-11.805 0.047zM0.308 17.089c0 6.167 0.015 7.268 0.098 7.678 0.396 1.951 1.906 3.463 3.824 3.857l0.032 0.005c0.701 0.147 22.746 0.147 23.462-0.002 0.991-0.197 1.847-0.675 2.507-1.347l0.001-0.001c0.709-0.711 1.144-1.518 1.348-2.508 0.144-0.699 0.152-14.902 0.008-14.846-0.051 0.020-3.5 2.044-7.663 4.498-7.55 4.451-7.573 4.464-7.931 4.464s-0.387-0.016-7.93-4.464c3.437 1.802 0.934 0.312-1.574-1.17l-6.089-3.328c-0.080-0.029-0.093 0.989-0.093 7.163z"></path>
</symbol>
<symbol id="icon-bag" viewBox="0 0 32 32">
<path d="M15.316 0.016c-0.907 0.127-1.234 0.194-1.763 0.362-1.567 0.498-3.067 1.57-3.99 2.854-0.929 1.29-1.418 2.625-1.557 4.253l-0.042 0.487-1.548 0.038c-0.851 0.022-1.793 0.082-2.093 0.133-1.634 0.276-2.311 0.957-2.618 2.636-0.093 0.511-0.106 1.304-0.106 6.954 0 7.294 0.037 8.081 0.453 9.76 0.192 0.776 0.409 1.298 0.771 1.857 0.397 0.615 0.742 0.966 1.335 1.359 1.069 0.708 2.126 0.997 4.395 1.202 1.34 0.12 13.464 0.119 14.87-0.002 2.216-0.191 3.333-0.495 4.395-1.2 1.202-0.796 1.878-1.94 2.23-3.778 0.306-1.596 0.377-3.727 0.341-10.322-0.024-4.637-0.042-5.453-0.131-5.906-0.325-1.63-0.993-2.287-2.605-2.559-0.3-0.051-1.242-0.111-2.093-0.133l-1.548-0.038-0.042-0.487c-0.050-0.694-0.18-1.34-0.382-1.953l0.016 0.057c-0.846-2.764-3.248-4.908-6.103-5.451-0.521-0.098-1.831-0.171-2.187-0.122zM17.367 3.376c1.87 0.588 3.232 2.243 3.403 4.131l0.043 0.484h-9.651l0.040-0.468c0.175-2.061 1.785-3.83 3.894-4.273 0.493-0.104 1.764-0.034 2.271 0.127zM11.984 14.621c0.34 0.199 0.644 0.588 0.74 0.945 0.043 0.157 0.061 0.973 0.048 2.192l-0.019 1.939-0.194 0.316c-0.284 0.473-0.794 0.785-1.376 0.785s-1.093-0.312-1.372-0.778l-0.004-0.007-0.194-0.316v-4.176l0.178-0.303c0.264-0.482 0.767-0.803 1.345-0.803 0.055 0 0.109 0.003 0.163 0.009l-0.007-0.001c0.256 0.007 0.494 0.079 0.699 0.201l-0.007-0.004zM21.598 14.621c0.34 0.199 0.644 0.588 0.74 0.945 0.043 0.157 0.061 0.973 0.048 2.192l-0.019 1.939-0.194 0.316c-0.284 0.473-0.794 0.785-1.376 0.785s-1.093-0.312-1.372-0.778l-0.004-0.007-0.194-0.316v-4.176l0.178-0.303c0.264-0.482 0.767-0.803 1.345-0.803 0.055 0 0.109 0.003 0.163 0.009l-0.007-0.001c0.256 0.007 0.494 0.079 0.699 0.201l-0.007-0.004z"></path>
</symbol>
<symbol id="icon-blog" viewBox="0 0 32 32">
<path d="M14.849 0.28c-2.3 0.238-3.937 0.684-5.742 1.565-4.761 2.354-8.117 6.916-8.748 12.31l-0.007 0.074c-0.55 4.709 1.131 9.507 4.52 12.896 2.512 2.507 5.863 4.175 9.595 4.548l0.066 0.005c0.555 0.056 2.654 0.072 6.757 0.052 6.453-0.030 6.304-0.021 7.296-0.424 1.159-0.471 2.26-1.572 2.731-2.731 0.403-0.993 0.394-0.844 0.424-7.296 0.019-4.103 0.003-6.202-0.052-6.757-0.546-5.586-3.938-10.27-8.689-12.628l-0.092-0.041c-1.332-0.682-2.879-1.186-4.511-1.429l-0.083-0.010c-0.716-0.109-2.902-0.193-3.466-0.135zM21.851 12.608c0.646 0.221 1.155 0.942 1.155 1.635 0 0.424-0.208 0.912-0.523 1.227-0.544 0.546-0.275 0.523-6.479 0.523s-5.934 0.023-6.479-0.523c-0.317-0.313-0.514-0.747-0.514-1.227s0.197-0.916 0.515-1.229l0-0c0.534-0.534 0.24-0.509 6.447-0.516 4.979-0.005 5.57 0.007 5.877 0.11zM21.851 19.61c0.646 0.221 1.155 0.942 1.155 1.635 0 0.424-0.208 0.912-0.523 1.227-0.515 0.515-0.578 0.523-3.853 0.523s-3.338-0.009-3.853-0.523c-0.317-0.313-0.514-0.747-0.514-1.227s0.197-0.916 0.515-1.229l0-0c0.506-0.506 0.536-0.509 3.822-0.516 2.535-0.005 2.955 0.011 3.251 0.11z"></path>
</symbol>
<symbol id="icon-info" viewBox="0 0 32 32">
<path d="M14.848 0.28c-2.3 0.238-3.936 0.684-5.741 1.565-4.76 2.354-8.116 6.914-8.746 12.307l-0.007 0.074c-0.688 5.881 2.065 11.686 7.107 14.996 1.416 0.928 3.511 1.801 5.202 2.165 0.996 0.224 2.14 0.352 3.315 0.352 6.192 0 11.55-3.569 14.13-8.761l0.041-0.092c1.009-2.012 1.6-4.385 1.6-6.896s-0.591-4.883-1.641-6.986l0.041 0.091c-1.562-3.173-4.070-5.68-7.153-7.2l-0.091-0.041c-1.332-0.682-2.878-1.186-4.51-1.429l-0.083-0.010c-0.716-0.108-2.902-0.193-3.465-0.135zM16.598 7.354c0.646 0.221 1.155 0.942 1.155 1.635 0 0.922-0.828 1.75-1.75 1.75-0.424 0-0.912-0.208-1.227-0.523-0.317-0.313-0.514-0.747-0.514-1.227s0.197-0.916 0.515-1.228l0-0c0.311-0.317 0.743-0.514 1.222-0.514 0.215 0 0.42 0.040 0.61 0.112l-0.012-0.004zM17.753 19.49v5.251h-3.5v-10.501h3.5v5.251z"></path>
</symbol>
<symbol id="icon-news" viewBox="0 0 32 32">
<path d="M7.019 0.321c-1.021 0.078-1.681 0.234-2.225 0.523-0.75 0.399-1.256 1.089-1.503 2.039-0.256 0.989-0.275 2.028-0.249 13.76 0.026 11.441 0.026 11.548 0.182 12.226 0.375 1.631 1.19 2.407 2.88 2.747 0.622 0.124 1.301 0.134 9.91 0.134s9.288-0.009 9.91-0.134c1.748-0.351 2.578-1.184 2.906-2.923 0.13-0.692 0.137-1.349 0.137-12.68s-0.007-11.988-0.137-12.68c-0.304-1.613-1.097-2.503-2.518-2.832-0.41-0.080-0.912-0.146-1.422-0.183l-0.044-0.003c-1.19-0.091-16.639-0.085-17.826 0.006zM22.212 7.785c0.685 0.234 1.225 0.998 1.225 1.733 0 0.449-0.221 0.967-0.555 1.301-0.577 0.579-0.291 0.555-6.868 0.555s-6.291 0.024-6.868-0.555c-0.336-0.331-0.545-0.792-0.545-1.301s0.209-0.971 0.546-1.302l0-0c0.566-0.566 0.254-0.54 6.835-0.547 5.278-0.006 5.905 0.007 6.23 0.117zM22.212 15.208c0.685 0.234 1.225 0.998 1.225 1.733 0 0.449-0.221 0.967-0.555 1.301-0.577 0.579-0.291 0.555-6.868 0.555s-6.291 0.024-6.868-0.555c-0.336-0.331-0.545-0.792-0.545-1.301s0.209-0.971 0.546-1.302l0-0c0.566-0.566 0.254-0.54 6.835-0.547 5.278-0.006 5.905 0.007 6.23 0.117zM18.5 22.631c0.685 0.234 1.225 0.998 1.225 1.733 0 0.449-0.221 0.967-0.555 1.301-0.56 0.56-0.509 0.555-5.012 0.555s-4.452 0.006-5.012-0.555c-0.336-0.331-0.545-0.792-0.545-1.301s0.209-0.971 0.546-1.302l0-0c0.549-0.549 0.464-0.54 4.979-0.547 3.552-0.006 4.055 0.009 4.374 0.117z"></path>
</symbol>
<symbol id="icon-phone" viewBox="0 0 32 32">
<path d="M5.691 0.295c-0.539 0.1-0.787 0.28-1.792 1.303-1.249 1.275-1.826 2.049-2.431 3.267-0.541 1.084-0.791 1.797-1.039 2.946-0.24 1.118-0.238 3.231 0.004 4.357 0.308 1.428 0.861 2.804 1.576 3.922 0.346 0.541 2.796 3.786 3.468 4.592 1.696 2.018 3.492 3.829 5.425 5.483l0.063 0.053c0.796 0.658 1.773 1.428 2.766 2.18l0.237 0.172c2.594 1.949 3.72 2.524 5.85 2.984 1.126 0.242 3.239 0.244 4.352 0.004 1.017-0.212 1.915-0.521 2.758-0.926l-0.072 0.031c1.37-0.645 2.223-1.283 3.644-2.726 0.95-0.963 1.044-1.084 1.162-1.489 0.055-0.161 0.087-0.346 0.087-0.539 0-0.063-0.003-0.126-0.010-0.188l0.001 0.008c-0.131-0.711-0.274-0.884-2.976-3.585-2.88-2.88-2.972-2.952-3.799-2.952-0.787 0-0.963 0.129-3.095 2.24-1.065 1.056-2.057 1.981-2.202 2.055-0.443 0.227-1.080 0.189-1.689-0.098-1.349-0.636-3.296-1.979-4.704-3.243-1.775-1.597-3.617-4.005-4.63-6.056-0.337-0.679-0.371-1.319-0.097-1.856 0.104-0.204 0.904-1.075 2.117-2.297 1.873-1.892 1.954-1.985 2.077-2.409 0.142-0.492 0.113-0.795-0.123-1.338-0.217-0.496-5.254-5.53-5.742-5.739-0.244-0.119-0.531-0.19-0.834-0.19-0.125 0-0.247 0.012-0.365 0.034l0.012-0.002z"></path>
</symbol>
<symbol id="icon-settings" viewBox="0 0 32 32">
<path d="M13.886 0.281c-0.491 0.125-0.958 0.554-1.093 1.002-0.038 0.131-0.129 0.764-0.2 1.404-0.169 1.508-0.246 1.776-0.622 2.152-0.317 0.317-0.607 0.432-1.085 0.434-0.423 0-0.803-0.218-1.866-1.074-1.112-0.896-1.316-1.008-1.83-1.008-0.642 0-0.838 0.142-2.429 1.751-1.543 1.56-1.593 1.634-1.578 2.313 0.009 0.44 0.161 0.704 1.016 1.765 0.857 1.063 1.074 1.443 1.074 1.866-0.002 0.469-0.112 0.746-0.431 1.074-0.379 0.39-0.639 0.469-2.119 0.633-0.628 0.069-1.262 0.158-1.407 0.197-0.331 0.087-0.737 0.428-0.92 0.771-0.137 0.256-0.14 0.312-0.14 2.439s0.003 2.183 0.14 2.439c0.175 0.328 0.574 0.674 0.887 0.768 0.131 0.038 0.764 0.129 1.404 0.2 1.53 0.17 1.779 0.243 2.155 0.633 0.319 0.328 0.429 0.607 0.431 1.074 0 0.423-0.216 0.798-1.074 1.863-0.855 1.063-1.006 1.327-1.016 1.768-0.016 0.686 0.025 0.745 1.644 2.371 1.611 1.615 1.729 1.702 2.354 1.704 0.499 0.002 0.734-0.128 1.839-1.019 0.517-0.415 1.084-0.827 1.259-0.915 0.582-0.29 1.212-0.185 1.693 0.281 0.377 0.364 0.453 0.626 0.622 2.145 0.071 0.64 0.162 1.273 0.2 1.404 0.095 0.312 0.44 0.712 0.768 0.887 0.256 0.137 0.312 0.14 2.439 0.14s2.183-0.003 2.439-0.14c0.328-0.175 0.674-0.574 0.768-0.887 0.038-0.131 0.129-0.764 0.2-1.404 0.169-1.519 0.244-1.781 0.622-2.145 0.481-0.465 1.111-0.571 1.693-0.281 0.175 0.088 0.741 0.5 1.259 0.915 1.111 0.894 1.339 1.021 1.85 1.021 0.603 0 0.83-0.166 2.417-1.772 1.533-1.552 1.585-1.626 1.57-2.305-0.009-0.442-0.161-0.705-1.016-1.768-0.858-1.065-1.074-1.44-1.074-1.863 0.002-0.467 0.112-0.746 0.431-1.074 0.375-0.39 0.625-0.462 2.155-0.633 0.64-0.071 1.273-0.162 1.404-0.2 0.312-0.095 0.712-0.44 0.887-0.768 0.137-0.256 0.14-0.312 0.14-2.439s-0.003-2.183-0.14-2.439c-0.183-0.344-0.588-0.685-0.92-0.771-0.369-0.073-0.85-0.143-1.336-0.191l-0.071-0.006c-1.48-0.164-1.74-0.243-2.119-0.633-0.319-0.328-0.429-0.606-0.431-1.074 0-0.423 0.218-0.803 1.074-1.866 0.855-1.062 1.006-1.325 1.016-1.765 0.016-0.678-0.035-0.752-1.578-2.313-1.592-1.609-1.787-1.751-2.429-1.751-0.514 0-0.718 0.112-1.83 1.008-0.517 0.415-1.084 0.827-1.259 0.915-0.194 0.1-0.423 0.159-0.666 0.159-0.676 0-1.245-0.455-1.42-1.075l-0.003-0.010c-0.088-0.406-0.168-0.918-0.22-1.437l-0.005-0.063c-0.054-0.552-0.125-1.032-0.216-1.504l0.016 0.1c-0.095-0.312-0.44-0.712-0.768-0.887-0.254-0.136-0.327-0.14-2.313-0.151-1.128-0.006-2.136 0.009-2.24 0.036zM17.511 9.879c1.154 0.309 2.147 0.889 2.943 1.669l-0.001-0.001c0.785 0.803 1.369 1.807 1.668 2.927l0.011 0.046c0.199 0.803 0.199 2.156 0 2.959-0.574 2.261-2.3 4.014-4.502 4.616l-0.045 0.010c-0.53 0.144-0.73 0.164-1.585 0.164s-1.055-0.021-1.585-0.164c-1.5-0.404-2.747-1.303-3.588-2.507l-0.014-0.021c-0.396-0.604-0.719-1.301-0.932-2.046l-0.013-0.054c-0.199-0.803-0.199-2.156 0-2.959 0.161-0.644 0.563-1.537 0.961-2.125 0.918-1.36 2.548-2.366 4.277-2.642 0.552-0.088 1.797-0.022 2.406 0.126z"></path>
</symbol>
<symbol id="icon-logout" viewBox="0 0 32 32">
<path d="M20.311 0.075c-1.125 0.127-2.082 0.269-6.872 1.021-4.644 0.729-5.408 0.863-6.047 1.060-1.233 0.381-1.816 0.999-2.105 2.234-0.097 0.413-0.105 1.327-0.105 11.618 0 10.326 0.008 11.203 0.107 11.622 0.294 1.261 0.903 1.88 2.232 2.265 0.704 0.203 1.468 0.336 6.448 1.115 6.228 0.976 6.319 0.987 7.92 0.99 1.242 0.003 1.405-0.009 1.856-0.139 1.552-0.447 2.402-1.485 2.781-3.385 0.207-1.046 0.232-1.654 0.263-6.265l0.029-4.656h-9.17l2.074 2.591c1.14 1.425 2.073 2.605 2.073 2.624 0 0.042-2.323 1.901-2.375 1.901-0.020 0-1.598-1.949-3.504-4.331l-3.467-4.331 3.467-4.332c1.906-2.382 3.484-4.332 3.504-4.332 0.051 0 2.375 1.859 2.375 1.901 0 0.019-0.933 1.199-2.073 2.624l-2.074 2.591h9.159v-3.963c0-4.151-0.054-5.637-0.249-6.779-0.339-1.992-1.247-3.139-2.819-3.56-0.639-0.17-2.302-0.212-3.43-0.084z"></path>
</symbol>
<symbol id="icon-document" viewBox="0 0 32 32">
<path d="M8.985 0.316c-1.575 0.087-2.514 0.274-3.256 0.649-1.352 0.681-1.994 1.823-2.236 3.979-0.124 1.108-0.124 21.011 0 22.119 0.317 2.825 1.358 4.035 3.846 4.473 1.147 0.202 2.582 0.233 9.397 0.205 6.792-0.028 7.105-0.038 8.249-0.273 1.843-0.378 2.93-1.465 3.308-3.308 0.235-1.148 0.246-1.446 0.271-8.419l0.027-6.881-4.936-0.024c-5.364-0.025-5.21-0.016-6.013-0.397-0.737-0.35-1.309-1.098-1.539-2.012-0.060-0.236-0.087-1.56-0.106-5.246l-0.025-4.931-3.067 0.009c-1.689 0.005-3.452 0.031-3.92 0.057zM19.131 4.901c0 3.534 0.019 4.67 0.076 4.726s1.196 0.076 4.736 0.076h4.659l-0.043-0.47c-0.058-0.64-0.183-1.027-0.474-1.462-0.284-0.424-3.704-3.928-5.624-5.761-1.475-1.408-1.739-1.58-2.593-1.694-0.163-0.026-0.374-0.049-0.587-0.065l-0.027-0.002c-0.118 0-0.121 0.101-0.121 4.651zM21.242 16.108c0.581 0.198 1.040 0.848 1.040 1.471 0 0.381-0.187 0.821-0.471 1.104-0.49 0.492-0.247 0.471-5.831 0.471s-5.341 0.020-5.831-0.471c-0.285-0.281-0.462-0.672-0.462-1.104s0.178-0.824 0.464-1.106l0-0c0.48-0.48 0.216-0.458 5.802-0.465 4.48-0.005 5.013 0.006 5.289 0.099zM18.091 22.41c0.581 0.198 1.040 0.848 1.040 1.471 0 0.381-0.187 0.821-0.471 1.104-0.476 0.476-0.432 0.471-4.255 0.471s-3.779 0.005-4.255-0.471c-0.285-0.281-0.462-0.672-0.462-1.104s0.178-0.824 0.464-1.106l0-0c0.466-0.466 0.394-0.458 4.227-0.465 3.015-0.005 3.442 0.008 3.713 0.099z"></path>
</symbol>
<symbol id="icon-search" viewBox="0 0 32 32">
<path d="M11.002 0.623c-2.282 0.422-3.862 1.114-5.637 2.465-2.391 1.821-4.010 4.417-4.679 7.496-0.154 0.708-0.177 1.040-0.177 2.488 0 1.884 0.107 2.582 0.634 4.121 1.292 3.669 4.13 6.507 7.711 7.772l0.088 0.027c1.54 0.527 2.237 0.634 4.121 0.634 1.448 0 1.781-0.023 2.488-0.177 2.537-0.55 4.623-1.68 6.417-3.472 1.792-1.794 2.922-3.88 3.472-6.417 0.154-0.708 0.177-1.040 0.177-2.488 0-1.884-0.107-2.582-0.634-4.121-1.293-3.668-4.13-6.506-7.711-7.772l-0.088-0.027c-1.417-0.484-2.183-0.61-3.888-0.643-1.234-0.023-1.66-0.002-2.294 0.115zM14.204 2.454c2.261 0.185 4.683 1.347 6.405 3.071 1.933 1.923 3.13 4.585 3.13 7.526 0 0.287-0.011 0.572-0.034 0.854l0.002-0.037c-0.403 5.269-4.579 9.445-9.812 9.846l-0.036 0.002c-5.892 0.432-11.012-3.975-11.442-9.848-0.43-5.863 3.952-10.985 9.789-11.446 0.717-0.056 0.995-0.051 1.996 0.031zM24.057 24.067c-0.235 0.235-0.264 0.311-0.264 0.678v0.416l6.339 6.339h0.416c0.367 0 0.443-0.029 0.678-0.264s0.264-0.311 0.264-0.678v-0.416l-6.339-6.339h-0.416c-0.367 0-0.443 0.029-0.678 0.264z"></path>
</symbol>
<symbol id="icon-share" viewBox="0 0 33 32">
<path d="M11.041 5.586c-3.073 3.073-5.586 5.629-5.586 5.677s0.316 0.404 0.703 0.787l0.7 0.698 8.76-8.758 0.046 16.864 0.286 0.286c0.248 0.246 0.347 0.286 0.721 0.286s0.475-0.040 0.721-0.286l0.288-0.286 0.046-16.776 8.672 8.672 0.745-0.745 0.745-0.747-11.261-11.259-5.586 5.586zM0.897 25.867c0 1.594 0.109 2.221 0.547 3.14 0.713 1.434 2.016 2.484 3.582 2.841l0.036 0.007c0.917 0.193 22.306 0.193 23.223 0 2.010-0.467 3.564-2.020 4.025-3.994l0.007-0.036c0.078-0.376 0.128-1.113 0.13-1.906v-1.294h-2.103v1.249c0 0.686-0.042 1.405-0.090 1.599-0.304 1.083-1.114 1.928-2.151 2.277l-0.023 0.007c-0.61 0.185-22.205 0.185-22.815 0-1.015-0.339-1.799-1.124-2.13-2.116l-0.007-0.024c-0.082-0.271-0.124-0.841-0.124-1.7l-0.002-1.294h-2.103v1.241z"></path>
</symbol>
<symbol id="icon-user-active" viewBox="0 0 32 32">
<path d="M15.122 0.020c-2.096 0.23-3.939 1.163-5.323 2.554l-0 0c-3.001 3.001-3.433 7.612-1.047 11.174 0.47 0.702 1.563 1.801 2.251 2.26 1.033 0.692 2.095 1.141 3.313 1.399 0.824 0.176 2.549 0.176 3.373 0 1.803-0.384 3.25-1.162 4.517-2.427 1.266-1.267 2.044-2.714 2.427-4.517 0.176-0.824 0.176-2.549 0-3.373-0.384-1.803-1.162-3.25-2.427-4.517-1.156-1.177-2.646-2.022-4.316-2.382l-0.057-0.010c-0.59-0.132-2.137-0.224-2.711-0.162zM14.347 21.177c-5.284 0.433-9.955 2.912-12.389 6.577-0.697 1.051-0.792 1.373-0.563 1.92 0.153 0.343 0.41 0.617 0.73 0.786l0.009 0.004c0.137 0.070 0.834 0.241 1.549 0.377 8.117 1.546 16.52 1.546 24.637 0 0.715-0.136 1.412-0.306 1.549-0.377 0.329-0.174 0.587-0.447 0.735-0.78l0.004-0.010c0.225-0.54 0.12-0.914-0.551-1.912-1.401-2.088-3.496-3.797-6.099-4.98-2.883-1.31-6.286-1.878-9.611-1.605z"></path>
</symbol>
<symbol id="icon-notification-active" viewBox="0 0 32 32">
<path d="M14.716 0.047c-4.067 0.508-7.422 3.123-8.972 6.701l-0.028 0.073c-0.517 1.235-0.696 2.125-1.024 5.052-0.537 4.793-0.764 5.5-2.913 9.101-1.239 2.074-1.488 2.54-1.656 3.106-0.070 0.209-0.111 0.451-0.111 0.701 0 0.273 0.048 0.534 0.136 0.776l-0.005-0.016c0.266 0.85 0.834 1.422 1.708 1.717 0.447 0.152 0.603 0.158 4.573 0.181l4.11 0.026 0.278 0.621c0.492 1.089 1.215 1.997 2.113 2.691l0.016 0.012c1.096 0.825 2.232 1.211 3.555 1.211 2.422 0 4.595-1.497 5.686-3.917l0.282-0.627h3.239c3.5 0 4.139-0.046 4.813-0.346 0.953-0.425 1.631-1.673 1.442-2.659-0.143-0.753-0.284-1.039-1.611-3.261-0.201-0.3-0.634-1.030-1.056-1.767l-0.248-0.469c-0.696-1.277-1.233-2.998-1.455-4.661l-0.123-0.922-0.191 0.042c-0.936 0.214-1.173 0.258-1.38 0.262-0.132 0-0.238 0.033-0.238 0.073 0 0.038 0.051 0.442 0.115 0.896 0.222 1.589 0.828 3.562 1.515 4.931 0.121 0.24 0.733 1.295 1.358 2.345 1.261 2.111 1.48 2.536 1.48 2.86 0.002 0.357-0.242 0.68-0.563 0.748-0.154 0.033-1.862 0.053-3.796 0.046l-3.939-0.015-15.19 0.015c-3.104 0.009-4.154-0.009-4.306-0.077-0.224-0.101-0.495-0.491-0.495-0.716 0-0.251 0.376-0.956 1.578-2.968 1.237-2.065 1.706-3.020 2.162-4.388 0.414-1.242 0.614-2.365 0.947-5.323 0.319-2.844 0.445-3.507 0.852-4.491 1.301-3.113 4.152-5.343 7.562-5.736l0.043-0.004c1.153-0.134 2.824 0.020 3.729 0.344l0.313 0.112 0.22-0.279c0.121-0.152 0.412-0.482 0.647-0.729 0.255-0.273 0.394-0.473 0.346-0.502-0.216-0.134-1.438-0.495-2.125-0.628-0.887-0.174-2.527-0.242-3.395-0.141zM23.908 1.881c-0.883 0.158-2.074 0.836-2.604 1.484-0.399 0.483-0.72 1.047-0.934 1.662l-0.012 0.038c-0.242 0.771-0.224 1.999 0.038 2.736 0.264 0.742 0.599 1.283 1.121 1.805 0.522 0.52 1.061 0.857 1.805 1.121 0.465 0.167 0.654 0.192 1.416 0.192s0.951-0.026 1.416-0.192c0.744-0.264 1.283-0.601 1.805-1.121 0.522-0.524 0.859-1.065 1.119-1.805 0.163-0.46 0.191-0.661 0.192-1.416 0.002-0.766-0.022-0.949-0.191-1.416-0.661-1.856-2.215-3.040-4.102-3.126-0.093-0.005-0.202-0.008-0.312-0.008-0.268 0-0.532 0.017-0.791 0.049l0.031-0.003zM20.268 27.813c-0.366 0.672-1.079 1.413-1.757 1.827-0.575 0.35-1.271 0.558-2.015 0.558s-1.44-0.207-2.033-0.567l0.017 0.010c-0.728-0.464-1.32-1.079-1.744-1.804l-0.013-0.025-0.194-0.355h7.934l-0.194 0.357z"></path>
</symbol>
<symbol id="icon-close" viewBox="0 0 33 32">
<path d="M1.837 0.355c-0.543 0.228-0.917 0.755-0.917 1.37 0 0.095 0.009 0.189 0.026 0.279l-0.001-0.009c0.063 0.336 0.917 1.231 6.876 7.2l6.806 6.816-6.806 6.816c-5.959 5.969-6.814 6.864-6.876 7.2-0.018 0.085-0.028 0.184-0.028 0.284 0 0.795 0.644 1.439 1.439 1.439 0.092 0 0.181-0.009 0.268-0.025l-0.009 0.001c0.391-0.063 0.928-0.572 7.24-6.871l6.814-6.804 6.816 6.804c6.31 6.3 6.846 6.809 7.237 6.871 0.752 0.12 1.429-0.296 1.617-0.993 0.233-0.87 0.499-0.564-6.829-7.907l-6.801-6.816 6.804-6.816c7.338-7.353 7.072-7.047 6.826-7.904-0.178-0.6-0.725-1.031-1.372-1.031-0.1 0-0.197 0.010-0.291 0.030l0.009-0.002c-0.336 0.063-1.231 0.915-7.2 6.876l-6.816 6.806-6.764-6.756c-3.745-3.743-6.894-6.806-7.057-6.866-0.147-0.062-0.317-0.098-0.496-0.098-0.186 0-0.363 0.039-0.523 0.109l0.008-0.003z"></path>
</symbol>
<symbol id="icon-line" viewBox="0 0 33 32">
<path d="M1.255 15.129v2.114h29.816v-4.225h-29.816v2.111z"></path>
</symbol>
<symbol id="icon-product-menu" viewBox="0 0 32 32">
<path d="M1.024 0.406c-0.17 0.088-0.406 0.28-0.525 0.429l-0.214 0.268-0.021 5.542c-0.014 3.729 0.003 5.623 0.052 5.794 0.096 0.338 0.327 0.611 0.63 0.76l0.007 0.003c0.262 0.135 0.436 0.138 5.834 0.138 3.761 0 5.626-0.024 5.759-0.075 0.307-0.138 0.549-0.374 0.693-0.667l0.004-0.008c0.079-0.184 0.096-1.222 0.096-5.794 0-5.451-0.003-5.577-0.142-5.848-0.111-0.188-0.256-0.345-0.428-0.466l-0.005-0.003-0.29-0.192-11.14-0.037-0.312 0.158zM19.432 0.36c-0.287 0.11-0.514 0.325-0.636 0.597l-0.003 0.007c-0.128 0.249-0.133 0.502-0.133 5.831 0 4.573 0.017 5.61 0.096 5.794 0.147 0.301 0.39 0.537 0.688 0.672l0.009 0.004c0.133 0.051 1.998 0.075 5.759 0.075 5.444 0 5.57-0.003 5.841-0.142 0.188-0.111 0.345-0.256 0.466-0.428l0.003-0.005 0.192-0.29 0.021-5.5c0.014-3.789-0.002-5.581-0.054-5.759-0.121-0.372-0.385-0.669-0.725-0.831l-0.008-0.004c-0.268-0.121-0.595-0.128-5.778-0.128-4.737 0.002-5.528 0.016-5.738 0.107zM11.643 6.813l-0.018 4.812-9.625 0.037v-9.662h9.662l-0.019 4.812zM30 6.83v4.832l-9.625-0.037-0.017-4.812-0.019-4.812h9.662v4.83zM0.985 18.775c-0.292 0.136-0.517 0.377-0.627 0.674l-0.003 0.008c-0.096 0.252-0.107 0.954-0.089 5.852l0.019 5.565 0.163 0.227c0.089 0.126 0.275 0.315 0.415 0.42l0.252 0.192 5.535 0.021c3.726 0.014 5.617-0.003 5.789-0.052 0.338-0.096 0.611-0.327 0.76-0.63l0.003-0.007c0.135-0.262 0.138-0.436 0.138-5.841 0-4.573-0.018-5.61-0.096-5.794-0.147-0.301-0.39-0.537-0.688-0.672l-0.009-0.004c-0.133-0.051-1.997-0.073-5.775-0.072-4.947 0.002-5.602 0.014-5.787 0.112zM19.395 18.76c-0.293 0.151-0.522 0.391-0.656 0.684l-0.004 0.009c-0.051 0.133-0.075 1.998-0.075 5.759 0 5.322 0.005 5.575 0.133 5.824 0.126 0.284 0.359 0.501 0.647 0.603l0.008 0.002c0.226 0.095 0.962 0.108 5.738 0.107 5.164-0.002 5.495-0.009 5.763-0.129 0.348-0.166 0.612-0.463 0.73-0.825l0.003-0.010c0.051-0.178 0.068-1.981 0.054-5.759l-0.021-5.5-0.192-0.291c-0.124-0.176-0.281-0.321-0.462-0.428l-0.007-0.004c-0.271-0.138-0.395-0.142-5.862-0.138-4.511 0.002-5.626 0.019-5.796 0.096zM11.643 25.187l0.019 4.812h-9.662v-9.662l9.625 0.037 0.018 4.812zM30 25.17v4.83h-9.66v-4.783c0-2.632 0.021-4.806 0.047-4.83 0.024-0.026 2.198-0.047 4.83-0.047h4.783v4.83z"></path>
</symbol>
<symbol id="icon-notification" viewBox="0 0 32 32">
<path d="M14.14 0.14c-4.489 0.798-7.98 4.279-8.785 8.697l-0.010 0.066c-0.059 0.333-0.219 1.616-0.358 2.85-0.34 3.028-0.401 3.372-0.832 4.703-0.333 1.024-0.787 1.933-1.912 3.812-1.263 2.113-1.589 2.744-1.708 3.305-0.255 1.204 0.428 2.442 1.584 2.868 0.436 0.16 0.513 0.164 4.144 0.201l3.698 0.039 0.135 0.499c0.274 0.999 0.971 2.223 1.721 3.016 0.376 0.397 1.224 1.001 1.773 1.261 0.704 0.342 1.532 0.541 2.407 0.541s1.702-0.2 2.44-0.556l-0.034 0.015c0.549-0.26 1.397-0.864 1.773-1.261 0.75-0.793 1.447-2.017 1.721-3.016l0.135-0.499 3.698-0.039c3.631-0.037 3.707-0.041 4.144-0.201 1.149-0.422 1.856-1.701 1.587-2.868-0.125-0.545-0.542-1.349-1.712-3.305-1.981-3.315-2.243-4.11-2.71-8.23-0.451-3.987-0.6-4.623-1.47-6.271-1.558-2.951-4.372-5.060-7.711-5.624l-0.063-0.009c-0.544-0.086-1.171-0.135-1.81-0.135-0.651 0-1.291 0.051-1.915 0.149l0.069-0.009zM16.689 1.777c0.44 0.039 1.069 0.134 1.398 0.212 3.059 0.713 5.644 3.132 6.561 6.141 0.255 0.834 0.287 1.047 0.613 3.944 0.371 3.294 0.611 4.397 1.331 6.091 0.376 0.882 0.451 1.019 1.755 3.208 1.227 2.059 1.434 2.483 1.379 2.827-0.053 0.33-0.216 0.502-0.575 0.611-0.426 0.13-25.883 0.13-26.309 0-0.36-0.109-0.522-0.281-0.575-0.611-0.055-0.344 0.15-0.766 1.377-2.827 1.281-2.152 1.304-2.191 1.662-2.993 0.766-1.707 1.051-2.97 1.425-6.306 0.326-2.9 0.372-3.198 0.615-3.962 1.113-3.451 4.137-5.97 7.794-6.327l0.037-0.003c0.353-0.030 0.657-0.061 0.677-0.066s0.396 0.023 0.836 0.061zM20.163 26.807c-0.085 0.301-0.526 1.192-0.741 1.505-0.399 0.533-0.873 0.985-1.41 1.348l-0.020 0.013c-0.537 0.348-1.193 0.555-1.898 0.555-0.034 0-0.068-0-0.102-0.001l0.005 0c-0.777 0-1.343-0.159-2.002-0.558-0.836-0.506-1.676-1.552-2.049-2.546-0.045-0.108-0.097-0.256-0.143-0.407l-0.010-0.038c0-0.018 1.894-0.032 4.21-0.032h4.208l-0.046 0.16z"></path>
</symbol>
<symbol id="icon-success-circle" viewBox="0 0 32 32">
<path d="M14.811 0.276c-5.71 0.525-10.507 3.788-12.958 8.816-4.545 9.331 1.001 20.394 11.207 22.365 0.886 0.178 1.905 0.279 2.948 0.279 4.346 0 8.279-1.765 11.122-4.617l0-0c2.853-2.847 4.618-6.784 4.618-11.132 0-3.744-1.308-7.183-3.493-9.883l0.023 0.030c-2.442-3.007-5.917-5.092-9.878-5.713l-0.090-0.012c-0.821-0.092-1.773-0.144-2.737-0.144-0.269 0-0.536 0.004-0.803 0.012l0.039-0.001zM23.039 10.761l1.285 1.068c0.014 0.014-2.22 2.717-4.968 6.015l-4.993 5.994-3.277-3.277c-1.108-1.087-2.177-2.177-3.223-3.289l-0.054-0.058c0-0.091 2.325-2.416 2.416-2.416 0.039 0 0.935 0.865 1.996 1.922l1.926 1.922 3.746-4.502c2.062-2.479 3.778-4.488 3.816-4.464 0.038 0.021 0.637 0.511 1.33 1.085z"></path>
</symbol>
<symbol id="icon-sort" viewBox="0 0 32 32">
<path d="M8.379 3.955c-0.176 0.040-0.963 0.79-3.973 3.788-2.065 2.057-3.827 3.837-3.918 3.956-0.351 0.469-0.113 1.204 0.446 1.372 0.58 0.173 0.465 0.265 3.769-3.031l3.021-3.014v20.321l0.21 0.229c0.444 0.483 1.221 0.386 1.493-0.187 0.097-0.205 0.107-1.069 0.107-10.262v-10.039l2.924 2.916c1.609 1.604 3.018 2.964 3.131 3.021 0.38 0.189 0.712 0.126 1.069-0.207 0.2-0.187 0.276-0.485 0.213-0.837-0.040-0.213-0.496-0.695-3.837-4.044-2.086-2.090-3.864-3.838-3.953-3.884-0.138-0.079-0.303-0.126-0.48-0.126-0.079 0-0.156 0.009-0.23 0.027l0.007-0.001zM23.072 3.987c-0.052 0.022-0.141 0.053-0.232 0.083l-0.038 0.011c-0.006 0.002-0.079 0.097-0.162 0.212l-0.15 0.21-0.032 10.189-0.032 10.187-2.872-2.95c-1.578-1.624-2.974-3.016-3.102-3.097-0.386-0.244-0.813-0.17-1.16 0.202-0.208 0.223-0.254 0.704-0.090 0.989 0.183 0.323 7.583 7.89 7.804 7.982 0.26 0.108 0.641 0.092 0.835-0.034 0.086-0.058 1.859-1.85 3.94-3.984 3.014-3.090 3.798-3.929 3.856-4.124 0.024-0.078 0.038-0.168 0.038-0.26 0-0.438-0.31-0.803-0.722-0.889l-0.006-0.001c-0.515-0.095-0.509-0.1-3.675 3.15l-2.973 3.052-0.032-10.258-0.032-10.26-0.241-0.221c-0.134-0.121-0.299-0.221-0.367-0.221-0.075-0-0.148-0.011-0.217-0.030l0.006 0.001c-0.010-0-0.021-0.001-0.033-0.001-0.112 0-0.219 0.023-0.316 0.066l0.005-0.002z"></path>
</symbol>
<symbol id="icon-new-post" viewBox="0 0 33 32">
<path d="M16.253 0.098c-0.148 0.069-1.229 1.103-3.267 3.124-2.789 2.768-3.044 3.036-3.041 3.2 0.003 0.14 0.031 0.185 0.128 0.208 0.068 0.016 0.804 0.035 1.635 0.043 1.427 0.013 1.519 0.021 1.663 0.129 0.085 0.063 0.205 0.183 0.268 0.268 0.111 0.148 0.116 0.237 0.143 2.648l0.028 2.495 0.181 0.181 0.181 0.183 2.499 0.015c2.765 0.017 2.727 0.021 2.947-0.337 0.103-0.169 0.108-0.295 0.108-2.536 0-3.259-0.164-3.017 2.077-3.059 1.628-0.031 1.649-0.035 1.571-0.348-0.049-0.196-6.022-6.091-6.302-6.22-0.118-0.058-0.256-0.091-0.403-0.091-0.152 0-0.295 0.036-0.422 0.1l0.005-0.002zM4.792 11.317c-3.567 3.496-4.275 4.23-4.32 4.468-0.008 0.040-0.012 0.086-0.012 0.133 0 0.082 0.014 0.162 0.039 0.236l-0.002-0.005c0.079 0.191 6.211 6.32 6.37 6.367 0.017 0.004 0.037 0.006 0.057 0.006 0.061 0 0.118-0.019 0.165-0.052l-0.001 0.001c0.107-0.077 0.109-0.209 0.123-6.459 0.011-5.062-0.001-6.408-0.057-6.519-0.163-0.321-0.2-0.292-2.361 1.824zM26.392 9.492c-0.073 0.047-0.083 0.821-0.083 6.42 0 6.179 0.003 6.371 0.105 6.446 0.067 0.049 0.136 0.059 0.193 0.028 0.049-0.027 1.475-1.42 3.165-3.096 3.053-3.023 3.076-3.048 3.101-3.296 0.006-0.030 0.009-0.066 0.009-0.101 0-0.129-0.042-0.249-0.114-0.345l0.001 0.002c-0.071-0.107-1.065-1.105-2.212-2.219-1.204-1.169-2.191-2.133-3.176-3.1l0.145 0.142c-0.521-0.515-0.972-0.933-1-0.933-0.051 0.008-0.097 0.027-0.137 0.054l0.001-0.001zM14.188 19.185c-0.385 0.168-0.376 0.097-0.407 3-0.031 2.9-0.025 2.856-0.405 3.088-0.164 0.1-0.288 0.108-1.624 0.109-1.219 0-1.465 0.013-1.569 0.087-0.068 0.047-0.124 0.116-0.124 0.153 0 0.036 1.407 1.471 3.125 3.187 3.384 3.38 3.269 3.283 3.719 3.135 0.263-0.087 6.41-6.235 6.36-6.363-0.064-0.168-0.319-0.199-1.627-0.199-1.421 0-1.519-0.019-1.721-0.317-0.099-0.145-0.107-0.32-0.133-2.767-0.032-2.957-0.021-2.885-0.463-3.087-0.216-0.099-0.391-0.105-2.593-0.104-1.884 0-2.396 0.016-2.537 0.077z"></path>
</symbol>
<symbol id="icon-arrow-left" viewBox="0 0 33 32">
<path d="M23.155 0.403c-0.482 0.226-14.818 14.588-14.999 15.025-0.076 0.168-0.121 0.365-0.121 0.572 0 0.234 0.057 0.454 0.157 0.648l-0.004-0.008c0.11 0.232 2.451 2.624 7.477 7.638 5.949 5.933 7.381 7.32 7.648 7.406 0.134 0.042 0.287 0.066 0.446 0.066 0.599 0 1.118-0.343 1.372-0.843l0.004-0.009c0.108-0.192 0.172-0.421 0.172-0.665 0-0.206-0.046-0.401-0.127-0.576l0.004 0.008c-0.092-0.22-2.128-2.313-6.8-6.989l-6.669-6.674 6.706-6.716c5.437-5.445 6.724-6.779 6.81-7.044 0.042-0.134 0.067-0.288 0.067-0.448 0-0.599-0.343-1.119-0.843-1.372l-0.009-0.004c-0.191-0.106-0.419-0.169-0.661-0.169-0.23 0-0.447 0.056-0.638 0.156l0.008-0.004z"></path>
</symbol>
<symbol id="icon-filter" viewBox="0 0 33 32">
<path d="M2.91 0.309c-0.907 0.216-1.746 0.986-2.011 1.846-0.141 0.454-0.16 0.725-0.16 2.405 0 2.863-0.552 2.011 4.778 7.36 2.445 2.452 4.482 4.559 4.527 4.679 0.056 0.15 0.083 2.383 0.083 6.947 0 7.328-0.021 6.954 0.443 7.565 0.27 0.353 0.894 0.64 1.397 0.64 0.302 0.002 1.511-0.372 5.311-1.639 2.779-0.926 5.051-1.727 5.218-1.836 0.163-0.109 0.394-0.364 0.516-0.571l0.22-0.372 0.041-5.398c0.009-2.019 0.031-3.925 0.064-5.827l-0.005 0.394c0.009-0.021 2.018-2.045 4.463-4.499 3.87-3.883 4.472-4.519 4.636-4.893 0.184-0.421 0.19-0.481 0.19-2.582v-2.152l-0.222-0.479c-0.305-0.622-0.797-1.113-1.403-1.408l-0.018-0.008-0.469-0.218-13.651-0.013c-7.773-0.006-13.779 0.019-13.946 0.058zM30.485 2.397l0.257 0.255v3.749l-4.35 4.363c-2.392 2.399-4.425 4.476-4.521 4.613-0.122 0.199-0.232 0.429-0.317 0.671l-0.008 0.026c-0.146 0.426-0.154 0.685-0.154 5.578v5.131l-4.636 1.545c-2.55 0.849-4.66 1.545-4.692 1.545-0.030 0-0.066-3.055-0.077-6.787l-0.021-6.785-0.19-0.432c-0.163-0.374-0.768-1.012-4.628-4.889-3.772-3.787-4.45-4.5-4.491-4.733-0.028-0.15-0.039-1.018-0.026-1.93 0.024-1.643 0.026-1.658 0.22-1.866 0.1-0.108 0.217-0.2 0.346-0.271l0.007-0.004c0.086-0.036 6.201-0.060 13.591-0.051l13.434 0.015 0.255 0.255z"></path>
</symbol>
<symbol id="icon-user" viewBox="0 0 32 32">
<path d="M14.552 0.32c-1.97 0.354-3.605 1.199-4.969 2.572-1.2 1.221-2.063 2.776-2.437 4.513l-0.011 0.061c-0.168 0.79-0.168 2.764 0 3.554 0.386 1.813 1.263 3.38 2.485 4.604l-0-0c1.223 1.221 2.79 2.098 4.544 2.474l0.060 0.011c0.79 0.168 2.764 0.168 3.554 0 3.569-0.756 6.332-3.52 7.078-7.029l0.011-0.060c0.168-0.79 0.168-2.764 0-3.554-0.754-3.546-3.486-6.296-6.962-7.065l-0.061-0.011c-0.671-0.148-2.623-0.189-3.291-0.069zM16.625 1.875c1.655 0.156 3.004 0.727 4.219 1.785 1.411 1.211 2.349 2.94 2.516 4.889l0.002 0.027c0.347 4.1-2.642 7.685-6.695 8.028-2.067 0.174-3.977-0.443-5.51-1.779-1.566-1.35-2.551-3.336-2.551-5.552 0-0.241 0.012-0.479 0.034-0.714l-0.002 0.030c0.129-1.622 0.782-3.070 1.787-4.198l-0.006 0.007c1.2-1.388 2.896-2.319 4.809-2.516l0.031-0.003c0.318-0.031 0.592-0.061 0.61-0.066s0.359 0.023 0.757 0.061zM14.355 20.010c-2.8 0.319-4.772 0.87-6.807 1.904-2.147 1.091-3.926 2.573-5.142 4.293-0.708 0.997-0.958 1.53-0.959 2.044-0.003 0.752 0.378 1.479 0.981 1.861 0.383 0.244 0.507 0.278 1.923 0.553 3.923 0.759 7.442 1.086 11.649 1.086s7.727-0.327 11.649-1.086c1.417-0.275 1.54-0.309 1.923-0.553 0.602-0.382 0.984-1.109 0.981-1.861-0.002-0.513-0.252-1.046-0.959-2.044-1.97-2.781-5.315-4.862-9.283-5.777-1.352-0.313-2.229-0.405-4.015-0.426-0.25-0.006-0.544-0.009-0.839-0.009-0.388 0-0.774 0.006-1.159 0.017l0.057-0.001zM16.943 21.616c2.489 0.145 4.51 0.66 6.593 1.682 1.963 0.963 3.483 2.174 4.577 3.649 0.709 0.954 0.867 1.295 0.745 1.609-0.069 0.183-0.359 0.283-1.41 0.487-6.047 1.18-12.595 1.413-18.655 0.663-2.264-0.28-5.092-0.775-5.435-0.953-0.457-0.235-0.339-0.638 0.528-1.807 1.094-1.476 2.614-2.687 4.577-3.649 1.877-0.942 4.073-1.548 6.397-1.676l0.043-0.002c0.476-0.026 0.88-0.053 0.898-0.058s0.531 0.020 1.14 0.054z"></path>
</symbol>
<symbol id="icon-error-circle" viewBox="0 0 32 32">
<path d="M14.211 0.292c-4.095 0.498-7.708 2.457-10.344 5.604-1.84 2.195-3.084 5.071-3.49 8.064-0.069 0.605-0.109 1.306-0.109 2.016s0.039 1.411 0.116 2.101l-0.008-0.085c0.378 2.781 1.424 5.352 3.084 7.557 0.583 0.778 1.865 2.095 2.655 2.731 2.105 1.702 4.696 2.886 7.534 3.318l0.088 0.011c1.159 0.176 3.109 0.189 4.221 0.032 2.602-0.351 4.934-1.287 6.932-2.671l-0.052 0.034c3.433-2.407 5.861-6.047 6.647-10.264l0.015-0.1c0.147-0.861 0.232-1.854 0.232-2.866 0-0.673-0.037-1.337-0.11-1.99l0.007 0.080c-0.52-4.13-2.598-7.696-5.616-10.148l-0.029-0.022c-2.107-1.701-4.479-2.769-7.301-3.282-0.586-0.107-1.039-0.139-2.362-0.154-0.188-0.005-0.41-0.008-0.632-0.008-0.52 0-1.037 0.015-1.549 0.046l0.071-0.003zM18.274 11.566l2.205-2.205 2.205 2.205-4.41 4.41 4.41 4.41-2.205 2.205-4.41-4.41-4.41 4.41-2.205-2.205 4.41-4.41-4.41-4.41 2.205-2.205 4.41 4.41 2.205-2.205z"></path>
</symbol>
<symbol id="icon-plus" viewBox="0 0 33 32">
<path d="M14.406 6.867v6.867h-13.734v4.531h13.734v13.734h4.534v-13.734h13.731v-4.531h-13.731v-13.734h-4.534v6.867z"></path>
</symbol>
<symbol id="icon-star-active" viewBox="0 0 32 32">
<path d="M13.72 6.101c-1.235 2.919-2.277 5.308-2.316 5.308-0.222 0-11.382 0.967-11.404 0.989-0.014 0.012 1.93 1.715 4.316 3.78 2.388 2.065 4.345 3.795 4.345 3.843 0.002 0.048-0.577 2.577-1.286 5.621-0.149 0.374-0.584 2.247-0.995 4.129l-0.262 1.434c0.017 0.017 2.246-1.305 4.955-2.938 2.707-1.636 4.946-2.96 4.972-2.943l4.929 2.97c2.683 1.619 4.89 2.929 4.91 2.91 0.019-0.017-0.548-2.523-1.259-5.566 0.048 0.577-0.397-1.314-0.827-3.21l-0.459-2.408c0-0.048 1.957-1.776 4.345-3.841 2.388-2.063 4.331-3.766 4.316-3.78-0.022-0.022-11.165-0.989-11.404-0.989-0.036 0-1.078-2.388-2.316-5.308-1.235-2.919-2.263-5.308-2.28-5.308s-1.042 2.388-2.28 5.308z"></path>
</symbol>
<symbol id="icon-product-menu-active" viewBox="0 0 32 32">
<path d="M1.053 0.381c-0.355 0.164-0.649 0.476-0.737 0.782-0.042 0.147-0.068 2.336-0.066 5.7 0.002 5.182 0.009 5.474 0.133 5.749 0.166 0.367 0.515 0.632 0.954 0.726 0.233 0.049 2.116 0.068 5.702 0.054 5.775-0.021 5.478 0 5.905-0.396 0.455-0.422 0.429-0.066 0.45-5.959 0.014-3.586-0.005-5.469-0.054-5.702-0.079-0.423-0.351-0.77-0.719-0.95l-0.008-0.003c-0.275-0.124-0.567-0.131-5.784-0.131-5.201 0-5.511 0.007-5.775 0.13zM19.386 0.383c-0.375 0.184-0.647 0.531-0.725 0.946l-0.001 0.008c-0.049 0.233-0.068 2.116-0.054 5.702 0.021 5.893-0.005 5.537 0.45 5.959 0.427 0.396 0.13 0.375 5.905 0.396 3.586 0.014 5.469-0.005 5.702-0.054 0.423-0.079 0.77-0.351 0.95-0.719l0.003-0.008c0.124-0.275 0.131-0.567 0.133-5.768 0.002-4.79-0.012-5.513-0.107-5.74-0.128-0.327-0.376-0.584-0.688-0.72l-0.008-0.003c-0.264-0.123-0.581-0.13-5.775-0.13-5.217 0-5.509 0.007-5.784 0.131zM0.983 18.776c-0.324 0.172-0.464 0.313-0.604 0.618-0.121 0.264-0.128 0.592-0.13 5.74-0.002 3.383 0.025 5.553 0.066 5.702 0.091 0.317 0.53 0.758 0.84 0.843 0.152 0.042 2.345 0.068 5.707 0.068 5.182-0.002 5.474-0.009 5.749-0.133 0.376-0.184 0.647-0.531 0.725-0.946l0.001-0.008c0.049-0.233 0.068-2.116 0.054-5.702-0.018-4.837-0.030-5.376-0.135-5.565-0.154-0.278-0.467-0.569-0.712-0.66-0.133-0.051-1.997-0.073-5.775-0.072-4.953 0.002-5.6 0.014-5.788 0.114zM19.429 18.738c-0.226 0.089-0.541 0.39-0.69 0.656-0.105 0.189-0.117 0.728-0.135 5.565-0.014 3.586 0.005 5.469 0.054 5.702 0.080 0.428 0.358 0.778 0.734 0.956l0.008 0.003c0.289 0.128 0.523 0.131 5.898 0.114l5.599-0.019 0.268-0.213c0.149-0.119 0.341-0.354 0.427-0.523l0.157-0.308v-5.483c0-4.776-0.014-5.516-0.108-5.74-0.104-0.295-0.322-0.529-0.598-0.652l-0.007-0.003c-0.249-0.128-0.499-0.133-5.845-0.128-3.526 0.002-5.651 0.030-5.761 0.073z"></path>
</symbol>
<symbol id="icon-like-active" viewBox="0 0 32 32">
<path d="M7.787 2.255c-1.733 0.292-3.513 1.287-4.662 2.606-0.505 0.585-0.99 1.229-1.431 1.904l-0.042 0.069c-1.664 2.733-1.82 6.26-0.403 9.164 0.34 0.695 0.989 1.659 1.475 2.191 0.592 0.647 11.692 11.057 12.024 11.278 0.353 0.234 0.786 0.373 1.252 0.373s0.899-0.139 1.261-0.379l-0.009 0.005c0.332-0.219 11.431-10.629 12.025-11.279 0.487-0.53 1.136-1.494 1.475-2.189 0.609-1.229 0.965-2.676 0.965-4.206 0-1.518-0.35-2.953-0.975-4.231l0.025 0.057c-0.575-1.199-1.801-2.802-2.748-3.595-1.065-0.884-2.374-1.51-3.812-1.765l-0.050-0.007c-0.417-0.058-0.898-0.092-1.387-0.092-0.493 0-0.978 0.034-1.453 0.1l0.055-0.006c-1.914 0.321-3.766 1.39-4.917 2.838-0.229 0.289-0.434 0.525-0.454 0.525s-0.226-0.236-0.454-0.525c-1.151-1.448-3.003-2.517-4.917-2.838-0.717-0.12-2.118-0.119-2.841 0.002z"></path>
</symbol>
<symbol id="icon-home-active" viewBox="0 0 32 32">
<path d="M15.789 0.261c-0.604 0.061-0.333-0.221-8.026 8.335-3.98 4.425-7.29 8.154-7.356 8.289-0.097 0.197-0.153 0.429-0.153 0.674 0 0.431 0.175 0.821 0.457 1.103v0c0.44 0.44 0.62 0.473 2.569 0.473h1.692v5.634c0 6.342-0.024 6.014 0.471 6.509 0.464 0.464 0.52 0.471 3.471 0.471s3.007-0.008 3.471-0.471c0.475-0.475 0.471-0.445 0.471-4.144v-3.269h6.307v3.269c0 3.699-0.003 3.669 0.471 4.144 0.464 0.464 0.52 0.471 3.471 0.471s3.007-0.008 3.471-0.471c0.495-0.495 0.471-0.167 0.471-6.509v-5.634h1.695c1.831 0 2.023-0.027 2.446-0.35 0.15-0.13 0.277-0.28 0.378-0.447l0.005-0.008c0.147-0.249 0.175-0.371 0.175-0.74 0-0.243-0.041-0.538-0.090-0.654-0.049-0.118-3.349-3.836-7.332-8.263-5.677-6.309-7.307-8.086-7.542-8.215-0.231-0.131-0.508-0.208-0.803-0.208-0.067 0-0.133 0.004-0.198 0.012l0.008-0.001z"></path>
</symbol>
<symbol id="icon-cart" viewBox="0 0 32 32">
<path d="M0.706 1.927c-0.256 0.137-0.428 0.402-0.428 0.708 0 0.124 0.028 0.241 0.078 0.345l-0.002-0.005c0.15 0.291 0.418 0.427 0.842 0.427 0.878 0.002 1.511 0.228 1.995 0.713 0.565 0.566 0.484 0.202 1.779 7.983 0.644 3.867 1.213 7.179 1.266 7.36 0.171 0.601 0.499 1.137 1.010 1.651 0.553 0.556 1.081 0.861 1.805 1.047 0.451 0.115 0.702 0.118 9.738 0.118h9.275l0.211-0.184c0.433-0.38 0.377-0.99-0.117-1.275-0.088-0.051-2.531-0.076-9.406-0.099l-9.287-0.030-0.345-0.139c-0.254-0.117-0.473-0.262-0.666-0.434l0.003 0.002c-0.457-0.416-0.668-0.849-0.816-1.675-0.037-0.175-0.080-0.434-0.116-0.695l-0.007-0.066c0-0.064 1.829-0.081 10.23-0.094 9.651-0.013 10.241-0.021 10.424-0.121 0.117-0.069 0.212-0.162 0.281-0.274l0.002-0.003c0.115-0.223 3.268-11.256 3.268-11.438 0-0.175-0.13-0.428-0.3-0.581-0.132-0.118-0.243-0.12-13.079-0.15l-12.946-0.030-0.099-0.333c-0.37-1.248-1.408-2.272-2.695-2.662-0.464-0.139-1.648-0.183-1.898-0.069zM29.865 6.622c0 0.025-0.599 2.142-1.33 4.703l-1.332 4.66h-9.992c-5.497 0-9.994-0.013-9.994-0.031 0-0.046-1.493-9.017-1.534-9.21l-0.033-0.165h12.107c6.659 0 12.107 0.019 12.107 0.043zM8.841 23.988c-0.496 0.133-0.897 0.376-1.332 0.804-0.582 0.563-0.944 1.352-0.944 2.225 0 0.806 0.308 1.54 0.813 2.090l-0.002-0.002c0.614 0.683 1.396 1.029 2.328 1.029s1.714-0.346 2.328-1.029c0.503-0.548 0.811-1.282 0.811-2.088 0-0.873-0.362-1.661-0.943-2.224l-0.001-0.001c-0.445-0.439-0.837-0.671-1.357-0.807-0.437-0.114-1.27-0.112-1.7 0.003zM23.034 23.979c-0.768 0.214-1.573 0.845-1.934 1.514-0.201 0.374-0.403 1.132-0.403 1.516 0 0.377 0.201 1.141 0.394 1.495 0.538 0.969 1.549 1.618 2.713 1.634l0.002 0c0.93 0.008 1.679-0.309 2.305-0.974 0.599-0.634 0.875-1.315 0.875-2.155 0-0.878-0.286-1.558-0.923-2.188-0.469-0.464-0.854-0.697-1.384-0.836-0.419-0.108-1.266-0.111-1.646-0.006zM10.363 25.592c0.334 0.156 0.638 0.467 0.788 0.804 0.127 0.292 0.127 0.933 0 1.225-0.553 1.255-2.341 1.255-2.894 0-0.126-0.286-0.13-0.935-0.009-1.216 0.254-0.566 0.812-0.953 1.461-0.953 0.237 0 0.462 0.052 0.664 0.144l-0.010-0.004zM24.472 25.575c0.331 0.15 0.628 0.427 0.798 0.744 0.097 0.184 0.127 0.345 0.127 0.689s-0.030 0.505-0.127 0.689c-0.611 1.141-2.2 1.162-2.788 0.037-0.431-0.827-0.030-1.89 0.828-2.196 0.343-0.123 0.845-0.106 1.161 0.036z"></path>
</symbol>
<symbol id="icon-cart-active" viewBox="0 0 32 32">
<path d="M1.058 2.026c-0.167 0.072-0.31 0.171-0.43 0.292l-0 0c-0.533 0.533-0.442 1.366 0.196 1.788l0.243 0.16 4.078 0.060 1.682 9.526c1.024 5.796 1.722 9.599 1.784 9.713 0.153 0.267 0.398 0.467 0.691 0.558l0.009 0.002c0.156 0.043 3.326 0.058 9.807 0.046l9.577-0.015 0.229-0.142c0.8-0.497 0.74-1.667-0.106-2.052-0.232-0.105-0.64-0.109-9.231-0.111l-8.988-0.002-0.195-1.123c-0.032-0.13-0.1-0.526-0.162-0.925l-0.031-0.242c0.002-0.025 4.065-0.052 9.033-0.060l9.031-0.016 0.273-0.126c0.377-0.168 0.676-0.455 0.855-0.812l0.005-0.010c0.111-0.231 0.427-1.7 1.231-5.735 0.595-2.984 1.081-5.506 1.081-5.606 0-0.605-0.4-1.231-0.966-1.514l-0.371-0.186h-11.309c-6.22 0-11.325-0.022-11.341-0.051-0.077-0.306-0.171-0.772-0.251-1.244l-0.019-0.135c-0.145-0.815-0.28-1.402-0.349-1.52-0.101-0.146-0.224-0.27-0.364-0.37l-0.005-0.003-0.258-0.181-2.615-0.010c-1.547-0.006-2.697 0.012-2.814 0.046zM10.152 25.437c-0.652 0.227-1.173 0.688-1.473 1.281l-0.007 0.015c-0.148 0.319-0.168 0.428-0.168 0.959 0 0.533 0.020 0.64 0.172 0.971 0.204 0.443 0.735 0.981 1.14 1.153 1.442 0.619 2.992-0.207 3.276-1.743 0.183-0.99-0.355-2.020-1.291-2.479-0.307-0.151-0.436-0.177-0.929-0.19-0.313-0.008-0.638 0.008-0.72 0.034zM26.464 25.469c-0.845 0.276-1.438 0.969-1.591 1.859-0.019 0.112-0.030 0.241-0.030 0.372 0 0.905 0.521 1.688 1.279 2.066l0.013 0.006c0.374 0.184 0.437 0.196 1.030 0.196s0.656-0.012 1.030-0.196c0.681-0.335 1.131-0.948 1.263-1.716 0.019-0.111 0.030-0.24 0.030-0.371 0-0.903-0.519-1.685-1.275-2.064l-0.013-0.006c-0.343-0.169-0.464-0.196-0.939-0.211-0.344-0.011-0.638 0.013-0.798 0.066z"></path>
</symbol>
<symbol id="icon-like" viewBox="0 0 32 32">
<path d="M8.027 2.284c-2.107 0.234-3.934 1.278-5.188 2.808l-0.011 0.014c-1.398 1.701-2.078 3.053-2.423 4.83-0.156 0.806-0.159 2.449-0.005 3.285 0.309 1.674 1.142 3.37 2.238 4.556 0.885 0.959 12.359 11.679 12.66 11.83 0.213 0.106 0.408 0.146 0.711 0.146 0.457 0 0.758-0.124 1.164-0.475 0.69-0.599 11.76-11.040 12.157-11.466 1.12-1.201 1.959-2.898 2.27-4.592 0.151-0.819 0.153-2.41 0.003-3.23-0.338-1.858-1.030-3.212-2.597-5.079-1.253-1.492-3.116-2.438-5.188-2.631-0.221-0.022-0.477-0.035-0.736-0.035-2.868 0-5.371 1.561-6.705 3.88l-0.020 0.038c-0.169 0.301-0.329 0.548-0.356 0.548s-0.189-0.249-0.361-0.555c-0.98-1.698-2.539-2.969-4.401-3.555l-0.055-0.015c-0.714-0.214-1.534-0.338-2.384-0.338-0.272 0-0.541 0.013-0.807 0.037l0.034-0.003zM10.533 4.059c1.743 0.503 2.975 1.522 3.922 3.238 0.395 0.718 0.835 1.002 1.546 1.002 0.709 0 1.151-0.285 1.548-1.002 0.583-1.053 1.050-1.611 1.857-2.22 0.606-0.453 1.315-0.81 2.082-1.032l0.047-0.011c0.483-0.135 0.688-0.155 1.627-0.151 1.203 0.002 1.505 0.060 2.465 0.475 1.082 0.467 1.88 1.152 2.854 2.452 1.146 1.528 1.66 3.022 1.657 4.815-0.003 2.011-0.744 3.816-2.171 5.29-0.955 0.988-11.865 11.178-11.965 11.178-0.102 0-10.999-10.182-12.001-11.214-1.321-1.346-2.137-3.192-2.137-5.229 0-0.009 0-0.018 0-0.027v0.001c-0.001-0.053-0.002-0.116-0.002-0.178 0-0.73 0.114-1.433 0.325-2.093l-0.013 0.049c0.469-1.626 1.969-3.696 3.318-4.576 0.53-0.347 1.438-0.732 1.984-0.841l0.488-0.101c0.072-0.016 0.555-0.020 1.074-0.008 0.763 0.018 1.050 0.052 1.497 0.182z"></path>
</symbol>
<symbol id="icon-home" viewBox="0 0 32 32">
<path d="M15.464 0.309c-0.069 0.016-0.26 0.134-0.422 0.263-0.217 0.172-11.463 12.618-14.273 15.796-0.331 0.373-0.518 0.796-0.518 1.166 0 0.373 0.189 0.81 0.477 1.098 0.443 0.443 0.63 0.477 2.59 0.477h1.659v5.597c0 6.339-0.022 6.027 0.477 6.528 0.468 0.468 0.537 0.477 3.461 0.477s2.993-0.009 3.461-0.477c0.48-0.48 0.477-0.46 0.477-4.165v-3.234h6.301v3.234c0 3.705-0.003 3.684 0.477 4.165 0.468 0.468 0.537 0.477 3.461 0.477s2.993-0.009 3.461-0.477c0.499-0.501 0.477-0.189 0.477-6.528v-5.597h1.659c1.947 0 2.164-0.039 2.59-0.465 0.633-0.633 0.628-1.511-0.013-2.245-1.92-2.202-14.141-15.713-14.358-15.874-0.269-0.202-0.328-0.219-0.802-0.232-0.066-0.003-0.143-0.005-0.22-0.005-0.148 0-0.295 0.007-0.439 0.021l0.018-0.001zM22.677 9.785l6.605 7.339-4.206 0.033v12.6h-3.97v-7.876h-10.207v7.876h-3.97v-12.6l-4.206-0.033 6.621-7.358c3.642-4.045 6.646-7.348 6.674-7.339s3.024 3.321 6.658 7.358z"></path>
</symbol>
<symbol id="icon-flag" viewBox="0 0 32 32">
<path d="M5.304 0.61c-0.389 0.123-0.721 0.333-0.985 0.609l-0.001 0.001c-0.317 0.311-0.543 0.714-0.635 1.165l-0.002 0.015c-0.036 0.196-0.050 4.946-0.040 14.188l0.014 13.892 0.112 0.24c0.254 0.548 0.724 0.782 1.484 0.734 0.822-0.052 1.192-0.39 1.308-1.198 0.032-0.222 0.054-3.058 0.054-7.336l0.002-6.974h0.572c1.372 0.032 2.658 0.365 3.807 0.934l-0.053-0.024c0.972 0.484 1.55 0.896 2.474 1.76 0.322 0.302 0.766 0.694 0.986 0.87 1.738 1.381 3.892 2.313 6.246 2.587l0.058 0.005c0.29 0.030 1.646 0.056 3.076 0.056 2.36 0 2.582-0.008 2.882-0.102 0.838-0.26 1.49-0.988 1.656-1.848 0.044-0.23 0.056-1.912 0.044-6.078l-0.016-5.76-0.124-0.308c-0.214-0.452-0.55-0.817-0.967-1.060l-0.011-0.006c-0.382-0.192-0.842-0.25-2.018-0.252-0.626 0-1.17-0.030-1.492-0.082-1.969-0.293-3.693-1.179-5.024-2.468l0.002 0.002c-0.567-0.551-1.18-1.061-1.832-1.52l-0.048-0.032c-1.36-0.925-2.968-1.601-4.701-1.92l-0.077-0.012c-0.636-0.116-0.804-0.122-3.6-0.134-2.31-0.012-2.98 0.002-3.15 0.056zM11.44 3.59c0.966 0.16 1.858 0.444 2.64 0.836 0.952 0.48 1.572 0.926 2.586 1.868 0.74 0.686 1.4 1.198 2.080 1.612 1.68 1.045 3.703 1.698 5.871 1.783l0.023 0.001 0.746 0.034v9.488l-2.2-0.028c-2.284-0.028-2.582-0.054-3.532-0.298-1.602-0.41-2.824-1.118-4.294-2.486-0.35-0.327-0.725-0.649-1.112-0.957l-0.038-0.029c-1.889-1.436-4.255-2.336-6.827-2.435l-0.023-0.001-0.746-0.034v-9.49l2.172 0.028c1.574 0.020 2.306 0.050 2.654 0.108z"></path>
</symbol>
<symbol id="icon-pause" viewBox="0 0 32 32">
<path d="M14.149 0.617c-1.839 0.222-3.511 0.739-5.037 1.504l0.088-0.040c-2.258 1.124-4.138 2.696-5.589 4.612l-0.028 0.039c-1.923 2.553-3.081 5.778-3.081 9.273 0 2.567 0.624 4.989 1.729 7.121l-0.041-0.086c0.761 1.49 1.587 2.609 2.873 3.897 1.676 1.678 3.362 2.771 5.523 3.582 1.785 0.671 3.429 0.963 5.413 0.963s3.628-0.292 5.413-0.963c2.16-0.81 3.845-1.903 5.524-3.582s2.772-3.364 3.582-5.524c0.671-1.785 0.963-3.429 0.963-5.413s-0.292-3.628-0.963-5.413c-0.811-2.162-1.905-3.848-3.582-5.522-1.349-1.347-2.55-2.213-4.137-2.984-1.458-0.738-3.155-1.257-4.947-1.461l-0.069-0.006c-0.854-0.1-2.798-0.098-3.635 0.003zM18.053 3.673c2.624 0.452 4.903 1.63 6.774 3.5 1.877 1.878 3.043 4.138 3.506 6.8 0.098 0.567 0.116 0.871 0.116 2.027s-0.018 1.46-0.116 2.027c-0.704 4.045-3.207 7.416-6.813 9.176-1.2 0.585-2.232 0.918-3.573 1.154-0.764 0.134-3.13 0.134-3.894 0-1.338-0.224-2.539-0.626-3.645-1.187l0.072 0.033c-2.388-1.188-4.293-3.046-5.507-5.327l-0.033-0.067c-0.955-1.811-1.42-3.713-1.42-5.809 0-3.381 1.266-6.439 3.653-8.827 2.069-2.068 4.657-3.296 7.627-3.618 0.117-0.013 0.753-0.017 1.413-0.008 0.914 0.012 1.353 0.042 1.84 0.126zM11.554 9.495c-0.318 0.107-0.571 0.333-0.71 0.625l-0.003 0.007-0.148 0.3v11.146l0.117 0.253c0.123 0.266 0.322 0.483 0.556 0.604 0.377 0.195 1.265 0.194 1.644-0.002 0.242-0.125 0.476-0.406 0.575-0.69 0.089-0.253 0.095-0.638 0.095-5.738 0-5.113-0.006-5.484-0.095-5.74-0.122-0.341-0.383-0.607-0.712-0.734l-0.008-0.003c-0.265-0.090-1.048-0.107-1.311-0.028zM19.113 9.526c-0.299 0.106-0.583 0.405-0.698 0.734-0.089 0.256-0.095 0.627-0.095 5.74 0 5.1 0.006 5.485 0.095 5.738 0.099 0.284 0.333 0.565 0.575 0.69 0.379 0.196 1.266 0.197 1.643 0.002 0.235-0.121 0.434-0.338 0.557-0.604l0.117-0.253v-11.146l-0.148-0.3c-0.144-0.306-0.408-0.536-0.729-0.633l-0.008-0.002c-0.266-0.076-1.054-0.056-1.309 0.034z"></path>
</symbol>
<symbol id="icon-user1" viewBox="0 0 32 32">
<path d="M15.322 0.245c-2.931 0.259-5.423 2.401-6.167 5.299-0.33 1.291-0.235 2.971 0.24 4.207 0.84 2.148 2.629 3.762 4.837 4.345l0.050 0.011c1 0.256 2.437 0.256 3.437 0 2.258-0.594 4.047-2.208 4.87-4.308l0.017-0.048c0.579-1.509 0.579-3.469 0-4.978-0.84-2.147-2.628-3.762-4.836-4.345l-0.050-0.011c-0.363-0.092-1.714-0.26-1.839-0.228-0.016 0.005-0.268 0.028-0.559 0.055zM16.974 2.529c0.957 0.183 1.634 0.559 2.418 1.342 1.007 1.007 1.428 2.007 1.428 3.392s-0.421 2.385-1.428 3.392c-1.007 1.007-2.007 1.428-3.392 1.428s-2.385-0.421-3.392-1.428c-1.015-1.015-1.428-2.005-1.428-3.423 0-1.357 0.425-2.358 1.428-3.361 0.766-0.766 1.458-1.156 2.371-1.339 0.536-0.106 1.449-0.107 1.995-0.003zM15.061 16.61c-3.469 0.266-6.689 2.166-8.669 5.113-0.514 0.796-0.966 1.711-1.309 2.677l-0.029 0.093c-0.277 0.818-0.469 1.766-0.537 2.748l-0.002 0.035c-0.083 1.095 0.005 1.492 0.388 1.744 0.35 0.229 1.065 0.219 1.388-0.022 0.304-0.226 0.367-0.423 0.423-1.305 0.159-2.507 1.085-4.564 2.807-6.244 0.855-0.833 1.497-1.276 2.56-1.773 0.598-0.292 1.293-0.534 2.021-0.69l0.061-0.011c0.528-0.116 0.79-0.135 1.836-0.135s1.308 0.019 1.836 0.135c1.922 0.42 3.506 1.293 4.832 2.667 0.818 0.846 1.259 1.483 1.747 2.531 0.53 1.134 0.784 2.165 0.87 3.52 0.055 0.882 0.119 1.079 0.423 1.305 0.323 0.241 1.038 0.251 1.388 0.022 0.384-0.251 0.472-0.649 0.388-1.744-0.105-1.575-0.521-3.030-1.185-4.338l0.029 0.064c-0.638-1.293-1.288-2.178-2.361-3.215-1.967-1.898-4.374-2.97-7.147-3.181-0.858-0.065-0.861-0.065-1.758 0.003z"></path>
</symbol>
<symbol id="icon-like1" viewBox="0 0 32 32">
<path d="M16 9.234c3.556-8.346 16-7.457 16 3.21s-16 19.556-16 19.556-16-8.889-16-19.556c0-10.667 12.444-11.556 16-3.21z"></path>
</symbol>
<symbol id="icon-check" viewBox="0 0 32 32">
<path d="M29.676 4.866c-0.203 0.087-3.483 3.304-9.361 9.178l-9.046 9.044-4.359-4.348c-4.792-4.781-4.69-4.698-5.485-4.46-0.487 0.145-1.191 0.849-1.336 1.336-0.241 0.807-0.4 0.617 5.264 6.283 4.482 4.48 5.203 5.168 5.534 5.264 0.845 0.246 0.172 0.856 10.954-9.911 5.561-5.554 9.888-9.944 9.987-10.132 0.092-0.177 0.153-0.383 0.172-0.602l0-0.006c0-0.576-0.617-1.376-1.271-1.649-0.152-0.080-0.333-0.127-0.524-0.127-0.193 0-0.375 0.048-0.535 0.132l0.006-0.003z"></path>
</symbol>
<symbol id="icon-doublecheck" viewBox="0 0 32 32">
<path d="M22.56 6.935c-0.314 0.056-0.596 0.239-0.993 0.648-0.21 0.215-3.268 3.51-6.797 7.324-3.529 3.813-6.442 6.938-6.473 6.943s-1.065-1.082-2.297-2.419c-3.766-4.084-3.66-3.985-4.262-3.983-0.379 0.001-0.625 0.109-1.006 0.445-0.622 0.549-0.758 1.21-0.369 1.798 0.158 0.239 5.623 6.159 6.101 6.61 0.499 0.47 1.12 0.712 1.829 0.712 0.724 0 1.336-0.243 1.857-0.739 0.173-0.165 3.367-3.594 7.096-7.618 5.093-5.496 6.82-7.393 6.939-7.62s0.157-0.37 0.154-0.576c-0.012-0.804-1.011-1.661-1.779-1.525zM30.036 6.942c-0.315 0.055-0.502 0.183-0.976 0.669-0.381 0.39-12.836 13.839-13.401 14.47-0.674 0.752-0.667 1.376 0.021 2.064 0.685 0.685 1.357 0.716 2.023 0.094 0.146-0.137 3.321-3.546 7.055-7.576 4.978-5.372 6.83-7.404 6.943-7.62 0.346-0.657 0.103-1.328-0.674-1.862-0.317-0.218-0.652-0.299-0.991-0.239z"></path>
</symbol>
<symbol id="icon-change" viewBox="0 0 32 32">
<path d="M29.538 16c0 0.68 0.551 1.231 1.231 1.231s1.231-0.551 1.231-1.231h-2.462zM5.744 1.231c0-0.68-0.551-1.231-1.231-1.231s-1.231 0.551-1.231 1.231h2.462zM11.077 9.026c0.68 0 1.231-0.551 1.231-1.231s-0.551-1.231-1.231-1.231v2.462zM2.462 16c0-0.68-0.551-1.231-1.231-1.231s-1.231 0.551-1.231 1.231h2.462zM26.256 30.769c0 0.68 0.551 1.231 1.231 1.231s1.231-0.551 1.231-1.231h-2.462zM20.923 22.974c-0.68 0-1.231 0.551-1.231 1.231s0.551 1.231 1.231 1.231v-2.462zM32 16c0-8.837-7.163-16-16-16v2.462c7.477 0 13.538 6.061 13.538 13.538h2.462zM16 0c-4.097 0-7.837 1.542-10.667 4.074l1.642 1.834c2.396-2.144 5.557-3.447 9.025-3.447v-2.462zM3.282 1.231v4.923h2.462v-4.923h-2.462zM6.154 9.026h4.923v-2.462h-4.923v2.462zM0 16c0 8.837 7.163 16 16 16v-2.462c-7.477 0-13.538-6.061-13.538-13.538h-2.462zM16 32c4.097 0 7.837-1.542 10.667-4.074l-1.642-1.834c-2.396 2.145-5.557 3.447-9.025 3.447v2.462zM28.718 30.769v-4.923h-2.462v4.923h2.462zM25.846 22.974h-4.923v2.462h4.923v-2.462zM5.534 7.411c2.485-3.024 6.25-4.95 10.466-4.95v-2.462c-4.983 0-9.435 2.28-12.368 5.849l1.902 1.563zM3.282 6.154c0 0.288 0.043 0.568 0.123 0.833l2.356-0.713c-0.011-0.036-0.017-0.076-0.017-0.12h-2.462zM3.405 6.987c0.357 1.179 1.451 2.039 2.749 2.039v-2.462c-0.183 0-0.342-0.121-0.393-0.291l-2.356 0.713zM26.466 24.588c-2.485 3.024-6.25 4.95-10.466 4.95v2.462c4.983 0 9.436-2.28 12.368-5.849l-1.902-1.563zM28.718 25.846c0-0.288-0.043-0.568-0.123-0.833l-2.356 0.713c0.011 0.036 0.017 0.076 0.017 0.12h2.462zM28.595 25.013c-0.357-1.179-1.451-2.039-2.749-2.039v2.462c0.183 0 0.342 0.121 0.393 0.291l2.356-0.713z"></path>
</symbol>
<symbol id="icon-more" viewBox="0 0 32 32">
<path stroke-linejoin="miter" stroke-linecap="round" stroke-miterlimit="4" stroke-width="2" d="M15.343 15.344h1.313M15.343 16.656h1.313M3.093 15.344h1.313M3.093 16.656h1.313M27.593 15.344h1.313M27.593 16.656h1.313M17.75 16c0 0.967-0.783 1.75-1.75 1.75s-1.75-0.783-1.75-1.75c0-0.967 0.783-1.75 1.75-1.75s1.75 0.783 1.75 1.75zM5.5 16c0 0.967-0.783 1.75-1.75 1.75s-1.75-0.783-1.75-1.75c0-0.967 0.784-1.75 1.75-1.75s1.75 0.783 1.75 1.75zM30 16c0 0.967-0.783 1.75-1.75 1.75s-1.75-0.783-1.75-1.75c0-0.967 0.783-1.75 1.75-1.75s1.75 0.783 1.75 1.75z"></path>
</symbol>
<symbol id="icon-play-filled" viewBox="0 0 32 32">
<path d="M4.195 27.963v-23.927c0-3.343 3.836-5.232 6.486-3.194l15.552 11.963c2.097 1.613 2.097 4.774 0 6.387l-15.552 11.963c-2.65 2.038-6.486 0.149-6.486-3.194z"></path>
</symbol>
<symbol id="icon-rating" viewBox="0 0 32 32">
<path stroke-linejoin="round" stroke-linecap="round" stroke-miterlimit="4" stroke-width="2" d="M1.305 13.399c-0.476-0.436-0.218-1.225 0.427-1.3l9.128-1.072c0.263-0.031 0.491-0.195 0.601-0.432l3.85-8.267c0.272-0.583 1.109-0.583 1.381-0l3.85 8.267c0.111 0.238 0.337 0.402 0.6 0.432l9.129 1.072c0.644 0.076 0.903 0.864 0.426 1.301l-6.748 6.181c-0.194 0.178-0.281 0.443-0.229 0.7l1.791 8.93c0.126 0.63-0.551 1.118-1.117 0.804l-8.021-4.447c-0.231-0.128-0.512-0.128-0.743-0l-8.022 4.447c-0.566 0.314-1.244-0.174-1.117-0.804l1.791-8.93c0.052-0.257-0.035-0.522-0.229-0.7l-6.749-6.182z"></path>
</symbol>
<symbol id="icon-repeat" viewBox="0 0 32 32">
<path d="M24.927 6.763v0zM27.53 1.866c0-0.616-0.5-1.116-1.116-1.116s-1.116 0.5-1.116 1.116h2.232zM18.976 8.189c-0.616 0-1.116 0.5-1.116 1.116s0.5 1.116 1.116 1.116v-2.232zM30.506 16.744c0-0.616-0.5-1.116-1.116-1.116s-1.116 0.5-1.116 1.116h2.232zM3.726 16.744c0-6.779 5.495-12.274 12.274-12.274v-2.232c-8.011 0-14.506 6.495-14.506 14.506h2.232zM16 4.47c3.144 0 6.010 1.181 8.183 3.125l1.488-1.663c-2.566-2.296-5.956-3.694-9.671-3.694v2.232zM25.299 1.866v5.951h2.232v-5.951h-2.232zM24.927 8.189h-5.951v2.232h5.951v-2.232zM28.274 16.744c0 6.779-5.495 12.274-12.274 12.274v2.232c8.011 0 14.506-6.495 14.506-14.506h-2.232zM27.213 7.541c-0.472-0.575-0.988-1.113-1.542-1.609l-1.488 1.663c0.469 0.42 0.906 0.876 1.306 1.363l1.724-1.417zM25.299 7.817c0 0.039-0.006 0.075-0.016 0.108l2.136 0.647c0.073-0.24 0.111-0.494 0.111-0.755h-2.232zM25.283 7.926c-0.046 0.154-0.19 0.264-0.356 0.264v2.232c1.177 0 2.169-0.78 2.492-1.848l-2.136-0.647zM16 29.018c-6.779 0-12.274-5.495-12.274-12.274h-2.232c0 8.011 6.495 14.506 14.506 14.506v-2.232z"></path>
</symbol>
<symbol id="icon-search1" viewBox="0 0 32 32">
<path d="M29.899 31.639c0.481 0.481 1.26 0.481 1.74 0s0.481-1.26 0-1.74l-1.74 1.74zM24.326 13.394c0 6.038-4.894 10.932-10.932 10.932v2.462c7.397 0 13.394-5.996 13.394-13.394h-2.462zM13.394 24.326c-6.038 0-10.932-4.894-10.932-10.932h-2.462c0 7.397 5.997 13.394 13.394 13.394v-2.462zM2.462 13.394c0-6.038 4.894-10.932 10.932-10.932v-2.462c-7.397 0-13.394 5.997-13.394 13.394h2.462zM13.394 2.462c6.038 0 10.932 4.894 10.932 10.932h2.462c0-7.397-5.996-13.394-13.394-13.394v2.462zM21.211 22.952l8.688 8.688 1.74-1.74-8.688-8.688-1.74 1.74z"></path>
</symbol>
<symbol id="icon-trash" viewBox="0 0 32 32">
<path d="M13.949 12.718c0-0.68-0.551-1.231-1.231-1.231s-1.231 0.551-1.231 1.231h2.462zM11.487 25.846c0 0.68 0.551 1.231 1.231 1.231s1.231-0.551 1.231-1.231h-2.462zM20.513 12.718c0-0.68-0.551-1.231-1.231-1.231s-1.231 0.551-1.231 1.231h2.462zM18.051 25.846c0 0.68 0.551 1.231 1.231 1.231s1.231-0.551 1.231-1.231h-2.462zM7.946 30.411v0zM6.512 28.977v0zM25.488 28.977v0zM24.054 30.411v0zM4.513 6.564c-0.68 0-1.231 0.551-1.231 1.231s0.551 1.231 1.231 1.231v-2.462zM27.487 9.026c0.68 0 1.231-0.551 1.231-1.231s-0.551-1.231-1.231-1.231v2.462zM9.026 7.795c0 0.68 0.551 1.231 1.231 1.231s1.231-0.551 1.231-1.231h-2.462zM20.513 7.795c0 0.68 0.551 1.231 1.231 1.231s1.231-0.551 1.231-1.231h-2.462zM11.487 12.718v13.128h2.462v-13.128h-2.462zM18.051 12.718v13.128h2.462v-13.128h-2.462zM24.615 7.795v17.723h2.462v-17.723h-2.462zM20.595 29.538h-9.19v2.462h9.19v-2.462zM4.923 7.795v17.723h2.462v-17.723h-2.462zM11.405 29.538c-0.939 0-1.57-0.001-2.055-0.041-0.471-0.038-0.696-0.107-0.845-0.183l-1.117 2.193c0.553 0.282 1.139 0.392 1.762 0.443 0.609 0.050 1.357 0.049 2.256 0.049v-2.462zM4.923 25.518c0 0.899-0.001 1.647 0.049 2.256 0.051 0.623 0.161 1.209 0.443 1.762l2.193-1.118c-0.076-0.149-0.144-0.374-0.183-0.845-0.040-0.486-0.041-1.116-0.041-2.055h-2.462zM8.505 29.315c-0.386-0.197-0.7-0.511-0.896-0.896l-2.193 1.118c0.433 0.849 1.123 1.539 1.972 1.972l1.117-2.193zM24.615 25.518c0 0.939-0.001 1.57-0.041 2.055-0.038 0.471-0.107 0.696-0.183 0.845l2.193 1.118c0.282-0.553 0.392-1.139 0.443-1.762 0.050-0.609 0.049-1.357 0.049-2.256h-2.462zM20.595 32c0.899 0 1.647 0.001 2.256-0.049 0.623-0.051 1.209-0.161 1.762-0.443l-1.118-2.193c-0.149 0.076-0.374 0.144-0.845 0.183-0.486 0.040-1.116 0.041-2.055 0.041v2.462zM24.392 28.418c-0.197 0.386-0.511 0.7-0.896 0.896l1.118 2.193c0.849-0.433 1.539-1.123 1.972-1.972l-2.193-1.118zM4.513 9.026h1.641v-2.462h-1.641v2.462zM6.154 9.026h19.692v-2.462h-19.692v2.462zM25.846 9.026h1.641v-2.462h-1.641v2.462zM11.487 6.482c0-2.119 1.914-4.021 4.513-4.021v-2.462c-3.746 0-6.974 2.801-6.974 6.482h2.462zM16 2.462c2.599 0 4.513 1.902 4.513 4.021h2.462c0-3.681-3.229-6.482-6.974-6.482v2.462zM9.026 6.482v1.313h2.462v-1.313h-2.462zM20.513 6.482v1.313h2.462v-1.313h-2.462z"></path>
</symbol>
<symbol id="icon-warning" viewBox="0 0 32 32">
<path d="M16.082 21.662h1.231c0-0.68-0.551-1.231-1.231-1.231v1.231zM16.082 21.826l-0 1.231c0.327 0 0.64-0.13 0.871-0.361s0.361-0.544 0.361-0.87h-1.231zM15.918 21.825h-1.231c0 0.68 0.551 1.231 1.23 1.231l0-1.231zM15.918 21.662v-1.231c-0.68 0-1.231 0.551-1.231 1.231h1.231zM17.231 10.174c0-0.68-0.551-1.231-1.231-1.231s-1.231 0.551-1.231 1.231h2.462zM14.769 16.738c0 0.68 0.551 1.231 1.231 1.231s1.231-0.551 1.231-1.231h-2.462zM16 29.538c-7.477 0-13.538-6.061-13.538-13.538h-2.462c0 8.837 7.163 16 16 16v-2.462zM2.462 16c0-7.477 6.061-13.538 13.538-13.538v-2.462c-8.837 0-16 7.163-16 16h2.462zM16 2.462c7.477 0 13.538 6.061 13.538 13.538h2.462c0-8.837-7.163-16-16-16v2.462zM29.538 16c0 7.477-6.061 13.538-13.538 13.538v2.462c8.837 0 16-7.163 16-16h-2.462zM14.851 21.662v0.164h2.462v-0.164h-2.462zM16.082 20.595l-0.163-0-0.001 2.462 0.163 0 0.001-2.462zM17.149 21.825v-0.164h-2.462v0.164h2.462zM15.918 22.892h0.163v-2.462h-0.163v2.462zM14.769 10.174v6.564h2.462v-6.564h-2.462z"></path>
</symbol>
<symbol id="icon-edit1" viewBox="0 0 32 32">
<path d="M2.518 25.577v0zM3.964 21.241v0zM5.455 18.828v0zM19.857 4.425v0zM27.574 12.142v0zM13.171 26.544v0zM10.758 28.035v0zM6.423 29.481v0zM12.38 27.282v0zM11.773 27.658v0zM29.433 6.57v0zM29.433 9.997v0zM22.002 2.566v0zM25.429 2.566v0zM4.341 20.227v0zM4.717 19.619v0zM1.799 29.031v0zM2.968 30.2v0zM18.951 5.331c-0.565-0.565-1.481-0.565-2.046 0s-0.565 1.481 0 2.046l2.046-2.046zM24.622 15.094c0.565 0.565 1.481 0.565 2.046 0s0.565-1.481 0-2.046l-2.046 2.046zM3.891 26.034l1.445-4.336-2.745-0.915-1.445 4.336 2.745 0.915zM6.478 19.851l14.402-14.402-2.046-2.046-14.402 14.403 2.046 2.046zM26.551 11.119l-14.402 14.403 2.046 2.046 14.402-14.402-2.046-2.046zM10.301 26.663l-4.336 1.445 0.915 2.745 4.336-1.445-0.915-2.745zM12.148 25.521c-0.412 0.412-0.524 0.519-0.639 0.606l1.743 2.31c0.313-0.236 0.586-0.513 0.943-0.87l-2.046-2.046zM11.216 29.408c0.479-0.16 0.848-0.279 1.2-0.454l-1.287-2.592c-0.13 0.064-0.276 0.117-0.828 0.301l0.915 2.745zM11.509 26.127c-0.119 0.090-0.246 0.168-0.38 0.235l1.287 2.592c0.294-0.146 0.574-0.319 0.836-0.517l-1.743-2.31zM26.551 5.448c1.134 1.134 1.436 1.464 1.586 1.764l2.593-1.285c-0.413-0.834-1.163-1.557-2.132-2.526l-2.046 2.046zM28.597 13.165c0.969-0.969 1.719-1.692 2.132-2.526l-2.593-1.285c-0.149 0.301-0.451 0.63-1.586 1.764l2.046 2.046zM28.137 7.213c0.334 0.675 0.334 1.467 0 2.141l2.593 1.285c0.735-1.484 0.735-3.227 0-4.711l-2.593 1.285zM20.88 5.448c1.134-1.134 1.463-1.436 1.764-1.586l-1.285-2.593c-0.834 0.413-1.556 1.163-2.526 2.132l2.046 2.046zM28.597 3.402c-0.969-0.969-1.692-1.719-2.526-2.132l-1.285 2.593c0.301 0.149 0.63 0.451 1.764 1.586l2.046-2.046zM22.645 3.863c0.675-0.334 1.467-0.334 2.142 0l1.285-2.593c-1.484-0.736-3.227-0.736-4.711 0l1.285 2.593zM5.336 21.698c0.184-0.552 0.236-0.699 0.301-0.828l-2.592-1.287c-0.175 0.352-0.294 0.721-0.454 1.2l2.745 0.915zM4.432 17.805c-0.357 0.357-0.634 0.629-0.87 0.943l2.31 1.743c0.087-0.116 0.195-0.228 0.606-0.639l-2.046-2.046zM5.637 20.87c0.066-0.134 0.145-0.261 0.235-0.38l-2.31-1.743c-0.198 0.262-0.371 0.542-0.516 0.836l2.592 1.287zM1.146 25.119c-0.305 0.915-0.567 1.696-0.715 2.325-0.143 0.608-0.253 1.347 0.006 2.072l2.726-0.972c0.035 0.098-0.030 0.053 0.086-0.438 0.11-0.47 0.32-1.102 0.643-2.072l-2.745-0.915zM5.965 28.108c-0.97 0.323-1.602 0.533-2.072 0.643-0.491 0.116-0.537 0.051-0.438 0.086l-0.972 2.725c0.725 0.259 1.464 0.148 2.072 0.006 0.629-0.148 1.41-0.41 2.325-0.715l-0.915-2.745zM0.437 29.517c0.34 0.954 1.091 1.706 2.046 2.046l0.972-2.725c-0.136-0.049-0.244-0.156-0.292-0.292l-2.726 0.972zM16.905 7.377l7.716 7.716 2.046-2.046-7.716-7.716-2.046 2.046z"></path>
</symbol>
<symbol id="icon-filter1" viewBox="0 0 32 32">
<path d="M25.872 0.084c-0.202 0.039-0.681 0.22-1.064 0.406-0.585 0.283-0.798 0.439-1.33 0.969-0.552 0.552-0.681 0.732-1.013 1.422l-0.38 0.789h-10.62c-9.965 0-10.635 0.007-10.872 0.128-0.451 0.229-0.556 0.457-0.556 1.193s0.105 0.963 0.556 1.193c0.237 0.121 0.906 0.128 10.872 0.128h10.62l0.38 0.789c0.332 0.69 0.461 0.87 1.013 1.422 0.532 0.532 0.743 0.684 1.33 0.967 0.789 0.38 1.29 0.492 2.202 0.492s1.413-0.112 2.202-0.492c0.587-0.283 0.796-0.435 1.33-0.967 0.532-0.534 0.684-0.743 0.967-1.33 0.38-0.789 0.492-1.29 0.492-2.202s-0.112-1.413-0.492-2.202c-0.283-0.587-0.435-0.796-0.967-1.33-0.534-0.532-0.743-0.684-1.33-0.967-0.323-0.163-0.7-0.304-1.093-0.404l-0.039-0.008c-0.325-0.043-0.701-0.068-1.082-0.068-0.397 0-0.787 0.027-1.17 0.079l0.045-0.005zM28.013 2.943c1.15 0.549 1.618 1.897 1.057 3.040-0.36 0.771-1.129 1.296-2.021 1.296-0.014 0-0.028-0-0.042-0l0.002 0c-0.908 0-1.653-0.468-2.061-1.295-0.149-0.293-0.236-0.64-0.236-1.006 0-0.859 0.478-1.606 1.182-1.991l0.012-0.006c0.69-0.374 1.371-0.387 2.106-0.037zM3.853 11.094c-0.202 0.039-0.681 0.22-1.064 0.405-0.585 0.283-0.798 0.439-1.33 0.969-0.532 0.534-0.684 0.743-0.967 1.33-0.38 0.789-0.492 1.29-0.492 2.202s0.112 1.413 0.492 2.202c0.283 0.587 0.435 0.796 0.967 1.33 0.534 0.532 0.743 0.684 1.33 0.967 0.789 0.38 1.29 0.492 2.202 0.492s1.413-0.112 2.202-0.492c0.587-0.283 0.798-0.435 1.33-0.967 0.552-0.552 0.681-0.732 1.013-1.422l0.38-0.789h10.62c9.965 0 10.635-0.007 10.872-0.128 0.451-0.229 0.556-0.457 0.556-1.193s-0.105-0.963-0.556-1.193c-0.237-0.121-0.906-0.128-10.872-0.128h-10.62l-0.38-0.789c-0.332-0.69-0.461-0.87-1.013-1.422-0.532-0.532-0.743-0.684-1.33-0.967-0.323-0.163-0.7-0.304-1.093-0.404l-0.039-0.008c-0.325-0.043-0.701-0.068-1.082-0.068-0.397 0-0.787 0.027-1.17 0.079l0.045-0.005zM5.995 13.952c1.15 0.549 1.618 1.897 1.057 3.040-0.688 1.396-2.442 1.736-3.622 0.701-0.196-0.201-0.363-0.432-0.492-0.685l-0.007-0.016c-0.149-0.294-0.236-0.64-0.236-1.006 0-0.859 0.478-1.606 1.182-1.991l0.012-0.006c0.69-0.374 1.371-0.387 2.106-0.037zM25.872 22.103c-0.202 0.039-0.681 0.22-1.064 0.405-0.585 0.283-0.798 0.439-1.33 0.969-0.552 0.552-0.681 0.732-1.013 1.422l-0.38 0.789h-10.62c-9.965 0-10.635 0.007-10.872 0.128-0.451 0.229-0.556 0.457-0.556 1.193s0.105 0.963 0.556 1.193c0.237 0.121 0.906 0.128 10.872 0.128h10.62l0.38 0.789c0.332 0.69 0.461 0.87 1.013 1.422 0.532 0.532 0.743 0.684 1.33 0.967 0.789 0.38 1.29 0.492 2.202 0.492s1.413-0.112 2.202-0.492c0.587-0.283 0.796-0.435 1.33-0.967 0.532-0.534 0.684-0.743 0.967-1.33 0.38-0.789 0.492-1.29 0.492-2.202s-0.112-1.413-0.492-2.202c-0.283-0.587-0.435-0.796-0.967-1.33-0.534-0.532-0.743-0.684-1.33-0.967-0.323-0.163-0.7-0.304-1.093-0.404l-0.039-0.008c-0.325-0.043-0.701-0.068-1.082-0.068-0.397 0-0.787 0.027-1.17 0.079l0.045-0.005zM28.013 24.961c1.15 0.549 1.618 1.897 1.057 3.040-0.688 1.396-2.442 1.736-3.622 0.701-0.196-0.201-0.363-0.432-0.492-0.685l-0.007-0.016c-0.149-0.294-0.236-0.64-0.236-1.006 0-0.859 0.478-1.606 1.182-1.991l0.012-0.006c0.69-0.374 1.371-0.387 2.106-0.037z"></path>
</symbol>
<symbol id="icon-list-catalog1" viewBox="0 0 32 32">
<path d="M2.141 2.215c-0.661 0.21-1.339 0.816-1.676 1.496l-0.182 0.372v7.134l0.217 0.429c0.258 0.507 0.827 1.068 1.343 1.321l0.372 0.182h27.569l0.429-0.217c0.507-0.258 1.068-0.827 1.321-1.343l0.182-0.372v-7.134l-0.182-0.372c-0.308-0.569-0.758-1.027-1.304-1.335l-0.017-0.009-0.429-0.217-13.673-0.015c-10.84-0.011-13.734 0.006-13.97 0.080zM29.471 4.065c0.474 0.308 0.463 0.227 0.463 3.584s0.011 3.275-0.463 3.584c-0.189 0.124-0.918 0.132-13.471 0.132s-13.281-0.007-13.471-0.132c-0.466-0.305-0.461-0.262-0.485-3.32-0.013-1.535-0.004-2.932 0.022-3.106 0.056-0.381 0.336-0.736 0.656-0.829 0.141-0.041 5.538-0.065 13.393-0.058 12.432 0.013 13.166 0.020 13.355 0.145zM2.141 18.935c-0.661 0.21-1.339 0.816-1.676 1.495l-0.182 0.372v7.134l0.217 0.429c0.258 0.507 0.827 1.068 1.343 1.321l0.372 0.182h27.569l0.429-0.217c0.507-0.258 1.068-0.827 1.321-1.343l0.182-0.372v-7.134l-0.182-0.372c-0.308-0.569-0.758-1.027-1.304-1.335l-0.017-0.009-0.429-0.217-13.673-0.015c-10.84-0.011-13.734 0.006-13.97 0.080zM29.471 20.785c0.474 0.308 0.463 0.227 0.463 3.584s0.011 3.275-0.463 3.584c-0.189 0.124-0.918 0.132-13.471 0.132s-13.281-0.007-13.471-0.132c-0.466-0.305-0.461-0.262-0.485-3.32-0.013-1.535-0.004-2.932 0.022-3.106 0.056-0.381 0.336-0.736 0.656-0.829 0.141-0.041 5.538-0.065 13.393-0.058 12.432 0.013 13.166 0.020 13.355 0.145z"></path>
</symbol>
<symbol id="icon-news1" viewBox="0 0 32 32">
<path d="M7.019 0.321c-1.021 0.078-1.681 0.234-2.225 0.523-0.75 0.399-1.256 1.089-1.503 2.039-0.256 0.989-0.275 2.028-0.249 13.76 0.026 11.441 0.026 11.548 0.182 12.226 0.375 1.631 1.19 2.407 2.88 2.747 0.622 0.124 1.301 0.134 9.91 0.134s9.288-0.009 9.91-0.134c1.748-0.351 2.578-1.184 2.906-2.923 0.13-0.692 0.137-1.349 0.137-12.68s-0.007-11.988-0.137-12.68c-0.304-1.613-1.097-2.503-2.518-2.832-0.41-0.080-0.912-0.146-1.422-0.183l-0.044-0.003c-1.19-0.091-16.639-0.085-17.826 0.006zM22.212 7.785c0.685 0.234 1.225 0.998 1.225 1.733 0 0.449-0.221 0.967-0.555 1.301-0.577 0.579-0.291 0.555-6.868 0.555s-6.291 0.024-6.868-0.555c-0.336-0.331-0.545-0.792-0.545-1.301s0.209-0.971 0.546-1.302l0-0c0.566-0.566 0.254-0.54 6.835-0.547 5.278-0.006 5.905 0.007 6.23 0.117zM22.212 15.208c0.685 0.234 1.225 0.998 1.225 1.733 0 0.449-0.221 0.967-0.555 1.301-0.577 0.579-0.291 0.555-6.868 0.555s-6.291 0.024-6.868-0.555c-0.336-0.331-0.545-0.792-0.545-1.301s0.209-0.971 0.546-1.302l0-0c0.566-0.566 0.254-0.54 6.835-0.547 5.278-0.006 5.905 0.007 6.23 0.117zM18.5 22.631c0.685 0.234 1.225 0.998 1.225 1.733 0 0.449-0.221 0.967-0.555 1.301-0.56 0.56-0.509 0.555-5.012 0.555s-4.452 0.006-5.012-0.555c-0.336-0.331-0.545-0.792-0.545-1.301s0.209-0.971 0.546-1.302l0-0c0.549-0.549 0.464-0.54 4.979-0.547 3.552-0.006 4.055 0.009 4.374 0.117z"></path>
</symbol>
<symbol id="icon-sort1" viewBox="0 0 32 32">
<path d="M8.379 3.955c-0.176 0.040-0.963 0.79-3.973 3.788-2.065 2.057-3.827 3.837-3.918 3.956-0.351 0.469-0.113 1.204 0.446 1.372 0.58 0.173 0.465 0.265 3.769-3.031l3.021-3.014v20.321l0.21 0.229c0.444 0.483 1.221 0.386 1.493-0.187 0.097-0.205 0.107-1.069 0.107-10.262v-10.039l2.924 2.916c1.609 1.604 3.018 2.964 3.131 3.021 0.38 0.189 0.712 0.126 1.069-0.207 0.2-0.187 0.276-0.485 0.213-0.837-0.040-0.213-0.496-0.695-3.837-4.044-2.086-2.090-3.864-3.838-3.953-3.884-0.138-0.079-0.303-0.126-0.48-0.126-0.079 0-0.156 0.009-0.23 0.027l0.007-0.001zM23.072 3.987c-0.052 0.022-0.141 0.053-0.232 0.083l-0.038 0.011c-0.006 0.002-0.079 0.097-0.162 0.212l-0.15 0.21-0.032 10.189-0.032 10.187-2.872-2.95c-1.578-1.624-2.974-3.016-3.102-3.097-0.386-0.244-0.813-0.17-1.16 0.202-0.208 0.223-0.254 0.704-0.090 0.989 0.183 0.323 7.583 7.89 7.804 7.982 0.26 0.108 0.641 0.092 0.835-0.034 0.086-0.058 1.859-1.85 3.94-3.984 3.014-3.090 3.798-3.929 3.856-4.124 0.024-0.078 0.038-0.168 0.038-0.26 0-0.438-0.31-0.803-0.722-0.889l-0.006-0.001c-0.515-0.095-0.509-0.1-3.675 3.15l-2.973 3.052-0.032-10.258-0.032-10.26-0.241-0.221c-0.134-0.121-0.299-0.221-0.367-0.221-0.075-0-0.148-0.011-0.217-0.030l0.006 0.001c-0.010-0-0.021-0.001-0.033-0.001-0.112 0-0.219 0.023-0.316 0.066l0.005-0.002z"></path>
</symbol>
<symbol id="icon-copy" viewBox="0 0 32 32">
<path d="M12.587 0.322c-1.343 0.159-2.368 0.838-2.982 1.976-0.338 0.626-0.437 1.088-0.464 2.155-0.013 0.499-0.030 1.045-0.039 1.214l-0.015 0.306h2.006l0.001-0.573c0.003-1.532 0.137-2.125 0.586-2.573 0.364-0.364 0.692-0.483 1.482-0.537 0.913-0.062 10.741-0.060 11.599 0.003 0.793 0.058 1.030 0.142 1.413 0.5 0.314 0.294 0.483 0.619 0.551 1.060 0.082 0.532 0.038 18.47-0.045 18.706-0.107 0.3-0.422 0.717-0.685 0.906-0.403 0.289-0.626 0.333-1.822 0.362l-1.080 0.025v2.032l1.027-0.035c1.509-0.051 2.087-0.17 2.76-0.568 0.952-0.565 1.546-1.408 1.804-2.559 0.082-0.368 0.089-1.177 0.089-9.655 0-8.746-0.005-9.278-0.097-9.704-0.234-1.085-0.759-1.854-1.682-2.463-0.462-0.304-1.013-0.492-1.687-0.574-0.555-0.068-12.151-0.072-12.72-0.004zM7.333 6.185c-0.504 0.024-1.006 0.079-1.226 0.134-1.316 0.332-2.384 1.379-2.719 2.668-0.184 0.705-0.193 1.248-0.175 10.32 0.017 8.437 0.024 9.011 0.114 9.386 0.194 0.808 0.509 1.375 1.065 1.919 0.547 0.534 1.020 0.792 1.845 1.005 0.319 0.082 0.919 0.090 6.803 0.090 7.258 0 6.856 0.021 7.695-0.403 0.736-0.359 1.321-0.933 1.683-1.64l0.010-0.021c0.35-0.665 0.401-0.988 0.46-2.896 0.075-2.406 0.025-16.667-0.060-17.198-0.157-0.984-0.542-1.734-1.198-2.333-0.602-0.55-1.227-0.847-2.057-0.979-0.467-0.074-10.829-0.118-12.24-0.052zM19.19 8.214c0.485 0.063 0.788 0.194 1.089 0.472 0.385 0.355 0.519 0.686 0.576 1.427 0.063 0.818 0.064 16.81 0.001 17.625-0.066 0.853-0.252 1.258-0.744 1.618-0.54 0.395-0.155 0.372-6.672 0.392-6.063 0.019-6.674 0.002-7.125-0.198-0.307-0.136-0.718-0.527-0.866-0.824-0.074-0.159-0.133-0.343-0.169-0.536l-0.002-0.014c-0.072-0.442-0.068-18.016 0.005-18.469 0.075-0.471 0.315-0.862 0.705-1.151 0.292-0.217 0.544-0.306 1.025-0.362 0.391-0.045 11.821-0.026 12.177 0.020z"></path>
</symbol>
</defs>
</svg>
